<svg style="width: 100%; height: 100%;" viewBox="0 0 128 128" fill="none" xmlns="http://www.w3.org/2000/svg">
<style>
	path {
		fill: black;
		stroke: black;
	}
	@media (prefers-color-scheme: dark) {
		path {
		fill: white;
		stroke: white;
		}
	}
</style>
<path fill-rule="evenodd" clip-rule="evenodd" d="M32.9477 76.4225C30.5214 85.068 31.9735 90.6957 34.7955 93.5177C37.6174 96.3396 43.2451 97.7918 51.8906 95.3655C60.2981 93.006 70.0823 87.2661 78.9186 78.4298C87.755 69.5935 93.4948 59.8093 95.8543 51.4018C98.2806 42.7562 96.8284 37.1285 94.0065 34.3066C91.1846 31.4847 85.5569 30.0325 76.9113 32.4588C68.5038 34.8183 58.7197 40.5581 49.8833 49.3945C41.047 58.2308 35.3072 68.015 32.9477 76.4225ZM19.8232 72.7392C22.9245 61.6887 30.0684 49.9316 40.2444 39.7556C50.4205 29.5795 62.1776 22.4356 73.2281 19.3344C84.0406 16.2999 95.7877 16.81 103.645 24.6677C111.503 32.5254 112.013 44.2725 108.979 55.085C105.877 66.1355 98.7336 77.8926 88.5575 88.0687C78.3815 98.2447 66.6244 105.389 55.5739 108.49C44.7614 111.524 33.0142 111.014 25.1566 103.157C17.2989 95.2989 16.7888 83.5517 19.8232 72.7392Z" stroke-width="0.5" stroke-miterlimit="10"/>
</svg>
