<svg width="32" height="32" viewBox="0 0 32 32" fill="none" xmlns="http://www.w3.org/2000/svg">
<g clip-path="url(#clip0_1278_1782)">
<path fill-rule="evenodd" clip-rule="evenodd" d="M5.27983 20.1738C4.45248 23.1219 4.94766 25.0409 5.90991 26.0031C6.87216 26.9654 8.79116 27.4606 11.7392 26.6332C14.6061 25.8286 17.9424 23.8714 20.9555 20.8583C23.9686 17.8452 25.9259 14.5089 26.7304 11.642C27.5578 8.69393 27.0626 6.77493 26.1004 5.81268C25.1381 4.85043 23.2191 4.35525 20.2711 5.1826C17.4042 5.98717 14.0679 7.9444 11.0547 10.9575C8.04163 13.9706 6.0844 17.3069 5.27983 20.1738ZM0.804515 18.9179C1.86201 15.1497 4.29801 11.1407 7.76796 7.67073C11.2379 4.20078 15.247 1.76478 19.0151 0.707285C22.7021 -0.327434 26.7077 -0.153495 29.3871 2.5259C32.0665 5.20529 32.2405 9.21097 31.2058 12.8979C30.1483 16.6661 27.7123 20.6751 24.2423 24.1451C20.7724 27.615 16.7633 30.051 12.9952 31.1085C9.3082 32.1432 5.30252 31.9693 2.62313 29.2899C-0.0562636 26.6105 -0.230202 22.6048 0.804515 18.9179Z" fill="black" stroke="black" stroke-width="0.5" stroke-miterlimit="10"/>
</g>
<defs>
<clipPath id="clip0_1278_1782">
<rect width="32" height="32" fill="white"/>
</clipPath>
</defs>
</svg>
