<svg width="32" height="32" viewBox="0 0 32 32" fill="none" xmlns="http://www.w3.org/2000/svg">
<rect width="32" height="32" rx="8" fill="white"/>
<rect x="0.16" y="0.16" width="31.68" height="31.68" rx="7.84" stroke="black" stroke-opacity="0.16" stroke-width="0.32"/>
<mask id="mask0_1142_1574" style="mask-type:alpha" maskUnits="userSpaceOnUse" x="8" y="6" width="18" height="20">
<path d="M17.5055 6.33203H8.81836V25.6645H14.0018C14.485 25.6645 14.8754 25.2741 14.8754 24.791V21.0762H16.1744C22.5226 21.0762 25.1175 17.4989 25.1175 13.3137C25.1207 8.14945 21.1979 6.33203 17.5055 6.33203Z" fill="url(#paint0_linear_1142_1574)"/>
</mask>
<g mask="url(#mask0_1142_1574)">
<path d="M16.4368 -1.52937L16.7183 -1.44618C17.1343 -1.32459 17.4862 -1.04942 17.707 -0.678255L18.1038 -0.00632203C18.3246 0.364841 18.6765 0.640013 19.0925 0.761601L19.8412 0.982379C20.2572 1.10397 20.6091 1.37914 20.8299 1.7503L21.2267 2.42224C21.4475 2.7934 21.7994 3.06857 22.2154 3.19016L22.9641 3.41094C23.3801 3.53252 23.732 3.8077 23.9528 4.17886L24.3496 4.85079C24.5703 5.22196 24.9223 5.49713 25.3383 5.61872L26.087 5.83949C26.5029 5.96108 26.8549 6.23625 27.0757 6.60742L27.4757 7.28255C27.6932 7.65371 28.0452 7.92568 28.458 8.05047L29.2163 8.27445C29.6226 8.39604 29.9714 8.66481 30.189 9.02638L30.3394 9.27595C30.7073 9.88069 30.6593 10.6518 30.2242 11.2086L29.2227 12.4948C28.6435 13.2372 27.5716 13.3715 26.8293 12.7924L13.9058 2.7422C13.1635 2.16306 13.0291 1.09117 13.6082 0.348843L14.6129 -0.940629C15.0385 -1.49417 15.7648 -1.72775 16.4368 -1.52937Z" fill="url(#paint1_linear_1142_1574)"/>
<path d="M27.3957 8.8983C27.4885 8.9463 27.5909 8.9879 27.6933 9.01669L28.4484 9.24067C28.8547 9.36226 29.2035 9.63103 29.4243 9.99579L29.5747 10.2454C29.9394 10.8501 29.8914 11.618 29.4563 12.1748L28.4516 13.461C27.8724 14.2034 26.8005 14.3346 26.0582 13.7554L13.1475 3.69242C12.4052 3.11328 12.2708 2.04139 12.8499 1.29586L13.8546 0.0063929C14.2866 -0.547152 15.0097 -0.780728 15.6817 -0.582348L15.9632 -0.499156C16.3792 -0.377569 16.7311 -0.102396 16.9519 0.271966L17.3487 0.943899C17.5695 1.31506 17.9214 1.59343 18.3374 1.71502L19.0861 1.9358C19.5021 2.05739 19.854 2.33256 20.0748 2.70692L20.4716 3.37886C20.6924 3.75002 21.0443 4.02839 21.4603 4.14998L22.209 4.37076C22.625 4.49234 22.9769 4.76752 23.1977 5.14188L23.5945 5.81381C23.8152 6.18498 24.1672 6.46335 24.5832 6.58494L25.3319 6.80571C25.7478 6.9273 26.0998 7.20247 26.3206 7.57684L26.7173 8.25197C26.8741 8.52714 27.1141 8.75112 27.3957 8.8983Z" fill="url(#paint2_linear_1142_1574)"/>
<path d="M14.933 0.374481L15.2145 0.457673C15.6305 0.579261 15.9825 0.857633 16.2 1.2288L16.5968 1.90073C16.8176 2.27509 17.1695 2.55026 17.5823 2.67185L18.331 2.89263C18.747 3.01422 19.0989 3.29259 19.3165 3.66375L19.7133 4.33569C19.9341 4.71005 20.286 4.98522 20.6988 5.10681L21.4475 5.32759C21.8635 5.44917 22.2154 5.72755 22.433 6.09871L22.8298 6.77064C23.0505 7.145 23.4025 7.42018 23.8153 7.54177L24.564 7.76254C24.98 7.88413 25.3319 8.1625 25.5495 8.53367L25.9463 9.2088C26.1638 9.57996 26.5158 9.85513 26.9286 9.97992L27.6837 10.2039C28.0932 10.3255 28.442 10.5975 28.6596 10.9654L28.81 11.215C29.1715 11.8197 29.1235 12.5877 28.6884 13.1412L27.6837 14.4275C27.1045 15.1698 26.0326 15.301 25.2903 14.7218L12.3924 4.64285C11.6501 4.06371 11.5189 2.98862 12.098 2.24629L13.1027 0.960023C13.5347 0.409678 14.261 0.176101 14.933 0.374481Z" fill="url(#paint3_linear_1142_1574)"/>
<path d="M16.3664 1.83026L16.648 1.91345C17.0639 2.03504 17.4159 2.31341 17.6335 2.68458L18.027 3.35651C18.2446 3.73087 18.5998 4.00604 19.0125 4.12763L19.7613 4.34841C20.1772 4.47 20.5292 4.74837 20.7468 5.11953L21.1403 5.79146C21.3579 6.16583 21.7131 6.441 22.1258 6.56259L22.8746 6.78337C23.2905 6.90495 23.6425 7.18333 23.8601 7.55449L24.2536 8.22642C24.4712 8.60078 24.8264 8.87596 25.2391 8.99754L25.9878 9.21832C26.4038 9.33991 26.7558 9.61828 26.9733 9.98945L27.3701 10.6646C27.5877 11.0357 27.9397 11.3109 28.3524 11.4357L29.1043 11.6597C29.5139 11.7813 29.8627 12.0564 30.0834 12.4244L30.2338 12.6772C30.5922 13.2819 30.5442 14.0466 30.109 14.6002L29.1011 15.8865C28.5188 16.6288 27.4469 16.7568 26.7046 16.1776L13.8195 6.09543C13.0771 5.51309 12.9459 4.4412 13.5283 3.69887L14.5362 2.4126C14.9681 1.86226 15.6945 1.63188 16.3664 1.83026Z" fill="url(#paint4_linear_1142_1574)"/>
<path d="M13.4291 2.28152L13.7107 2.36471C14.1266 2.4895 14.4786 2.76467 14.6962 3.13903L15.0897 3.81096C15.3073 4.18533 15.6593 4.4605 16.0752 4.58529L16.824 4.80926C17.2399 4.93405 17.5919 5.20922 17.8095 5.58359L18.203 6.25552C18.4206 6.62988 18.7726 6.90506 19.1885 7.02984L19.9372 7.25382C20.3532 7.37861 20.7052 7.65378 20.9227 8.02814L21.3163 8.70008C21.5339 9.07444 21.8858 9.34961 22.3018 9.4744L23.0505 9.69838C23.4665 9.82316 23.8185 10.0983 24.036 10.4727L24.4296 11.1478C24.6472 11.519 24.9991 11.7974 25.4119 11.9222L26.1638 12.1461C26.5766 12.2709 26.9253 12.5429 27.1429 12.9141L27.2901 13.1668C27.6485 13.7716 27.5973 14.5363 27.1621 15.0866L26.1542 16.3697C25.5719 17.112 24.5 17.24 23.7577 16.6577L10.8789 6.54349C10.1366 5.96115 10.0086 4.88926 10.591 4.14693L11.5989 2.86066C12.0308 2.31031 12.7572 2.07994 13.4291 2.28152Z" fill="url(#paint5_linear_1142_1574)"/>
<path d="M11.1445 -0.300681L11.4133 -0.185492C11.81 -0.0159093 12.13 0.300859 12.3028 0.697619L12.6164 1.41115C12.7891 1.80791 13.1091 2.12148 13.5059 2.29426L14.2226 2.60143C14.6194 2.77101 14.9393 3.08778 15.1121 3.48454L15.4257 4.19807C15.5985 4.59483 15.9184 4.9084 16.3152 5.08118L17.0319 5.38835C17.4287 5.55793 17.7486 5.8747 17.9214 6.27146L18.235 6.98499C18.4078 7.38175 18.7277 7.69532 19.1245 7.8681L19.8412 8.17527C20.238 8.34485 20.558 8.66162 20.7307 9.05838L21.0443 9.77511C21.2171 10.1719 21.5339 10.4854 21.9306 10.655L22.6506 10.9654C23.0441 11.135 23.3609 11.4485 23.5337 11.8421L23.6521 12.1109C23.9368 12.754 23.7992 13.5059 23.3033 14.0051L22.1514 15.1634C21.4859 15.8321 20.4076 15.8353 19.7388 15.173L8.11761 3.63813C7.44888 2.97579 7.44568 1.8943 8.10801 1.22557L9.25989 0.0672823C9.75264 -0.431868 10.5014 -0.579053 11.1445 -0.300681Z" fill="url(#paint6_linear_1142_1574)"/>
<path d="M12.3956 3.84621L12.6804 3.9102C13.1027 4.00619 13.4707 4.26216 13.7139 4.62053L14.149 5.26686C14.3922 5.62523 14.7602 5.878 15.1825 5.97719L15.944 6.15318C16.3664 6.24917 16.7344 6.50514 16.9775 6.8635L17.4127 7.50984C17.6559 7.8682 18.0238 8.12098 18.4462 8.22017L19.2077 8.39615C19.6301 8.49214 19.998 8.74812 20.2412 9.10648L20.6764 9.75282C20.9196 10.1112 21.2875 10.364 21.7099 10.4631L22.4714 10.6391C22.8938 10.7351 23.2617 10.9911 23.5049 11.3495L23.9401 11.9958C24.18 12.3542 24.5512 12.6069 24.9703 12.7061L25.7319 12.8821C26.151 12.9781 26.519 13.2309 26.7622 13.5892L26.9254 13.8324C27.3189 14.4147 27.3157 15.1763 26.919 15.7554L25.9942 17.1025C25.4599 17.88 24.3976 18.0752 23.6201 17.5408L10.1206 8.26177C9.34311 7.72742 9.14793 6.66512 9.67907 5.8876L10.6038 4.54054C11.0037 3.96779 11.7141 3.68942 12.3956 3.84621Z" fill="url(#paint7_linear_1142_1574)"/>
<path d="M13.0931 2.55669L13.3587 2.67828C13.7523 2.85746 14.0626 3.18063 14.229 3.58059L14.5266 4.30052C14.6898 4.70048 15.0033 5.02364 15.3969 5.20283L16.1072 5.52599C16.5008 5.70518 16.8112 6.02834 16.9776 6.4283L17.2751 7.14823C17.4383 7.54819 17.7519 7.87136 18.1454 8.05054L18.8558 8.37371C19.2493 8.55289 19.5597 8.87606 19.7261 9.27602L20.0236 9.99595C20.1868 10.3959 20.5004 10.7191 20.894 10.8983L21.6043 11.2214C21.9978 11.4006 22.3082 11.7238 22.4746 12.1237L22.7722 12.8469C22.9354 13.2468 23.2457 13.57 23.6393 13.7492L24.3496 14.0755C24.7432 14.2547 25.0503 14.5747 25.2167 14.9746L25.3287 15.2434C25.5975 15.893 25.4407 16.6385 24.9352 17.1248L23.7577 18.2575C23.0793 18.9103 21.9978 18.8911 21.3451 18.2127L9.97985 6.4251C9.32711 5.74677 9.34631 4.66528 10.0246 4.01254L11.2021 2.87986C11.7077 2.39351 12.4564 2.26552 13.0931 2.55669Z" fill="url(#paint8_linear_1142_1574)"/>
<path d="M11.9252 4.18533L12.2036 4.26852C12.6164 4.3933 12.9683 4.67168 13.1859 5.04284L13.5795 5.71797C13.797 6.09233 14.149 6.36751 14.5618 6.49229L15.3105 6.71627C15.7233 6.84106 16.0752 7.11943 16.2928 7.4906L16.6864 8.16573C16.9039 8.54009 17.2559 8.81526 17.6687 8.94005L18.4174 9.16403C18.8301 9.28882 19.1821 9.56719 19.3997 9.93835L19.7933 10.6135C20.0108 10.9878 20.3628 11.263 20.7756 11.3878L21.5243 11.6118C21.937 11.7366 22.289 12.0149 22.5066 12.3861L22.9001 13.0612C23.1177 13.4356 23.4697 13.7108 23.8824 13.8356L24.6312 14.0595C25.0439 14.1843 25.3959 14.4627 25.6135 14.8339L25.7607 15.0866C26.1126 15.6914 26.0614 16.4529 25.6263 17.0032L24.6152 18.2863C24.0328 19.0254 22.9577 19.1534 22.2186 18.5711L9.36549 8.4441C8.62637 7.86176 8.49838 6.78667 9.08072 6.04754L10.0918 4.76447C10.527 4.21412 11.2533 3.98375 11.9252 4.18533Z" fill="url(#paint9_linear_1142_1574)"/>
<path d="M9.33672 1.74397L9.60549 1.85595C10.0055 2.02234 10.3286 2.33271 10.5078 2.72627L10.831 3.4366C11.0102 3.83016 11.3333 4.14053 11.7333 4.30691L12.4532 4.60448C12.8532 4.77086 13.1763 5.08123 13.3555 5.47479L13.6787 6.18512C13.8579 6.57868 14.181 6.88905 14.581 7.05543L15.3009 7.353C15.7009 7.51939 16.0241 7.82976 16.2032 8.22332L16.5264 8.93365C16.7056 9.32721 17.0288 9.63758 17.4287 9.80396L18.1486 10.1015C18.5486 10.2679 18.8718 10.5783 19.0509 10.9718L19.3741 11.6822C19.5533 12.0757 19.8765 12.3861 20.2764 12.5525L20.9964 12.8501C21.3963 13.0164 21.7195 13.3268 21.8987 13.7204L22.0203 13.9859C22.3114 14.6227 22.1834 15.3746 21.6971 15.877L20.5644 17.0544C19.9117 17.7328 18.8302 17.752 18.1518 17.0992L6.36742 5.72437C5.68909 5.07163 5.66989 3.99014 6.32262 3.31181L7.45531 2.13433C7.94486 1.63198 8.69039 1.47519 9.33672 1.74397Z" fill="url(#paint10_linear_1142_1574)"/>
<path d="M11.3205 5.21558L11.5989 5.29877C12.0116 5.42356 12.3636 5.70193 12.5812 6.0731L12.9747 6.74823C13.1923 7.12259 13.5443 7.39776 13.957 7.52255L14.7058 7.74653C15.1185 7.87132 15.4705 8.14969 15.6881 8.52085L16.0816 9.19598C16.2992 9.57034 16.6512 9.84552 17.0639 9.97031L17.8127 10.1943C18.2254 10.3191 18.5774 10.5974 18.795 10.9686L19.1885 11.6437C19.4061 12.0181 19.7581 12.2933 20.1708 12.4181L20.9195 12.642C21.3323 12.7668 21.6843 13.0452 21.9018 13.4164L22.2954 14.0915C22.513 14.4659 22.8649 14.741 23.2777 14.8658L24.0264 15.0898C24.4392 15.2146 24.7912 15.493 25.0087 15.8641L25.1559 16.1169C25.5079 16.7216 25.4567 17.4832 25.0215 18.0335L24.0104 19.3166C23.4281 20.0557 22.353 20.1837 21.6139 19.6013L8.76076 9.47116C8.02163 8.88881 7.89364 7.81372 8.47598 7.0746L9.48708 5.79152C9.92224 5.24118 10.6486 5.014 11.3205 5.21558Z" fill="url(#paint11_linear_1142_1574)"/>
<path d="M9.01033 2.39674L9.27591 2.51832C9.66947 2.70071 9.97984 3.02387 10.143 3.42383L10.4374 4.14696C10.6006 4.54692 10.9109 4.87009 11.3045 5.05247L12.0148 5.37884C12.4084 5.56122 12.7188 5.88439 12.8819 6.28435L13.1763 7.00747C13.3395 7.40743 13.6499 7.7306 14.0434 7.91298L14.7538 8.23935C15.1473 8.42173 15.4577 8.7449 15.6209 9.14486L15.9152 9.86799C16.0784 10.2679 16.3888 10.5911 16.7824 10.7735L17.4927 11.0999C17.8862 11.2822 18.1966 11.6054 18.3598 12.0054L18.6542 12.7285C18.8174 13.1285 19.1277 13.4516 19.5213 13.634L20.2316 13.9604C20.6252 14.1428 20.9355 14.4659 21.0987 14.8659L21.2107 15.1379C21.4763 15.7874 21.3163 16.5297 20.8108 17.0161L19.6301 18.1456C18.9485 18.7983 17.8702 18.7727 17.2175 18.0944L5.88425 6.25875C5.23151 5.57722 5.25711 4.49893 5.93544 3.84619L7.11612 2.7167C7.62167 2.23035 8.3736 2.10557 9.01033 2.39674Z" fill="url(#paint12_linear_1142_1574)"/>
<path d="M10.3478 6.24268L10.6262 6.32587C11.0389 6.45066 11.3909 6.72903 11.6085 7.10019L12.002 7.77533C12.2196 8.14969 12.5716 8.42486 12.9843 8.54965L13.733 8.77363C14.1458 8.89842 14.4978 9.17679 14.7153 9.54795L15.1089 10.2231C15.3265 10.5974 15.6784 10.8726 16.0912 10.9974L16.8399 11.2214C17.2527 11.3462 17.6047 11.6245 17.8222 11.9957L18.2158 12.6708C18.4334 13.0452 18.7853 13.3204 19.1981 13.4452L19.9468 13.6691C20.3596 13.7939 20.7115 14.0723 20.9291 14.4435L21.3227 15.1186C21.5403 15.493 21.8922 15.7681 22.305 15.8929L23.0537 16.1169C23.4665 16.2417 23.8184 16.5201 24.036 16.8912L24.1832 17.144C24.5352 17.7487 24.484 18.5103 24.0488 19.0606L23.0377 20.3437C22.4554 21.0828 21.3803 21.2108 20.6412 20.6284L7.78804 10.4983C7.04891 9.91591 6.92092 8.84082 7.50327 8.10169L8.51436 6.81862C8.95272 6.26828 9.67905 6.0411 10.3478 6.24268Z" fill="url(#paint13_linear_1142_1574)"/>
<path d="M10.735 5.91627L11.0037 6.02826C11.4037 6.19464 11.7237 6.50821 11.8997 6.90497L12.2196 7.6185C12.3956 8.01206 12.7156 8.32563 13.1155 8.49521L13.8355 8.79918C14.2354 8.96557 14.5554 9.27913 14.7314 9.67589L15.0513 10.3894C15.2273 10.783 15.5473 11.0966 15.9472 11.2661L16.6672 11.5701C17.0671 11.7365 17.3871 12.0501 17.5631 12.4468L17.8831 13.1603C18.059 13.5539 18.379 13.8675 18.779 14.0371L19.4989 14.341C19.8989 14.5074 20.2188 14.821 20.3948 15.2177L20.7148 15.9313C20.8908 16.3248 21.1787 16.7984 21.5787 16.968L22.3466 17.6079C22.7466 17.7743 23.0025 17.6623 23.1785 18.0559L23.3705 18.2478C23.6553 18.8878 23.4953 19.6429 23.0057 20.1452L21.8635 21.3131C21.2043 21.9883 20.1228 21.9979 19.4509 21.3387L7.73687 9.87748C7.06174 9.21834 7.05214 8.13685 7.71127 7.46492L8.85356 6.29703C9.34311 5.79468 10.0918 5.6443 10.735 5.91627Z" fill="url(#paint14_linear_1142_1574)"/>
<path d="M9.56067 7.26978L9.83905 7.35297C10.2518 7.47776 10.6038 7.75613 10.8213 8.12729L11.2149 8.80243C11.4325 9.17679 11.7845 9.45196 12.1972 9.57675L12.9459 9.80073C13.3587 9.92551 13.7107 10.2039 13.9282 10.575L14.3218 11.2502C14.5394 11.6245 14.8913 11.8997 15.3041 12.0245L16.0528 12.2485C16.4656 12.3733 16.8175 12.6516 17.0351 13.0228L17.4287 13.6979C17.6463 14.0723 17.9982 14.3475 18.411 14.4723L19.1597 14.6962C19.5725 14.821 19.9244 15.0994 20.142 15.4706L20.5356 16.1457C20.7532 16.5201 21.1051 16.7952 21.5179 16.92L22.2666 17.144C22.6794 17.2688 23.0313 17.5472 23.2489 17.9183L23.3961 18.1711C23.7481 18.7758 23.6969 19.5374 23.2617 20.0877L22.2506 21.3708C21.6683 22.1099 20.5932 22.2379 19.854 21.6555L7.00093 11.5254C6.2618 10.943 6.13381 9.86792 6.71616 9.12879L7.72726 7.84572C8.16241 7.29538 8.88874 7.0682 9.56067 7.26978Z" fill="url(#paint15_linear_1142_1574)"/>
<path d="M9.62784 6.67146L9.89661 6.78984C10.2934 6.96263 10.6101 7.27939 10.7797 7.67615L11.0901 8.39288C11.2629 8.78964 11.5764 9.10641 11.9732 9.27919L12.6867 9.59276C13.0835 9.76555 13.4003 10.0823 13.5698 10.4791L13.8802 11.1958C14.053 11.5926 14.3666 11.9093 14.7633 12.0821L15.4769 12.3957C15.8736 12.5685 16.1904 12.8852 16.36 13.282L16.6703 13.9987C16.8431 14.3955 17.1567 14.7123 17.5534 14.885L18.267 15.1986C18.6637 15.3714 18.9805 15.6882 19.1501 16.0849L19.4605 16.8016C19.6332 17.1984 19.8284 17.7391 20.222 17.9119L21.0571 18.0015C21.4539 18.1743 21.7706 18.4911 21.9402 18.8878L22.0554 19.1566C22.3338 19.7997 22.1898 20.5485 21.6906 21.0412L20.5323 22.1931C19.8636 22.8586 18.7853 22.8554 18.1198 22.1867L6.57534 10.5911C5.90981 9.92233 5.91301 8.84404 6.58174 8.1785L7.74003 7.02662C8.23598 6.53067 8.9847 6.38988 9.62784 6.67146Z" fill="url(#paint16_linear_1142_1574)"/>
<path d="M8.77356 8.29694L9.05193 8.38013C9.46469 8.50492 9.81666 8.78329 10.0342 9.15446L10.4278 9.82959C10.6454 10.204 10.9973 10.4791 11.4101 10.6039L12.1588 10.8279C12.5716 10.9527 12.9235 11.2311 13.1411 11.6022L13.5347 12.2773C13.7523 12.6517 14.1042 12.9269 14.517 13.0517L15.2657 13.2756C15.6785 13.4004 16.0304 13.6788 16.248 14.05L16.6416 14.7251C16.8592 15.0995 17.2111 15.3746 17.6239 15.4994L18.3726 15.7234C18.7854 15.8482 19.1373 16.1266 19.3549 16.4977L19.7485 17.1729C19.966 17.5472 20.318 17.8224 20.7308 17.9472L21.4795 18.1712C21.8923 18.2959 22.2442 18.5743 22.4618 18.9455L22.609 19.1983C22.9609 19.803 22.9097 20.5645 22.4746 21.1149L21.4635 22.3979C20.8812 23.1371 19.8061 23.265 19.0669 22.6827L6.21382 12.5525C5.47469 11.9702 5.34671 10.8951 5.92905 10.156L6.94015 8.87289C7.3753 8.32574 8.10163 8.09536 8.77356 8.29694Z" fill="url(#paint17_linear_1142_1574)"/>
<path d="M10.7446 11.9092L11.0325 11.9508C11.4613 12.0148 11.8484 12.2356 12.1204 12.5747L12.6068 13.1859C12.8755 13.525 13.2659 13.7458 13.6947 13.8098L14.4658 13.9218C14.8945 13.9858 15.2817 14.2066 15.5537 14.5457L16.04 15.1569C16.3088 15.496 16.6992 15.7168 17.1279 15.7808L17.899 15.8928C18.3278 15.9568 18.715 16.1776 18.9869 16.5167L19.4733 17.1279C19.7421 17.4671 20.1324 17.6878 20.5612 17.7518L21.3323 17.8638C21.7611 17.9278 22.1482 18.1486 22.4202 18.4877L22.9065 19.0989C23.1753 19.4381 23.5657 19.6588 23.9944 19.7228L24.7656 19.8348C25.1943 19.8988 25.5815 20.1196 25.8534 20.4588L26.0358 20.6859C26.4742 21.2331 26.5318 21.9914 26.183 22.5993L25.3703 24.0168C24.8999 24.8327 23.8568 25.1175 23.0409 24.6471L8.83434 16.4943C8.01842 16.024 7.73365 14.9809 8.204 14.165L9.01672 12.7475C9.36549 12.1396 10.0502 11.8068 10.7446 11.9092Z" fill="url(#paint18_linear_1142_1574)"/>
<path d="M7.98645 9.324L8.26483 9.40719C8.67758 9.53198 9.02955 9.81035 9.24713 10.1815L9.64069 10.8566C9.85827 11.231 10.2102 11.5062 10.623 11.631L11.3717 11.8549C11.7845 11.9797 12.1364 12.2581 12.354 12.6293L12.7476 13.3044C12.9652 13.6788 13.3171 13.9539 13.7299 14.0787L14.4786 14.3027C14.8914 14.4275 15.2433 14.7059 15.4609 15.077L15.8545 15.7522C16.072 16.1265 16.424 16.4017 16.8368 16.5265L17.5855 16.7505C17.9983 16.8752 18.3502 17.1536 18.5678 17.5248L18.9614 18.1999C19.1789 18.5743 19.5309 18.8494 19.9437 18.9742L20.6924 19.1982C21.1051 19.323 21.4571 19.6014 21.6747 19.9725L21.8219 20.2253C22.1738 20.83 22.1226 21.5916 21.6875 22.1419L20.6764 23.425C20.094 24.1641 19.019 24.2921 18.2798 23.7098L5.42671 13.5828C4.68758 13.0004 4.5596 11.9253 5.14194 11.1862L6.15304 9.90314C6.58819 9.35279 7.31452 9.12242 7.98645 9.324Z" fill="url(#paint19_linear_1142_1574)"/>
<path d="M8.03764 8.8601L8.30962 8.96889C8.70958 9.13208 9.03594 9.43925 9.21832 9.82961L9.54789 10.5367C9.73027 10.9303 10.0566 11.2375 10.4566 11.3974L11.1797 11.6886C11.5797 11.8518 11.9061 12.159 12.0884 12.5493L12.418 13.2565C12.6004 13.65 12.9268 13.9572 13.3267 14.1172L14.0498 14.4083C14.4498 14.5715 14.7762 14.8787 14.9586 15.2691L15.2881 15.9762C15.4705 16.3698 15.7969 16.6769 16.1968 16.8369L16.92 17.1281C17.3199 17.2913 17.6463 17.5984 17.8287 17.9888L18.1582 18.6959C18.3406 19.0895 18.667 19.3967 19.0669 19.5566L19.7901 19.8478C20.19 20.011 20.5164 20.3182 20.6988 20.7085L20.8236 20.9741C21.1211 21.6108 20.9963 22.3596 20.5164 22.8683L19.3933 24.0522C18.7438 24.7369 17.6655 24.7657 16.9807 24.1162L5.10033 12.8661C4.4156 12.2166 4.38681 11.1383 5.03634 10.4535L6.15943 9.26966C6.64258 8.76091 7.38811 8.59773 8.03764 8.8601Z" fill="url(#paint20_linear_1142_1574)"/>
<path d="M6.06344 11.6917L6.35461 11.7141C6.78657 11.7461 7.18973 11.9412 7.4809 12.2612L8.00885 12.8372C8.30322 13.1571 8.70318 13.3523 9.13513 13.3843L9.91266 13.4419C10.3446 13.4739 10.7478 13.6691 11.0389 13.989L11.5669 14.565C11.8613 14.885 12.2612 15.0801 12.6932 15.1121L13.4707 15.1697C13.9027 15.2017 14.3058 15.3969 14.597 15.7169L15.1249 16.2928C15.4193 16.6128 15.8193 16.808 16.2512 16.84L17.0287 16.8975C17.4607 16.9295 17.8639 17.1247 18.155 17.4447L18.683 18.0206C18.9773 18.3406 19.3773 18.5358 19.8093 18.5678L20.5868 18.6254C21.0187 18.6574 21.4219 18.8526 21.7131 19.1725L21.9115 19.3869C22.385 19.9021 22.497 20.6572 22.1898 21.2875L21.4763 22.7562C21.0635 23.6041 20.0428 23.9592 19.1949 23.5465L4.4764 16.3984C3.62848 15.9856 3.27332 14.9649 3.68608 14.117L4.39961 12.6484C4.70358 12.018 5.36271 11.6373 6.06344 11.6917Z" fill="url(#paint21_linear_1142_1574)"/>
<path d="M7.19928 10.3511L7.47766 10.4343C7.89042 10.5591 8.24238 10.8374 8.45996 11.2086L8.85352 11.8837C9.0711 12.2581 9.42306 12.5333 9.83582 12.6581L10.5845 12.882C10.9973 13.0068 11.3493 13.2852 11.5668 13.6564L11.9604 14.3347C12.178 14.7091 12.53 14.9842 12.9427 15.109L13.6914 15.333C14.1042 15.4578 14.4562 15.7362 14.6737 16.1073L15.0673 16.7825C15.2849 17.1568 15.6368 17.432 16.0496 17.5568L16.7983 17.7808C17.2111 17.9055 17.5631 18.1839 17.7806 18.5551L18.1742 19.2302C18.3918 19.6046 18.7437 19.8797 19.1565 20.0045L19.9052 20.2285C20.318 20.3533 20.6699 20.6317 20.8875 21.0028L21.0347 21.2556C21.3867 21.8603 21.3355 22.6219 20.9003 23.1722L19.8892 24.4553C19.3069 25.1944 18.2318 25.3224 17.4927 24.7401L4.63954 14.6099C3.90041 14.0275 3.77243 12.9524 4.35477 12.2133L5.36587 10.9302C5.80102 10.3799 6.52735 10.1495 7.19928 10.3511Z" fill="url(#paint22_linear_1142_1574)"/>
<path d="M7.30811 9.73018L7.57688 9.84857C7.97364 10.0246 8.28721 10.3445 8.45679 10.7413L8.76076 11.458C8.93035 11.8548 9.24391 12.1747 9.64068 12.3507L10.3542 12.6675C10.751 12.8435 11.0645 13.1634 11.2341 13.5602L11.5381 14.2769C11.7077 14.6737 12.0212 14.9937 12.418 15.1696L13.1315 15.4864C13.5283 15.6624 13.8419 15.9824 14.0114 16.3791L14.3154 17.0958C14.485 17.4926 14.7986 17.8126 15.1953 17.9886L15.9088 18.3053C16.3056 18.4813 16.6192 18.8013 16.7888 19.198L17.0927 19.9148C17.2623 20.3115 17.5759 20.6315 17.9726 20.8075L18.6862 21.1242C19.0829 21.3002 19.3965 21.6202 19.5661 22.017L19.6813 22.2857C19.9564 22.9321 19.8061 23.6776 19.3069 24.1703L18.1422 25.3158C17.4703 25.9782 16.3888 25.9686 15.7297 25.2966L4.23641 13.6338C3.57408 12.9619 3.58368 11.8804 4.25561 11.2212L5.4203 10.0757C5.91625 9.583 6.66817 9.44541 7.30811 9.73018Z" fill="url(#paint23_linear_1142_1574)"/>
<path d="M5.23467 12.9043L5.52585 12.9299C5.9578 12.9683 6.35776 13.1699 6.64573 13.4931L7.16408 14.0754C7.45205 14.3986 7.85201 14.6002 8.28397 14.6386L9.06149 14.709C9.49345 14.7474 9.89341 14.9489 10.1814 15.2721L10.6997 15.8545C10.9877 16.1776 11.3877 16.3792 11.8196 16.4176L12.5971 16.488C13.0291 16.5264 13.4291 16.728 13.717 17.0511L14.2322 17.6303C14.5201 17.9534 14.9201 18.155 15.3521 18.1934L16.1296 18.2638C16.5615 18.3022 16.9615 18.5038 17.2495 18.827L17.7678 19.4093C18.0558 19.7325 18.4558 19.934 18.8877 19.9724L19.6652 20.0428C20.0972 20.0812 20.4971 20.2828 20.7851 20.606L20.9803 20.8236C21.4475 21.3451 21.5466 22.1002 21.2331 22.7274L20.5003 24.1864C20.078 25.0279 19.0509 25.3671 18.2094 24.9447L3.57724 17.5855C2.73572 17.1631 2.39656 16.136 2.81891 15.2945L3.55164 13.8355C3.86841 13.2115 4.53394 12.8404 5.23467 12.9043Z" fill="url(#paint24_linear_1142_1574)"/>
<path d="M6.40897 11.3782L6.68735 11.4614C7.10011 11.5862 7.45207 11.8645 7.66965 12.2357L8.06321 12.9108C8.28079 13.2852 8.63275 13.5604 9.04551 13.6852L9.79424 13.9091C10.207 14.0339 10.559 14.3123 10.7765 14.6835L11.1701 15.3586C11.3877 15.733 11.7396 16.0081 12.1524 16.1329L12.9011 16.3569C13.3139 16.4817 13.6658 16.7601 13.8834 17.1312L14.277 17.8064C14.4946 18.1807 14.8465 18.4559 15.2593 18.5807L16.008 18.8047C16.4208 18.9294 16.7727 19.2078 16.9903 19.579L17.3839 20.2541C17.6015 20.6285 17.9534 20.9036 18.3662 21.0284L19.1149 21.2524C19.5277 21.3772 19.8796 21.6556 20.0972 22.0267L20.2444 22.2795C20.5964 22.8842 20.5452 23.6458 20.11 24.1961L19.0989 25.4792C18.5166 26.2183 17.4415 26.3463 16.7023 25.764L3.85243 15.637C3.1133 15.0546 2.98532 13.9795 3.56766 13.2404L4.57876 11.9573C5.01391 11.407 5.74024 11.1766 6.40897 11.3782Z" fill="url(#paint25_linear_1142_1574)"/>
<path d="M6.60418 11.4741L6.87296 11.5925C7.26972 11.7652 7.58648 12.082 7.75607 12.4788L8.06644 13.1955C8.23922 13.5923 8.55279 13.909 8.94955 14.0818L9.66308 14.3954C10.0598 14.5682 10.3766 14.8849 10.5462 15.2817L10.8566 15.9984C11.0293 16.3952 11.3429 16.712 11.7397 16.8847L12.4532 17.1983C12.85 17.3711 13.1667 17.6879 13.3363 18.0846L13.6467 18.8013C13.8195 19.1981 14.133 19.5149 14.5298 19.6877L15.2433 20.0012C15.6401 20.174 15.9568 20.4908 16.1264 20.8875L16.4368 21.6043C16.6096 22.001 16.9232 22.3178 17.3199 22.4906L18.0334 22.8041C18.4302 22.9769 18.747 23.2937 18.9166 23.6905L19.0317 23.9592C19.3101 24.6024 19.1661 25.3511 18.6702 25.8438L17.5119 26.9957C16.8432 27.6613 15.7649 27.6581 15.0993 26.9893L3.54849 15.3905C2.88295 14.7217 2.88615 13.6435 3.55489 12.9779L4.71317 11.826C5.21232 11.3333 5.96105 11.1925 6.60418 11.4741Z" fill="url(#paint26_linear_1142_1574)"/>
<path d="M5.62189 12.4053L5.90026 12.4885C6.31302 12.6133 6.66499 12.8916 6.88256 13.2628L7.27612 13.9379C7.4937 14.3123 7.84567 14.5875 8.25843 14.7123L9.00715 14.9362C9.41991 15.061 9.77188 15.3394 9.98946 15.7106L10.383 16.3857C10.6006 16.7601 10.9526 17.0352 11.3653 17.16L12.114 17.384C12.5268 17.5088 12.8788 17.7872 13.0963 18.1583L13.4899 18.8335C13.7075 19.2078 14.0594 19.483 14.4722 19.6078L15.2209 19.8318C15.6337 19.9565 15.9857 20.2349 16.2032 20.6061L16.5968 21.2812C16.8144 21.6556 17.1663 21.9307 17.5791 22.0555L18.3278 22.2795C18.7406 22.4043 19.0925 22.6827 19.3101 23.0538L19.4573 23.3066C19.8093 23.9113 19.7581 24.6729 19.3229 25.2232L18.3118 26.5063C17.7295 27.2454 16.6544 27.3734 15.9153 26.7911L3.06215 16.6641C2.32302 16.0817 2.19503 15.0066 2.77737 14.2675L3.78847 12.9844C4.22683 12.4341 4.95316 12.2037 5.62189 12.4053Z" fill="url(#paint27_linear_1142_1574)"/>
<path d="M3.30211 9.50642L3.56449 9.6344C3.95485 9.82318 4.25562 10.1528 4.4124 10.5559L4.69397 11.2854C4.85076 11.6886 5.15153 12.0182 5.54189 12.2069L6.24262 12.5461C6.63298 12.7349 6.93375 13.0645 7.09053 13.4676L7.37211 14.1971C7.52889 14.6003 7.82966 14.9299 8.22002 15.1187L8.92075 15.4578C9.31111 15.6466 9.61188 15.9762 9.76867 16.3793L10.0502 17.1089C10.207 17.512 10.5078 17.8416 10.8982 18.0304L11.5989 18.3695C11.9892 18.5583 12.29 18.8879 12.4468 19.291L12.7284 20.0206C12.8852 20.4237 13.1859 20.7533 13.5763 20.9421L14.277 21.2812C14.6674 21.47 14.9681 21.7996 15.1249 22.2027L15.2305 22.4747C15.4833 23.1275 15.3105 23.8698 14.7922 24.3433L13.5891 25.4504C12.8948 26.0872 11.8165 26.0424 11.1765 25.3512L0.0992317 13.3012C-0.537505 12.6069 -0.492708 11.5286 0.198423 10.8887L1.4015 9.78159C1.91985 9.31123 2.67178 9.19925 3.30211 9.50642Z" fill="url(#paint28_linear_1142_1574)"/>
<path d="M4.83472 13.4356L5.11309 13.5187C5.52585 13.6435 5.87782 13.9219 6.0954 14.2931L6.48896 14.9682C6.70653 15.3426 7.0585 15.6177 7.47126 15.7425L8.21998 15.9665C8.63274 16.0913 8.98471 16.3697 9.20228 16.7408L9.59584 17.416C9.81342 17.7903 10.1654 18.0655 10.5781 18.1903L11.3269 18.4143C11.7396 18.539 12.0916 18.8174 12.3092 19.1886L12.7027 19.8637C12.9203 20.2381 13.2723 20.5132 13.685 20.638L14.4338 20.862C14.8465 20.9868 15.1985 21.2652 15.4161 21.6363L15.8096 22.3115C16.0272 22.6858 16.3792 22.961 16.7919 23.0858L17.5407 23.3098C17.9534 23.4346 18.3054 23.7129 18.523 24.0841L18.6701 24.3369C19.0221 24.9416 18.9709 25.7031 18.5358 26.2535L17.5247 27.5365C16.9423 28.2757 15.8672 28.4037 15.1281 27.8213L2.27498 17.6911C1.53585 17.1088 1.40786 16.0337 1.99021 15.2946L3.0013 14.0115C3.43646 13.4611 4.16279 13.234 4.83472 13.4356Z" fill="url(#paint29_linear_1142_1574)"/>
<path d="M4.44118 14.1425L4.72275 14.2193C5.14191 14.3313 5.50027 14.6001 5.72745 14.9649L6.14021 15.6272C6.36738 15.9952 6.72895 16.2607 7.14491 16.3727L7.89683 16.5743C8.31599 16.6863 8.67436 16.9551 8.90153 17.3198L9.31429 17.9822C9.54147 18.3501 9.90303 18.6157 10.319 18.7277L11.0709 18.9293C11.4901 19.0413 11.8484 19.31 12.0756 19.6748L12.4884 20.3371C12.7155 20.7051 13.0771 20.9707 13.4931 21.0827L14.245 21.2842C14.6642 21.3962 15.0225 21.665 15.2497 22.0298L15.6625 22.6921C15.8896 23.0601 16.2512 23.3256 16.6672 23.4376L17.4191 23.6392C17.8382 23.7512 18.1966 24.02 18.4238 24.3847L18.5774 24.6343C18.9485 25.2294 18.9165 25.991 18.4974 26.5541L17.5247 27.866C16.9615 28.6211 15.8928 28.7811 15.1377 28.2179L1.99342 18.4589C1.2383 17.8958 1.07831 16.8271 1.64146 16.072L2.61416 14.7601C3.04612 14.2097 3.76604 13.9602 4.44118 14.1425Z" fill="url(#paint30_linear_1142_1574)"/>
<path d="M5.24108 13.7396L5.50986 13.8548C5.90662 14.0244 6.22658 14.3379 6.40257 14.7315L6.71933 15.445C6.89532 15.8418 7.21528 16.1554 7.61204 16.3217L8.33197 16.6257C8.72873 16.7953 9.0487 17.1089 9.22468 17.5024L9.54145 18.216C9.71744 18.6127 10.0374 18.9263 10.4342 19.0927L11.1541 19.3966C11.5509 19.5662 11.8708 19.8798 12.0468 20.2733L12.3636 20.9869C12.5396 21.3836 12.8595 21.6972 13.2563 21.8636L13.9762 22.174C14.373 22.3435 14.6929 22.6571 14.8689 23.0507L15.1857 23.7642C15.3617 24.161 15.6816 24.4745 16.0784 24.6409L16.7983 24.9449C17.1951 25.1145 17.5151 25.428 17.691 25.8216L17.8094 26.0872C18.0942 26.7271 17.9598 27.4758 17.4671 27.975L16.3216 29.1397C15.6624 29.8116 14.5809 29.8212 13.909 29.1621L2.23338 17.6944C1.56145 17.0353 1.55185 15.9538 2.21098 15.2818L3.35647 14.1172C3.84922 13.6148 4.59475 13.4676 5.24108 13.7396Z" fill="url(#paint31_linear_1142_1574)"/>
<path d="M4.11164 14.4627L4.39001 14.5458C4.80277 14.6706 5.15473 14.949 5.37231 15.3202L5.76587 15.9953C5.98345 16.3697 6.33541 16.6448 6.74817 16.7696L7.4969 16.9936C7.90966 17.1184 8.26162 17.3968 8.4792 17.7679L8.87276 18.4431C9.09034 18.8174 9.44231 19.0926 9.85506 19.2174L10.6038 19.4414C11.0165 19.5661 11.3685 19.8445 11.5861 20.2157L11.9797 20.8908C12.1972 21.2652 12.5492 21.5403 12.962 21.6651L13.7107 21.8891C14.1234 22.0139 14.4754 22.2923 14.693 22.6634L15.0865 23.3386C15.3041 23.7129 15.6561 23.9881 16.0688 24.1129L16.8176 24.3369C17.2303 24.4617 17.5823 24.74 17.7999 25.1112L17.9471 25.364C18.299 25.9687 18.2478 26.7302 17.8127 27.2806L16.8016 28.5636C16.2192 29.3028 15.1441 29.4308 14.405 28.8484L1.55189 18.7182C0.812767 18.1359 0.684779 17.0608 1.26712 16.3217L2.27822 15.0386C2.71338 14.4882 3.4397 14.2611 4.11164 14.4627Z" fill="url(#paint32_linear_1142_1574)"/>
<path d="M2.67498 16.6065L2.96295 16.6481C3.39171 16.7121 3.77887 16.9361 4.04765 17.2721L4.534 17.8832C4.80277 18.2224 5.18993 18.4463 5.61869 18.5071L6.39301 18.6223C6.82177 18.6863 7.20893 18.9103 7.4777 19.2463L7.96405 19.8574C8.23283 20.1966 8.61999 20.4205 9.04874 20.4813L9.81987 20.5965C10.2486 20.6605 10.6358 20.8845 10.9046 21.2205L11.3909 21.8316C11.6597 22.1708 12.0468 22.3947 12.4756 22.4555L13.2467 22.5707C13.6755 22.6347 14.0626 22.8587 14.3314 23.1947L14.8178 23.8058C15.0865 24.145 15.4737 24.3689 15.9025 24.4297L16.6736 24.5449C17.1023 24.6089 17.4895 24.8329 17.7583 25.1689L17.9407 25.396C18.3758 25.9432 18.4334 26.7047 18.0846 27.3095L17.2687 28.7237C16.7984 29.5396 15.7553 29.8212 14.9394 29.3508L0.761573 21.1885C-0.0543453 20.7181 -0.335916 19.675 0.134437 18.8591L0.950355 17.4448C1.29912 16.8337 1.98385 16.5009 2.67498 16.6065Z" fill="url(#paint33_linear_1142_1574)"/>
<path d="M3.2605 15.4898L3.53887 15.5729C3.95163 15.6977 4.3036 15.9761 4.52118 16.3473L4.91474 17.0224C5.13231 17.3968 5.48428 17.6719 5.89704 17.7967L6.64576 18.0207C7.05852 18.1455 7.41049 18.4239 7.62807 18.795L8.02163 19.4702C8.23921 19.8445 8.59117 20.1197 9.00393 20.2445L9.75265 20.4685C10.1654 20.5932 10.5174 20.8716 10.735 21.2428L11.1285 21.9179C11.3461 22.2923 11.6981 22.5674 12.1108 22.6922L12.8595 22.9162C13.2723 23.041 13.6243 23.3194 13.8418 23.6905L14.2354 24.3657C14.453 24.74 14.8049 25.0152 15.2177 25.14L15.9664 25.364C16.3792 25.4888 16.7312 25.7671 16.9487 26.1383L17.0959 26.3911C17.4479 26.9958 17.3967 27.7573 16.9615 28.3077L15.9504 29.5907C15.3681 30.3299 14.293 30.4579 13.5539 29.8755L0.700757 19.7453C-0.0383695 19.163 -0.166356 18.0879 0.415986 17.3488L1.42708 16.0657C1.86224 15.5153 2.58857 15.2882 3.2605 15.4898Z" fill="url(#paint34_linear_1142_1574)"/>
<path d="M4.38041 14.9618L4.63959 15.0962C5.02355 15.2978 5.31472 15.637 5.45871 16.0433L5.71788 16.7792C5.86187 17.1888 6.15304 17.5248 6.537 17.7264L7.22813 18.0879C7.61209 18.2895 7.90326 18.6287 8.04725 19.035L8.30642 19.771C8.45041 20.1805 8.74158 20.5165 9.12554 20.7181L9.81667 21.0796C10.2006 21.2812 10.4918 21.6204 10.6358 22.0267L10.895 22.7627C11.039 23.1722 11.3301 23.5082 11.7141 23.7098L12.4052 24.0713C12.7892 24.2729 13.0803 24.6121 13.2243 25.0184L13.4835 25.7544C13.6275 26.1639 13.9187 26.4999 14.3026 26.7015L14.9938 27.063C15.3777 27.2646 15.6689 27.6038 15.8129 28.0101L15.9089 28.2853C16.1392 28.9476 15.9441 29.6836 15.4161 30.1411L14.181 31.2098C13.4675 31.8273 12.3892 31.7474 11.7749 31.0338L1.06555 18.6511C0.448009 17.9375 0.528001 16.8592 1.24153 16.2449L2.47661 15.1762C3.00135 14.7251 3.75968 14.6355 4.38041 14.9618Z" fill="url(#paint35_linear_1142_1574)"/>
<path d="M2.53736 16.5169L2.81573 16.6001C3.22849 16.7249 3.58045 17.0033 3.79803 17.3744L4.19159 18.0496C4.40917 18.4239 4.76114 18.6991 5.17389 18.8239L5.92262 19.0479C6.33538 19.1726 6.68734 19.451 6.90492 19.8222L7.29848 20.4973C7.51606 20.8717 7.86802 21.1468 8.28078 21.2716L9.02951 21.4956C9.44227 21.6204 9.79423 21.8988 10.0118 22.2699L10.4054 22.9451C10.623 23.3194 10.9749 23.5946 11.3877 23.7194L12.1364 23.9434C12.5492 24.0682 12.9011 24.3465 13.1187 24.7177L13.5123 25.3928C13.7298 25.7672 14.0818 26.0424 14.4946 26.1671L15.2433 26.3911C15.656 26.5159 16.008 26.7943 16.2256 27.1654L16.3728 27.4182C16.7247 28.023 16.6735 28.7845 16.2384 29.3348L15.2273 30.6179C14.6449 31.357 13.5699 31.485 12.8307 30.9027L-0.0223872 20.7725C-0.761513 20.1901 -0.8895 19.1151 -0.307159 18.3759L0.703941 17.0929C1.1391 16.5457 1.86542 16.3153 2.53736 16.5169Z" fill="url(#paint36_linear_1142_1574)"/>
<path d="M3.78846 16.1649L4.04764 16.2993C4.4316 16.5009 4.72277 16.8401 4.86676 17.2464L5.12273 17.9824C5.26672 18.3919 5.55789 18.7311 5.94185 18.9295L6.63298 19.291C7.01694 19.4926 7.30811 19.8318 7.4521 20.2381L7.70807 20.9741C7.85206 21.3836 8.14323 21.7228 8.52719 21.9212L9.21832 22.2827C9.60228 22.4843 9.89346 22.8235 10.0374 23.2298L10.2934 23.9658C10.4374 24.3753 10.7286 24.7145 11.1125 24.9129L11.8037 25.2744C12.1876 25.476 12.4788 25.8152 12.6228 26.2215L12.8788 26.9575C13.0227 27.367 13.3139 27.7062 13.6979 27.9046L14.389 28.2661C14.773 28.4677 15.0641 28.8069 15.2081 29.2132L15.3041 29.4884C15.5345 30.1507 15.3393 30.8867 14.8082 31.3442L13.5699 32.4097C12.8564 33.0241 11.7781 32.9441 11.1637 32.2305L0.463998 19.8574C-0.15034 19.1438 -0.0703491 18.0656 0.643179 17.4512L1.88146 16.3825C2.4094 15.925 3.16773 15.8386 3.78846 16.1649Z" fill="url(#paint37_linear_1142_1574)"/>
<path d="M1.68628 17.544L1.96465 17.6272C2.37741 17.7519 2.72938 18.0303 2.94696 18.4015L3.34052 19.0766C3.5581 19.451 3.91006 19.7262 4.32282 19.8509L5.07155 20.0749C5.4843 20.1997 5.83627 20.4781 6.05385 20.8492L6.44741 21.5244C6.66499 21.8987 7.01695 22.1739 7.42971 22.2987L8.17843 22.5227C8.59119 22.6475 8.94316 22.9258 9.16074 23.297L9.5543 23.9721C9.77188 24.3465 10.1238 24.6217 10.5366 24.7464L11.2853 24.9704C11.6981 25.0952 12.05 25.3736 12.2676 25.7447L12.6612 26.4199C12.8788 26.7942 13.2307 27.0694 13.6435 27.1942L14.3922 27.4182C14.805 27.543 15.1569 27.8213 15.3745 28.1925L15.5217 28.4453C15.8737 29.05 15.8225 29.8115 15.3873 30.3619L14.3762 31.645C13.7939 32.3841 12.7188 32.5121 11.9797 31.9297L-0.873461 21.8027C-1.61259 21.2204 -1.74057 20.1453 -1.15823 19.4062L-0.147135 18.1231C0.288022 17.5728 1.01435 17.3424 1.68628 17.544Z" fill="url(#paint38_linear_1142_1574)"/>
<path d="M0.102422 19.5564L0.380792 19.6396C0.793551 19.7644 1.14552 20.0428 1.36309 20.4139L1.75665 21.0891C1.97423 21.4634 2.3262 21.7386 2.73896 21.8634L3.48768 22.0874C3.90044 22.2122 4.25241 22.4905 4.46999 22.8617L4.86355 23.5368C5.08112 23.9112 5.43309 24.1864 5.84585 24.3111L6.59457 24.5351C7.00733 24.6599 7.3593 24.9383 7.57687 25.3094L7.97044 25.9846C8.18801 26.3589 8.53998 26.6341 8.95274 26.7589L9.70146 26.9829C10.1142 27.1077 10.4662 27.386 10.6838 27.7572L11.0773 28.4323C11.2949 28.8067 11.6469 29.0819 12.0596 29.2067L12.8084 29.4306C13.2211 29.5554 13.5731 29.8338 13.7907 30.205L13.9378 30.4577C14.2898 31.0625 14.2386 31.824 13.8035 32.3743L12.7924 33.6574C12.21 34.3965 11.1349 34.5245 10.3958 33.9422L-2.45732 23.8152C-3.19645 23.2329 -3.32444 22.1578 -2.7421 21.4186L-1.731 20.1356C-1.29584 19.5852 -0.569511 19.3548 0.102422 19.5564Z" fill="url(#paint39_linear_1142_1574)"/>
<path d="M-0.691097 20.542L-0.412726 20.6252C3.31402e-05 20.75 0.351998 21.0284 0.569577 21.3995L0.963137 22.0747C1.18072 22.449 1.53268 22.7242 1.94544 22.849L2.69417 23.073C3.10692 23.1977 3.45889 23.4761 3.67647 23.8473L4.07003 24.5224C4.28761 24.8968 4.63957 25.172 5.05233 25.2967L5.80105 25.5207C6.21381 25.6455 6.56578 25.9239 6.78336 26.295L7.17692 26.9702C7.3945 27.3445 7.74646 27.6197 8.15922 27.7445L8.90794 27.9685C9.3207 28.0933 9.67267 28.3716 9.89025 28.7428L10.2838 29.4179C10.5014 29.7923 10.8533 30.0675 11.2661 30.1923L12.0148 30.4162C12.4276 30.541 12.7796 30.8194 12.9971 31.1906L13.1443 31.4433C13.4963 32.0481 13.4451 32.8096 13.0099 33.3599L11.9988 34.643C11.4165 35.3821 10.3414 35.5101 9.60227 34.9278L-3.25084 24.8008C-3.98997 24.2184 -4.11796 23.1434 -3.53561 22.4042L-2.52451 21.1212C-2.08936 20.5708 -1.36303 20.3404 -0.691097 20.542Z" fill="url(#paint40_linear_1142_1574)"/>
<path d="M-1.48462 21.5276L-1.20624 21.6108C-0.793484 21.7356 -0.441519 22.014 -0.22394 22.3851L0.16962 23.0603C0.387198 23.4346 0.739163 23.7098 1.15192 23.8346L1.90065 24.0586C2.31341 24.1833 2.66537 24.4617 2.88295 24.8329L3.27651 25.508C3.49409 25.8824 3.84605 26.1575 4.25881 26.2823L5.00754 26.5063C5.4203 26.6311 5.77226 26.9095 5.98984 27.2806L6.3834 27.9558C6.60098 28.3301 6.95294 28.6053 7.3657 28.7301L8.11443 28.9541C8.52718 29.0789 8.87915 29.3572 9.09673 29.7284L9.49029 30.4035C9.70787 30.7779 10.0598 31.0531 10.4726 31.1778L11.2213 31.4018C11.6341 31.5266 11.986 31.805 12.2036 32.1761L12.3508 32.4289C12.7028 33.0337 12.6516 33.7952 12.2164 34.3455L11.2053 35.6286C10.623 36.3677 9.54788 36.4957 8.80876 35.9134L-4.04436 25.7864C-4.78349 25.204 -4.91147 24.129 -4.32913 23.3898L-3.31803 22.1068C-2.88288 21.5564 -2.15655 21.326 -1.48462 21.5276Z" fill="url(#paint41_linear_1142_1574)"/>
<path d="M-2.28137 22.513L-2.003 22.5962C-1.59024 22.721 -1.23827 22.9994 -1.02069 23.3705L-0.627133 24.0457C-0.409555 24.42 -0.0575905 24.6952 0.355168 24.82L1.10389 25.044C1.51665 25.1687 1.86862 25.4471 2.0862 25.8183L2.47976 26.4934C2.69734 26.8678 3.0493 27.1429 3.46206 27.2677L4.21078 27.4917C4.62354 27.6165 4.97551 27.8949 5.19309 28.266L5.58665 28.9412C5.80422 29.3155 6.15619 29.5907 6.56895 29.7155L7.31767 29.9395C7.73043 30.0643 8.0824 30.3426 8.29997 30.7138L8.69354 31.3889C8.91111 31.7633 9.26308 32.0385 9.67584 32.1632L10.4246 32.3872C10.8373 32.512 11.1893 32.7904 11.4069 33.1615L11.554 33.4143C11.906 34.0191 11.8548 34.7806 11.4197 35.3309L10.4086 36.614C9.82622 37.3531 8.75113 37.4811 8.012 36.8988L-4.84111 26.7686C-5.58024 26.1862 -5.70823 25.1111 -5.12588 24.372L-4.11478 23.0889C-3.67643 22.5418 -2.9533 22.3114 -2.28137 22.513Z" fill="url(#paint42_linear_1142_1574)"/>
<path d="M-3.07489 23.4986L-2.79651 23.5818C-2.38376 23.7066 -2.03179 23.985 -1.81421 24.3561L-1.42065 25.0312C-1.20307 25.4056 -0.851109 25.6808 -0.43835 25.8056L0.310376 26.0295C0.723135 26.1543 1.0751 26.4327 1.29268 26.8039L1.68624 27.479C1.90382 27.8534 2.25578 28.1285 2.66854 28.2533L3.41726 28.4773C3.83002 28.6021 4.18199 28.8805 4.39957 29.2516L4.79313 29.9268C5.01071 30.3011 5.36267 30.5763 5.77543 30.7011L6.52415 30.9251C6.93691 31.0498 7.28888 31.3282 7.50646 31.6994L7.90002 32.3745C8.11759 32.7489 8.46956 33.024 8.88232 33.1488L9.63105 33.3728C10.0438 33.4976 10.3958 33.776 10.6133 34.1471L10.7605 34.3999C11.1125 35.0047 11.0613 35.7662 10.6261 36.3165L9.61505 37.5996C9.03271 38.3387 7.95761 38.4667 7.21848 37.8844L-5.63463 27.7542C-6.37376 27.1718 -6.50174 26.0967 -5.9194 25.3576L-4.9083 24.0745C-4.47315 23.5274 -3.74682 23.297 -3.07489 23.4986Z" fill="url(#paint43_linear_1142_1574)"/>
<path d="M-3.8684 24.4841L-3.59003 24.5673C-3.17727 24.6921 -2.82531 24.9705 -2.60773 25.3416L-2.21417 26.0168C-1.99659 26.3911 -1.64463 26.6663 -1.23187 26.7911L-0.483142 27.0151C-0.0703831 27.1399 0.281581 27.4182 0.499159 27.7894L0.89272 28.4645C1.1103 28.8389 1.46226 29.1141 1.87502 29.2389L2.62375 29.4628C3.03651 29.5876 3.38847 29.866 3.60605 30.2372L3.99961 30.9123C4.21719 31.2867 4.56915 31.5618 4.98191 31.6866L5.73064 31.9106C6.1434 32.0354 6.49536 32.3138 6.71294 32.6849L7.1065 33.36C7.32408 33.7344 7.67604 34.0096 8.0888 34.1344L8.83753 34.3583C9.25029 34.4831 9.60225 34.7615 9.81983 35.1327L9.96701 35.3854C10.319 35.9902 10.2678 36.7517 9.83263 37.3021L8.82153 38.5851C8.23919 39.3243 7.16409 39.4522 6.42497 38.8699L-6.42815 28.7397C-7.16728 28.1574 -7.29526 27.0823 -6.71292 26.3431L-5.70182 25.0601C-5.26666 24.5097 -4.54034 24.2826 -3.8684 24.4841Z" fill="url(#paint44_linear_1142_1574)"/>
<path d="M-4.6651 25.4695L-4.38672 25.5527C-3.97396 25.6775 -3.622 25.9558 -3.40442 26.327L-3.01086 27.0021C-2.79328 27.3765 -2.44132 27.6517 -2.02856 27.7765L-1.27983 28.0004C-0.867075 28.1252 -0.51511 28.4036 -0.297533 28.7748L0.0960288 29.4499C0.313607 29.8243 0.665572 30.0994 1.07833 30.2242L1.82705 30.4482C2.23981 30.573 2.59178 30.8514 2.80936 31.2225L3.20292 31.8976C3.4205 32.272 3.77246 32.5472 4.18522 32.672L4.93395 32.8959C5.3467 33.0207 5.69867 33.2991 5.91625 33.6703L6.30981 34.3454C6.52739 34.7198 6.87935 34.9949 7.29211 35.1197L8.04084 35.3437C8.45359 35.4685 8.80556 35.7469 9.02314 36.118L9.17032 36.3708C9.52229 36.9755 9.47109 37.7371 9.03593 38.2874L8.02484 39.5705C7.4425 40.3096 6.3674 40.4376 5.62827 39.8552L-7.22484 29.7251C-7.96397 29.1427 -8.09195 28.0676 -7.50961 27.3285L-6.49851 26.0454C-6.06016 25.4951 -5.33383 25.2679 -4.6651 25.4695Z" fill="url(#paint45_linear_1142_1574)"/>
</g>
<defs>
<linearGradient id="paint0_linear_1142_1574" x1="8.81952" y1="15.9969" x2="25.1214" y2="15.9969" gradientUnits="userSpaceOnUse">
<stop stop-color="#3105B5"/>
<stop offset="0.173" stop-color="#3406B4"/>
<stop offset="0.3169" stop-color="#3F08B1"/>
<stop offset="0.4502" stop-color="#500BAD"/>
<stop offset="0.5772" stop-color="#6810A6"/>
<stop offset="0.6998" stop-color="#88169E"/>
<stop offset="0.8191" stop-color="#AE1D94"/>
<stop offset="0.9335" stop-color="#DB2688"/>
<stop offset="1" stop-color="#F92C80"/>
</linearGradient>
<linearGradient id="paint1_linear_1142_1574" x1="20.3679" y1="7.77273" x2="23.5329" y2="3.70473" gradientUnits="userSpaceOnUse">
<stop stop-color="#C40561"/>
<stop offset="0.222" stop-color="#C50861"/>
<stop offset="0.4003" stop-color="#CA1261"/>
<stop offset="0.5634" stop-color="#D12362"/>
<stop offset="0.7174" stop-color="#DC3B63"/>
<stop offset="0.8637" stop-color="#E95964"/>
<stop offset="1" stop-color="#F97D65"/>
</linearGradient>
<linearGradient id="paint2_linear_1142_1574" x1="19.6046" y1="8.72686" x2="22.7737" y2="4.66247" gradientUnits="userSpaceOnUse">
<stop stop-color="#313EC0"/>
<stop offset="0.2133" stop-color="#3343C4"/>
<stop offset="0.4627" stop-color="#3751D0"/>
<stop offset="0.73" stop-color="#3F69E4"/>
<stop offset="1" stop-color="#4A88FF"/>
</linearGradient>
<linearGradient id="paint3_linear_1142_1574" x1="18.8402" y1="9.68577" x2="22.014" y2="5.62499" gradientUnits="userSpaceOnUse">
<stop stop-color="#34B5FF"/>
<stop offset="0.3038" stop-color="#3383EA"/>
<stop offset="0.9952" stop-color="#3106B5"/>
<stop offset="1" stop-color="#3105B5"/>
</linearGradient>
<linearGradient id="paint4_linear_1142_1574" x1="20.3558" y1="14.6301" x2="23.2883" y2="3.68422" gradientUnits="userSpaceOnUse">
<stop stop-color="#34B5FF"/>
<stop offset="0.1887" stop-color="#3392F0"/>
<stop offset="0.749" stop-color="#322DC6"/>
<stop offset="1" stop-color="#3105B5"/>
</linearGradient>
<linearGradient id="paint5_linear_1142_1574" x1="17.2397" y1="14.6472" x2="20.5122" y2="4.57623" gradientUnits="userSpaceOnUse">
<stop offset="0.22" stop-color="#2449EC"/>
<stop offset="0.3392" stop-color="#254FED"/>
<stop offset="0.4984" stop-color="#2960F0"/>
<stop offset="0.6801" stop-color="#307CF4"/>
<stop offset="0.8772" stop-color="#39A2FA"/>
<stop offset="1" stop-color="#3FBEFF"/>
</linearGradient>
<linearGradient id="paint6_linear_1142_1574" x1="9.35174" y1="-0.0220223" x2="22.1209" y2="15.1955" gradientUnits="userSpaceOnUse">
<stop stop-color="#3105B5"/>
<stop offset="0.1574" stop-color="#3506B4"/>
<stop offset="0.3" stop-color="#4008B1"/>
<stop offset="0.437" stop-color="#520BAC"/>
<stop offset="0.5706" stop-color="#6C11A5"/>
<stop offset="0.7016" stop-color="#8E179C"/>
<stop offset="0.8308" stop-color="#B71F92"/>
<stop offset="0.956" stop-color="#E62885"/>
<stop offset="1" stop-color="#F92C80"/>
</linearGradient>
<linearGradient id="paint7_linear_1142_1574" x1="16.7097" y1="14.8915" x2="19.8999" y2="6.70844" gradientUnits="userSpaceOnUse">
<stop stop-color="#D80832"/>
<stop offset="0.1643" stop-color="#D80A36"/>
<stop offset="0.3328" stop-color="#D91042"/>
<stop offset="0.5033" stop-color="#DB1957"/>
<stop offset="0.6752" stop-color="#DD2774"/>
<stop offset="0.8465" stop-color="#DF3898"/>
<stop offset="1" stop-color="#E24AC0"/>
</linearGradient>
<linearGradient id="paint8_linear_1142_1574" x1="12.0487" y1="12.5453" x2="22.8964" y2="8.59742" gradientUnits="userSpaceOnUse">
<stop offset="0.25" stop-color="#2449EC"/>
<stop offset="0.7219" stop-color="#3591F8"/>
<stop offset="1" stop-color="#3FBEFF"/>
</linearGradient>
<linearGradient id="paint9_linear_1142_1574" x1="15.5111" y1="14.7287" x2="19.2351" y2="8.27839" gradientUnits="userSpaceOnUse">
<stop stop-color="#D80832"/>
<stop offset="0.241" stop-color="#D90B35"/>
<stop offset="0.4413" stop-color="#DE163F"/>
<stop offset="0.627" stop-color="#E52750"/>
<stop offset="0.8039" stop-color="#EF3F67"/>
<stop offset="0.9731" stop-color="#FD5E86"/>
<stop offset="1" stop-color="#FF648B"/>
</linearGradient>
<linearGradient id="paint10_linear_1142_1574" x1="8.34254" y1="11.6539" x2="19.6853" y2="7.52488" gradientUnits="userSpaceOnUse">
<stop stop-color="#2449EC"/>
<stop offset="0.3043" stop-color="#2D70F2"/>
<stop offset="0.7732" stop-color="#3AA8FB"/>
<stop offset="1" stop-color="#3FBEFF"/>
</linearGradient>
<linearGradient id="paint11_linear_1142_1574" x1="15.6573" y1="18.766" x2="17.8457" y2="6.35435" gradientUnits="userSpaceOnUse">
<stop stop-color="#D80832"/>
<stop offset="0.1723" stop-color="#DA0D35"/>
<stop offset="0.3769" stop-color="#DF1B3F"/>
<stop offset="0.5979" stop-color="#E8334F"/>
<stop offset="0.8288" stop-color="#F45465"/>
<stop offset="1" stop-color="#FF7279"/>
</linearGradient>
<linearGradient id="paint12_linear_1142_1574" x1="7.226" y1="12.0714" x2="19.5132" y2="8.77835" gradientUnits="userSpaceOnUse">
<stop stop-color="#3105B5"/>
<stop offset="0.1045" stop-color="#3806B3"/>
<stop offset="0.2544" stop-color="#4B0AAE"/>
<stop offset="0.4319" stop-color="#6A10A6"/>
<stop offset="0.6305" stop-color="#95199A"/>
<stop offset="0.8439" stop-color="#CC238C"/>
<stop offset="1" stop-color="#F92C80"/>
</linearGradient>
<linearGradient id="paint13_linear_1142_1574" x1="14.3084" y1="19.0833" x2="17.2534" y2="8.09225" gradientUnits="userSpaceOnUse">
<stop stop-color="#D80832"/>
<stop offset="0.1787" stop-color="#DA0D34"/>
<stop offset="0.3994" stop-color="#E01C3A"/>
<stop offset="0.6422" stop-color="#EA3644"/>
<stop offset="0.8992" stop-color="#F95853"/>
<stop offset="1" stop-color="#FF6859"/>
</linearGradient>
<linearGradient id="paint14_linear_1142_1574" x1="6.83181" y1="13.0533" x2="23.8865" y2="14.5459" gradientUnits="userSpaceOnUse">
<stop stop-color="#3105B5"/>
<stop offset="0.0627935" stop-color="#4008B1"/>
<stop offset="0.4028" stop-color="#8F179C"/>
<stop offset="0.6831" stop-color="#C8228D"/>
<stop offset="0.8896" stop-color="#EC2984"/>
<stop offset="1" stop-color="#F92C80"/>
</linearGradient>
<linearGradient id="paint15_linear_1142_1574" x1="13.3533" y1="19.6628" x2="16.6352" y2="9.56168" gradientUnits="userSpaceOnUse">
<stop stop-color="#D80832"/>
<stop offset="0.1707" stop-color="#DB0F35"/>
<stop offset="0.4128" stop-color="#E2213C"/>
<stop offset="0.6977" stop-color="#EF4049"/>
<stop offset="1" stop-color="#FF6859"/>
</linearGradient>
<linearGradient id="paint16_linear_1142_1574" x1="5.3742" y1="10.5215" x2="22.9077" y2="18.6968" gradientUnits="userSpaceOnUse">
<stop stop-color="#3105B5"/>
<stop offset="0.0380933" stop-color="#3D07B2"/>
<stop offset="0.2267" stop-color="#7612A3"/>
<stop offset="0.4096" stop-color="#A51C96"/>
<stop offset="0.5827" stop-color="#C9238D"/>
<stop offset="0.7435" stop-color="#E42886"/>
<stop offset="0.8874" stop-color="#F32B81"/>
<stop offset="1" stop-color="#F92C80"/>
</linearGradient>
<linearGradient id="paint17_linear_1142_1574" x1="6.64343" y1="9.23267" x2="21.8319" y2="21.9771" gradientUnits="userSpaceOnUse">
<stop stop-color="#D80832"/>
<stop offset="0.1809" stop-color="#E5273F"/>
<stop offset="0.3864" stop-color="#F0444A"/>
<stop offset="0.5924" stop-color="#F85852"/>
<stop offset="0.7973" stop-color="#FD6457"/>
<stop offset="1" stop-color="#FF6859"/>
</linearGradient>
<linearGradient id="paint18_linear_1142_1574" x1="15.8342" y1="21.2877" x2="18.584" y2="15.3903" gradientUnits="userSpaceOnUse">
<stop stop-color="#3105B5"/>
<stop offset="0.1026" stop-color="#3806B3"/>
<stop offset="0.2568" stop-color="#4D0AAE"/>
<stop offset="0.4436" stop-color="#6F11A5"/>
<stop offset="0.6558" stop-color="#9E1A98"/>
<stop offset="0.8864" stop-color="#D92688"/>
<stop offset="1" stop-color="#F92C80"/>
</linearGradient>
<linearGradient id="paint19_linear_1142_1574" x1="11.7049" y1="19.1172" x2="15.1841" y2="14.1483" gradientUnits="userSpaceOnUse">
<stop stop-color="#3105B5"/>
<stop offset="0.155" stop-color="#3228C4"/>
<stop offset="0.4465" stop-color="#3364DD"/>
<stop offset="0.6948" stop-color="#3390EF"/>
<stop offset="0.8871" stop-color="#34ABFB"/>
<stop offset="1" stop-color="#34B5FF"/>
</linearGradient>
<linearGradient id="paint20_linear_1142_1574" x1="7.05305" y1="18.7548" x2="18.5027" y2="14.5874" gradientUnits="userSpaceOnUse">
<stop stop-color="#D80832"/>
<stop offset="0.271" stop-color="#E11D46"/>
<stop offset="0.8272" stop-color="#F7527A"/>
<stop offset="1" stop-color="#FF648B"/>
</linearGradient>
<linearGradient id="paint21_linear_1142_1574" x1="11.7942" y1="20.8529" x2="14.1168" y2="14.4717" gradientUnits="userSpaceOnUse">
<stop stop-color="#3105B5"/>
<stop offset="0.1066" stop-color="#3706B3"/>
<stop offset="0.254" stop-color="#490AAF"/>
<stop offset="0.4252" stop-color="#670FA7"/>
<stop offset="0.6144" stop-color="#8F179C"/>
<stop offset="0.8157" stop-color="#C3218E"/>
<stop offset="1" stop-color="#F92C80"/>
</linearGradient>
<linearGradient id="paint22_linear_1142_1574" x1="10.7797" y1="21.6666" x2="14.4987" y2="13.6912" gradientUnits="userSpaceOnUse">
<stop stop-color="#3105B5"/>
<stop offset="0.155" stop-color="#3228C4"/>
<stop offset="0.4465" stop-color="#3364DD"/>
<stop offset="0.6948" stop-color="#3390EF"/>
<stop offset="0.8871" stop-color="#34ABFB"/>
<stop offset="1" stop-color="#34B5FF"/>
</linearGradient>
<linearGradient id="paint23_linear_1142_1574" x1="5.12428" y1="19.1069" x2="18.425" y2="16.2798" gradientUnits="userSpaceOnUse">
<stop stop-color="#D80832"/>
<stop offset="0.1321" stop-color="#D80B39"/>
<stop offset="0.3182" stop-color="#DA144B"/>
<stop offset="0.5363" stop-color="#DC2269"/>
<stop offset="0.7765" stop-color="#DF3593"/>
<stop offset="1" stop-color="#E24AC0"/>
</linearGradient>
<linearGradient id="paint24_linear_1142_1574" x1="10.9439" y1="23.0358" x2="13.114" y2="14.9378" gradientUnits="userSpaceOnUse">
<stop stop-color="#3105B5"/>
<stop offset="0.1509" stop-color="#3506B4"/>
<stop offset="0.2932" stop-color="#4008B1"/>
<stop offset="0.432" stop-color="#530CAC"/>
<stop offset="0.5686" stop-color="#6E11A5"/>
<stop offset="0.7038" stop-color="#90189C"/>
<stop offset="0.8378" stop-color="#BB2090"/>
<stop offset="0.9685" stop-color="#EC2983"/>
<stop offset="1" stop-color="#F92C80"/>
</linearGradient>
<linearGradient id="paint25_linear_1142_1574" x1="9.99211" y1="22.6941" x2="13.711" y2="14.7187" gradientUnits="userSpaceOnUse">
<stop stop-color="#3105B5"/>
<stop offset="0.0728146" stop-color="#311DBF"/>
<stop offset="0.2326" stop-color="#324BD2"/>
<stop offset="0.3928" stop-color="#3371E2"/>
<stop offset="0.551" stop-color="#338FEF"/>
<stop offset="0.7062" stop-color="#34A4F8"/>
<stop offset="0.8575" stop-color="#34B1FD"/>
<stop offset="1" stop-color="#34B5FF"/>
</linearGradient>
<linearGradient id="paint26_linear_1142_1574" x1="6.21654" y1="10.8953" x2="16.0429" y2="27.9173" gradientUnits="userSpaceOnUse">
<stop stop-color="#3105B5"/>
<stop offset="0.1422" stop-color="#650FA7"/>
<stop offset="0.2868" stop-color="#92189B"/>
<stop offset="0.4328" stop-color="#B71F92"/>
<stop offset="0.5777" stop-color="#D4258A"/>
<stop offset="0.7212" stop-color="#E82984"/>
<stop offset="0.8627" stop-color="#F52B81"/>
<stop offset="1" stop-color="#F92C80"/>
</linearGradient>
<linearGradient id="paint27_linear_1142_1574" x1="9.2045" y1="23.7217" x2="12.9234" y2="15.7463" gradientUnits="userSpaceOnUse">
<stop stop-color="#3105B5"/>
<stop offset="0.0705151" stop-color="#3115BC"/>
<stop offset="0.3998" stop-color="#3259D8"/>
<stop offset="0.6754" stop-color="#338BED"/>
<stop offset="0.8835" stop-color="#34A9FA"/>
<stop offset="1" stop-color="#34B5FF"/>
</linearGradient>
<linearGradient id="paint28_linear_1142_1574" x1="2.58374" y1="9.05625" x2="12.4572" y2="26.1565" gradientUnits="userSpaceOnUse">
<stop stop-color="#3105B5"/>
<stop offset="0.1294" stop-color="#3506B4"/>
<stop offset="0.2709" stop-color="#4308B0"/>
<stop offset="0.4181" stop-color="#580DAB"/>
<stop offset="0.5693" stop-color="#7713A2"/>
<stop offset="0.7235" stop-color="#9F1A98"/>
<stop offset="0.878" stop-color="#CE248B"/>
<stop offset="1" stop-color="#F92C80"/>
</linearGradient>
<linearGradient id="paint29_linear_1142_1574" x1="3.9639" y1="23.075" x2="16.5712" y2="18.4862" gradientUnits="userSpaceOnUse">
<stop stop-color="#3105B5"/>
<stop offset="0.0515839" stop-color="#310FB9"/>
<stop offset="0.5163" stop-color="#3368DF"/>
<stop offset="0.8428" stop-color="#349FF6"/>
<stop offset="1" stop-color="#34B5FF"/>
</linearGradient>
<linearGradient id="paint30_linear_1142_1574" x1="8.32993" y1="25.0922" x2="11.861" y2="17.5196" gradientUnits="userSpaceOnUse">
<stop stop-color="#D80832"/>
<stop offset="0.1505" stop-color="#D80A37"/>
<stop offset="0.3217" stop-color="#D91144"/>
<stop offset="0.5031" stop-color="#DB1B5B"/>
<stop offset="0.6916" stop-color="#DD2A7B"/>
<stop offset="0.8836" stop-color="#E03DA4"/>
<stop offset="1" stop-color="#E24AC0"/>
</linearGradient>
<linearGradient id="paint31_linear_1142_1574" x1="4.23264" y1="23.674" x2="15.4475" y2="19.5921" gradientUnits="userSpaceOnUse">
<stop stop-color="#3105B5"/>
<stop offset="0.2305" stop-color="#3229C4"/>
<stop offset="0.7397" stop-color="#3384EA"/>
<stop offset="1" stop-color="#34B5FF"/>
</linearGradient>
<linearGradient id="paint32_linear_1142_1574" x1="2.95021" y1="23.9506" x2="16.1377" y2="19.6656" gradientUnits="userSpaceOnUse">
<stop stop-color="#3105B5"/>
<stop offset="0.173" stop-color="#3406B4"/>
<stop offset="0.3169" stop-color="#3F08B1"/>
<stop offset="0.4502" stop-color="#500BAD"/>
<stop offset="0.5772" stop-color="#6810A6"/>
<stop offset="0.6998" stop-color="#88169E"/>
<stop offset="0.8191" stop-color="#AE1D94"/>
<stop offset="0.9335" stop-color="#DB2688"/>
<stop offset="1" stop-color="#F92C80"/>
</linearGradient>
<linearGradient id="paint33_linear_1142_1574" x1="7.7992" y1="25.5568" x2="10.4735" y2="20.5271" gradientUnits="userSpaceOnUse">
<stop stop-color="#3105B5"/>
<stop offset="0.231" stop-color="#3406B4"/>
<stop offset="0.3779" stop-color="#3C07B2"/>
<stop offset="0.5014" stop-color="#4B0AAE"/>
<stop offset="0.612" stop-color="#600EA9"/>
<stop offset="0.7138" stop-color="#7B13A1"/>
<stop offset="0.8094" stop-color="#9C1A99"/>
<stop offset="0.9" stop-color="#C3228E"/>
<stop offset="0.9845" stop-color="#F02A82"/>
<stop offset="1" stop-color="#F92C80"/>
</linearGradient>
<linearGradient id="paint34_linear_1142_1574" x1="6.97899" y1="25.2824" x2="10.4582" y2="20.3136" gradientUnits="userSpaceOnUse">
<stop stop-color="#3105B5"/>
<stop offset="0.1529" stop-color="#3109B7"/>
<stop offset="0.3039" stop-color="#3115BC"/>
<stop offset="0.4542" stop-color="#3229C4"/>
<stop offset="0.6042" stop-color="#3245D0"/>
<stop offset="0.754" stop-color="#3368DF"/>
<stop offset="0.9015" stop-color="#3394F1"/>
<stop offset="1" stop-color="#34B5FF"/>
</linearGradient>
<linearGradient id="paint35_linear_1142_1574" x1="3.39847" y1="14.612" x2="13.2978" y2="31.7584" gradientUnits="userSpaceOnUse">
<stop stop-color="#3105B5"/>
<stop offset="0.1414" stop-color="#3506B4"/>
<stop offset="0.2831" stop-color="#4108B1"/>
<stop offset="0.425" stop-color="#550CAB"/>
<stop offset="0.5671" stop-color="#7112A4"/>
<stop offset="0.7095" stop-color="#96199A"/>
<stop offset="0.852" stop-color="#C2218F"/>
<stop offset="0.9923" stop-color="#F62B81"/>
<stop offset="1" stop-color="#F92C80"/>
</linearGradient>
<linearGradient id="paint36_linear_1142_1574" x1="6.11786" y1="27.8319" x2="9.83679" y2="19.8565" gradientUnits="userSpaceOnUse">
<stop offset="0.0963742" stop-color="#3105B5"/>
<stop offset="0.2339" stop-color="#3109B7"/>
<stop offset="0.3704" stop-color="#3115BC"/>
<stop offset="0.5065" stop-color="#3229C4"/>
<stop offset="0.6424" stop-color="#3245D0"/>
<stop offset="0.7783" stop-color="#3369DF"/>
<stop offset="0.9122" stop-color="#3394F1"/>
<stop offset="1" stop-color="#34B5FF"/>
</linearGradient>
<linearGradient id="paint37_linear_1142_1574" x1="2.7946" y1="15.8229" x2="12.6958" y2="32.9717" gradientUnits="userSpaceOnUse">
<stop stop-color="#3105B5"/>
<stop offset="0.2214" stop-color="#3108B6"/>
<stop offset="0.3745" stop-color="#3111BA"/>
<stop offset="0.507" stop-color="#3120C0"/>
<stop offset="0.6278" stop-color="#3236CA"/>
<stop offset="0.7407" stop-color="#3252D5"/>
<stop offset="0.8476" stop-color="#3375E4"/>
<stop offset="0.948" stop-color="#349DF5"/>
<stop offset="1" stop-color="#34B5FF"/>
</linearGradient>
<linearGradient id="paint38_linear_1142_1574" x1="5.25405" y1="28.3943" x2="9.00655" y2="21.3367" gradientUnits="userSpaceOnUse">
<stop stop-color="#3105B5"/>
<stop offset="0.2824" stop-color="#3107B6"/>
<stop offset="0.4354" stop-color="#310FB9"/>
<stop offset="0.5575" stop-color="#311DBF"/>
<stop offset="0.6632" stop-color="#3230C7"/>
<stop offset="0.7583" stop-color="#3249D2"/>
<stop offset="0.8458" stop-color="#3368DF"/>
<stop offset="0.9259" stop-color="#338CEE"/>
<stop offset="1" stop-color="#34B5FF"/>
</linearGradient>
<linearGradient id="paint39_linear_1142_1574" x1="3.97241" y1="28.885" x2="7.16372" y2="24.8376" gradientUnits="userSpaceOnUse">
<stop stop-color="#2F3CCA"/>
<stop offset="0.4479" stop-color="#445AD6"/>
<stop offset="1" stop-color="#6285E6"/>
</linearGradient>
<linearGradient id="paint40_linear_1142_1574" x1="3.17789" y1="29.8705" x2="6.3692" y2="25.8231" gradientUnits="userSpaceOnUse">
<stop stop-color="#3639C5"/>
<stop offset="0.3372" stop-color="#454ECD"/>
<stop offset="1" stop-color="#6B82E0"/>
</linearGradient>
<linearGradient id="paint41_linear_1142_1574" x1="2.38337" y1="30.856" x2="5.57469" y2="26.8086" gradientUnits="userSpaceOnUse">
<stop stop-color="#3D35C0"/>
<stop offset="0.2776" stop-color="#4945C5"/>
<stop offset="0.8198" stop-color="#686FD4"/>
<stop offset="1" stop-color="#747FD9"/>
</linearGradient>
<linearGradient id="paint42_linear_1142_1574" x1="1.58882" y1="31.8413" x2="4.78013" y2="27.7939" gradientUnits="userSpaceOnUse">
<stop stop-color="#4432BB"/>
<stop offset="0.2455" stop-color="#4E3FBF"/>
<stop offset="0.6998" stop-color="#6962CA"/>
<stop offset="1" stop-color="#7D7CD2"/>
</linearGradient>
<linearGradient id="paint43_linear_1142_1574" x1="0.7943" y1="32.8268" x2="3.98561" y2="28.7794" gradientUnits="userSpaceOnUse">
<stop stop-color="#4B2FB6"/>
<stop offset="0.226" stop-color="#543AB9"/>
<stop offset="0.6218" stop-color="#6B57C1"/>
<stop offset="1" stop-color="#8579CB"/>
</linearGradient>
<linearGradient id="paint44_linear_1142_1574" x1="-0.000217919" y1="33.8122" x2="3.1911" y2="29.7648" gradientUnits="userSpaceOnUse">
<stop stop-color="#522CB1"/>
<stop offset="0.214" stop-color="#5A35B4"/>
<stop offset="0.5701" stop-color="#6E4FBA"/>
<stop offset="1" stop-color="#8E76C5"/>
</linearGradient>
<linearGradient id="paint45_linear_1142_1574" x1="-0.794714" y1="34.7975" x2="2.3966" y2="30.7501" gradientUnits="userSpaceOnUse">
<stop stop-color="#5928AC"/>
<stop offset="0.205" stop-color="#6030AE"/>
<stop offset="0.5277" stop-color="#7247B3"/>
<stop offset="0.9258" stop-color="#916BBC"/>
<stop offset="1" stop-color="#9773BE"/>
</linearGradient>
</defs>
</svg>
