<svg width="32" height="32" viewBox="0 0 32 32" fill="none" xmlns="http://www.w3.org/2000/svg">
<path fill-rule="evenodd" clip-rule="evenodd" d="M1.87195 5.36808C1 7.07937 1 9.31958 1 13.8V18.2C1 22.6804 1 24.9206 1.87195 26.6319C2.63893 28.1372 3.86278 29.3611 5.36808 30.1281C7.07937 31 9.31958 31 13.8 31H18.2C22.6804 31 24.9206 31 26.6319 30.1281C28.1372 29.3611 29.3611 28.1372 30.1281 26.6319C31 24.9206 31 22.6804 31 18.2V13.8C31 9.31958 31 7.07937 30.1281 5.36808C29.3611 3.86278 28.1372 2.63893 26.6319 1.87195C24.9206 1 22.6804 1 18.2 1H13.8C9.31958 1 7.07937 1 5.36808 1.87195C3.86278 2.63893 2.63893 3.86278 1.87195 5.36808ZM5.01249 18.301L5.18124 17.101C5.18124 16.9322 5.34999 16.9322 5.34999 17.101L5.51874 18.301L5.34999 19.501C5.34999 19.6135 5.18124 19.6135 5.18124 19.501L5.01249 18.301ZM6.00624 16.3322C6.00624 16.1635 6.17499 16.1635 6.17499 16.3322L6.39999 18.301L6.17499 20.2322C6.17499 20.401 5.94999 20.401 5.94999 20.2322L5.72499 18.301L6.00624 16.3322ZM9.24999 18.301L9.39999 14.6822C9.39999 14.401 9.73749 14.401 9.75624 14.6822L9.98125 18.301L9.75624 20.4947C9.75624 20.926 9.36249 20.926 9.36249 20.4947L9.24999 18.301ZM7.48749 18.3197L7.71249 15.901C7.71249 15.7322 7.91874 15.7322 7.93749 15.901L8.16249 18.3197L7.93749 20.5135C7.93749 20.851 7.65624 20.851 7.65624 20.5135L7.48749 18.3197ZM11.725 18.3197L11.5562 20.5135C11.5562 20.9447 11.1062 20.9447 11.1062 20.5135L10.9937 18.3197L11.1625 13.4822C11.1625 13.1447 11.5562 13.1447 11.5562 13.4822L11.725 18.3197ZM15.4 18.3197L15.2875 20.5135C15.2875 20.9447 14.7437 20.9447 14.7437 20.5135L14.6312 18.3197L14.7437 12.7135C14.7437 12.3197 15.2875 12.3197 15.2875 12.7135L15.4 18.3197ZM13.5812 18.3197L13.4125 20.5135C13.4125 20.9447 12.925 20.9447 12.925 20.4947L12.8125 18.301L12.925 13.426C12.925 13.0885 13.4125 13.0885 13.4125 13.426L13.5812 18.3197ZM9.02499 18.3197L8.85625 20.5135C8.85625 20.8885 8.53749 20.8885 8.51874 20.5135L8.34999 18.3197L8.51874 16.0697C8.51874 15.901 8.85625 15.901 8.85625 16.0697L9.02499 18.3197ZM7.26249 18.3197L7.03749 20.5135C7.03749 20.7197 6.83124 20.7197 6.81249 20.5135L6.58749 18.3197L6.81249 15.9572C6.81249 15.7885 7.03749 15.7885 7.03749 15.9572L7.26249 18.3197ZM13.75 18.301L13.8625 13.6322C13.8625 13.2572 14.35 13.2572 14.35 13.6322L14.4625 18.301L14.35 20.4947C14.35 20.926 13.8062 20.926 13.8062 20.4947L13.75 18.301ZM10.8437 18.3197L10.675 20.5135C10.675 20.9447 10.225 20.9447 10.225 20.5135L10.1125 18.3197L10.2812 13.876C10.2812 13.5385 10.675 13.5385 10.675 13.876L10.8437 18.3197ZM12.6437 18.3197L12.475 20.5135C12.475 20.9447 12.0437 20.9447 12.0437 20.4947L11.875 18.301L12.0437 13.3135C12.0437 12.976 12.475 12.976 12.475 13.3135L12.6437 18.3197ZM16.7687 11.6072C19.7312 10.4635 22.975 12.4885 23.2562 15.6197C25.0562 15.0197 26.9875 16.1072 26.9875 18.151C26.9875 19.651 25.7687 20.851 24.2875 20.851H16.7687C16.6 20.851 16.4875 20.6822 16.4875 20.5135V11.9447C16.4875 11.776 16.5437 11.7197 16.7687 11.6072ZM15.4937 18.301L15.6625 12.2072C15.6625 11.8322 16.225 11.8322 16.225 12.2072L16.375 18.301L16.2062 20.4947C16.2062 20.926 15.6625 20.926 15.6625 20.4947L15.4937 18.301Z" fill="#FF5500"/>
</svg>
