<svg width="32" height="32" viewBox="0 0 32 32" fill="none" xmlns="http://www.w3.org/2000/svg">
<rect x="2" y="2" width="28" height="28" rx="14" fill="white"/>
<path fill-rule="evenodd" clip-rule="evenodd" d="M16 0C7.16344 0 0 7.16344 0 16C0 24.8366 7.16344 32 16 32C24.8366 32 32 24.8366 32 16C32 7.16344 24.8366 0 16 0ZM21.5744 22.9291C22.0139 23.1989 22.5908 23.059 22.858 22.6195C23.1277 22.1775 22.9879 21.6031 22.5483 21.3334C18.5976 18.921 13.7029 18.3591 7.99409 19.6627C7.49213 19.7776 7.17747 20.2795 7.29235 20.7815C7.40723 21.2859 7.90918 21.6006 8.41114 21.4857C13.628 20.2945 18.0557 20.7815 21.5744 22.9291ZM24.691 18.5389C24.3539 19.0884 23.6347 19.2632 23.0853 18.9235C19.0571 16.4487 12.9163 15.732 8.15391 17.1779C7.53708 17.3652 6.88278 17.0156 6.69549 16.3988C6.50819 15.7819 6.85781 15.1301 7.47464 14.9428C12.9163 13.2921 19.6814 14.0913 24.3064 16.9332C24.8558 17.2703 25.0282 17.9895 24.691 18.5389ZM7.44226 12.5577C12.0523 11.1592 20.0187 11.4215 24.8484 14.2909C25.5127 14.6854 26.3743 14.4657 26.7689 13.8014C27.1659 13.1371 26.9462 12.2755 26.2794 11.881C20.7204 8.57953 11.9199 8.26987 6.62815 9.87563C5.88645 10.1004 5.4694 10.882 5.69416 11.6237C5.91891 12.3654 6.70306 12.7825 7.44226 12.5577Z" fill="#1ED760"/>
</svg>
