<svg width="32" height="32" viewBox="0 0 32 32" fill="none" xmlns="http://www.w3.org/2000/svg">
<g clip-path="url(#clip0_1263_1778)">
<path fill-rule="evenodd" clip-rule="evenodd" d="M31 10.3842C31 10.0258 31 9.6675 30.9983 9.30917C30.9967 9.0075 30.9933 8.70583 30.985 8.40417C30.9675 7.74667 30.9283 7.08417 30.8117 6.43417C30.6933 5.77417 30.4992 5.16 30.1942 4.56C29.8942 3.97083 29.5025 3.4325 29.035 2.965C28.5675 2.4975 28.0283 2.10583 27.4392 1.80583C26.84 1.50083 26.2258 1.3075 25.5667 1.18833C24.9167 1.07167 24.2533 1.0325 23.5958 1.015C23.2942 1.00667 22.9925 1.00333 22.6908 1.00167C22.3325 1 21.9742 1 21.6158 1H10.3842C10.0258 1 9.6675 1 9.30917 1.00167C9.0075 1.00333 8.70583 1.00667 8.40417 1.015C7.74667 1.03333 7.08333 1.07167 6.43333 1.18917C5.77333 1.3075 5.16 1.50167 4.56083 1.80667C3.97167 2.10667 3.4325 2.49833 2.965 2.96583C2.4975 3.43333 2.10583 3.97167 1.80583 4.56083C1.50083 5.16083 1.30667 5.775 1.18833 6.435C1.07167 7.085 1.0325 7.74833 1.015 8.405C1.00667 8.70667 1.00333 9.00833 1.00167 9.31C1 9.6675 1 10.0258 1 10.3842V21.6158C1 21.9742 1 22.3325 1.00167 22.6908C1.00333 22.9925 1.00667 23.2942 1.015 23.5958C1.0325 24.2533 1.07167 24.9158 1.18833 25.5658C1.30667 26.2258 1.50083 26.84 1.80583 27.44C2.10583 28.0292 2.4975 28.5675 2.965 29.035C3.4325 29.5025 3.97167 29.8942 4.56083 30.1942C5.16 30.4992 5.77417 30.6925 6.43333 30.8117C7.08333 30.9283 7.74667 30.9675 8.40417 30.985C8.70583 30.9933 9.0075 30.9967 9.30917 30.9983C9.6675 31.0008 10.0258 31 10.3842 31H21.615C21.9733 31 22.3317 31 22.69 30.9983C22.9917 30.9967 23.2933 30.9933 23.595 30.985C24.2525 30.9675 24.9158 30.9283 25.5658 30.8117C26.2258 30.6933 26.8392 30.4992 27.4383 30.1942C28.0275 29.8942 28.5667 29.5025 29.0342 29.035C29.5017 28.5675 29.8933 28.0292 30.1933 27.44C30.4983 26.84 30.6925 26.2258 30.8108 25.5658C30.9275 24.9158 30.9667 24.2525 30.9842 23.5958C30.9925 23.2942 30.9958 22.9925 30.9975 22.6908C31 22.3325 30.9992 21.9742 30.9992 21.6158V10.3842H31Z" fill="url(#paint0_linear_1263_1778)"/>
<path fill-rule="evenodd" clip-rule="evenodd" d="M22.2083 5.58326C22.1358 5.58992 21.4917 5.70409 21.4142 5.71992L12.4975 7.51909H12.4942C12.2617 7.56909 12.0792 7.65159 11.9383 7.76992C11.7683 7.91242 11.6742 8.11409 11.6383 8.34909C11.6308 8.39909 11.6183 8.50076 11.6183 8.65076V19.8108C11.6183 20.0716 11.5975 20.3249 11.4208 20.5408C11.2442 20.7566 11.0258 20.8216 10.77 20.8733C10.5758 20.9124 10.3817 20.9516 10.1875 20.9908C9.45082 21.1391 8.97165 21.2399 8.53749 21.4083C8.12249 21.5691 7.81165 21.7741 7.56415 22.0341C7.07332 22.5483 6.87415 23.2458 6.94249 23.8991C7.00082 24.4566 7.25165 24.9899 7.68249 25.3841C7.97332 25.6508 8.33665 25.8533 8.76499 25.9391C9.20915 26.0283 9.68249 25.9974 10.3742 25.8574C10.7425 25.7833 11.0875 25.6674 11.4158 25.4733C11.7408 25.2816 12.0192 25.0258 12.2367 24.7141C12.455 24.4016 12.5958 24.0541 12.6733 23.6849C12.7533 23.3041 12.7725 22.9599 12.7725 22.5799V12.9008C12.7725 12.3824 12.9192 12.2458 13.3375 12.1441C13.3375 12.1441 20.7492 10.6491 21.095 10.5816C21.5775 10.4891 21.805 10.6266 21.805 11.1324V17.7399C21.805 18.0016 21.8025 18.2666 21.6242 18.4833C21.4475 18.6991 21.2292 18.7641 20.9733 18.8158L20.3908 18.9333C19.6542 19.0816 19.175 19.1824 18.7408 19.3508C18.3258 19.5116 18.015 19.7166 17.7675 19.9766C17.2767 20.4908 17.06 21.1883 17.1283 21.8416C17.1867 22.3991 17.455 22.9324 17.8858 23.3266C18.1767 23.5933 18.54 23.7899 18.9683 23.8766C19.4125 23.9658 19.8858 23.9341 20.5775 23.7949C20.9458 23.7208 21.2908 23.6099 21.6192 23.4158C21.9442 23.2241 22.2225 22.9683 22.44 22.6566C22.6583 22.3441 22.7992 21.9966 22.8767 21.6274C22.9567 21.2466 22.96 20.9024 22.96 20.5224V6.37159C22.9617 5.85826 22.6908 5.54159 22.2083 5.58326Z" fill="white"/>
</g>
<defs>
<linearGradient id="paint0_linear_1263_1778" x1="16" y1="30.8842" x2="16" y2="1.64667" gradientUnits="userSpaceOnUse">
<stop stop-color="#FA233B"/>
<stop offset="1" stop-color="#FB5C74"/>
</linearGradient>
<clipPath id="clip0_1263_1778">
<rect width="30" height="30" fill="white" transform="translate(1 1)"/>
</clipPath>
</defs>
</svg>
