<svg width="32" height="32" viewBox="0 0 32 32" fill="none" xmlns="http://www.w3.org/2000/svg">
<path d="M30.3752 8.27955C30.0295 6.98798 29.0145 5.973 27.7229 5.62726C25.3818 5 16 5 16 5C16 5 6.61821 5 4.27955 5.62726C2.98798 5.973 1.973 6.98798 1.62726 8.27955C1 10.6182 1 15.5005 1 15.5005C1 15.5005 1 20.3828 1.62726 22.7214C1.973 24.013 2.98798 25.028 4.27955 25.3737C6.61821 26.001 16 26.001 16 26.001C16 26.001 25.3818 26.001 27.7204 25.3737C29.012 25.028 30.027 24.013 30.3727 22.7214C31 20.3828 31 15.5005 31 15.5005C31 15.5005 31 10.6182 30.3727 8.27955H30.3752Z" fill="#FF0000"/>
<path d="M12.9995 20L20.7959 15.5005L12.9995 11.001V20Z" fill="white"/>
</svg>
