<svg width="32" height="32" viewBox="0 0 32 32" fill="none" xmlns="http://www.w3.org/2000/svg">
<rect x="2" y="2" width="28" height="28" rx="14" fill="white"/>
<path fill-rule="evenodd" clip-rule="evenodd" d="M0 16C0 7.16344 7.16344 0 16 0C24.8366 0 32 7.16344 32 16C32 24.8366 24.8366 32 16 32C7.16344 32 0 24.8366 0 16ZM16 8.33359C11.7658 8.33359 8.33333 11.7661 8.33333 16.0003C8.33333 20.2344 11.7658 23.6669 16 23.6669C20.2342 23.6669 23.6667 20.2344 23.6667 16.0003C23.6667 11.7661 20.2342 8.33359 16 8.33359ZM6.33333 16.0003C6.33333 10.6615 10.6612 6.33359 16 6.33359C21.3388 6.33359 25.6667 10.6615 25.6667 16.0003C25.6667 21.339 21.3388 25.6669 16 25.6669C10.6612 25.6669 6.33333 21.339 6.33333 16.0003ZM20.3334 15.8122L12.985 20.3334V11.6668L20.3334 15.8122Z" fill="#FF0000"/>
</svg>
