<svg width="32" height="32" viewBox="0 0 32 32" fill="none" xmlns="http://www.w3.org/2000/svg">
<path d="M16.0046 1C9.74154 1 7.91154 1.00692 7.55615 1.03692C6.27077 1.14308 5.47231 1.34615 4.6 1.78C3.92846 2.11462 3.4 2.5 2.87615 3.04231C1.92308 4.03 1.34615 5.24615 1.13846 6.69077C1.03692 7.39231 1.00692 7.53538 1 11.1192C1 12.3123 1 13.8862 1 15.9931C1 22.2538 1.00692 24.0838 1.03692 24.4392C1.14077 25.69 1.33692 26.4769 1.75231 27.3377C2.54615 28.9854 4.06231 30.2223 5.84846 30.6838C6.46692 30.8431 7.15 30.9308 8.02692 30.9723C8.39846 30.9885 12.1854 31 15.9723 31C19.7592 31 23.5485 30.9954 23.9108 30.9769C24.9262 30.9285 25.5146 30.85 26.1677 30.6815C27.9654 30.2177 29.4538 28.9992 30.2638 27.3285C30.67 26.4885 30.8777 25.6715 30.97 24.4854C30.9908 24.2269 30.9977 20.1054 30.9977 15.9908C30.9977 11.8762 30.9885 7.76154 30.9677 7.50308C30.8731 6.29846 30.6677 5.48846 30.2454 4.63231C29.9015 3.93077 29.5185 3.40692 28.9623 2.87385C27.97 1.92538 26.7562 1.34846 25.3092 1.14077C24.6077 1.03923 24.4692 1.00923 20.8831 1.00231H16L16.0046 1Z" fill="url(#paint0_radial_1291_693)"/>
<path d="M16.0046 1C9.74154 1 7.91154 1.00692 7.55615 1.03692C6.27077 1.14308 5.47231 1.34615 4.6 1.78C3.92846 2.11462 3.4 2.5 2.87615 3.04231C1.92308 4.03 1.34615 5.24615 1.13846 6.69077C1.03692 7.39231 1.00692 7.53538 1 11.1192C1 12.3123 1 13.8862 1 15.9931C1 22.2538 1.00692 24.0838 1.03692 24.4392C1.14077 25.69 1.33692 26.4769 1.75231 27.3377C2.54615 28.9854 4.06231 30.2223 5.84846 30.6838C6.46692 30.8431 7.15 30.9308 8.02692 30.9723C8.39846 30.9885 12.1854 31 15.9723 31C19.7592 31 23.5485 30.9954 23.9108 30.9769C24.9262 30.9285 25.5146 30.85 26.1677 30.6815C27.9654 30.2177 29.4538 28.9992 30.2638 27.3285C30.67 26.4885 30.8777 25.6715 30.97 24.4854C30.9908 24.2269 30.9977 20.1054 30.9977 15.9908C30.9977 11.8762 30.9885 7.76154 30.9677 7.50308C30.8731 6.29846 30.6677 5.48846 30.2454 4.63231C29.9015 3.93077 29.5185 3.40692 28.9623 2.87385C27.97 1.92538 26.7562 1.34846 25.3092 1.14077C24.6077 1.03923 24.4692 1.00923 20.8831 1.00231H16L16.0046 1Z" fill="url(#paint1_radial_1291_693)"/>
<path d="M15.9977 4.92285C12.9907 4.92285 12.6123 4.9367 11.4307 4.98977C10.2515 5.04285 9.44613 5.22977 8.74228 5.50439C8.01305 5.78824 7.3969 6.1667 6.78075 6.78285C6.16459 7.39901 5.78613 8.01747 5.50228 8.74439C5.22767 9.44824 5.04075 10.2536 4.98767 11.4329C4.93459 12.6144 4.92075 12.9929 4.92075 15.9998C4.92075 19.0067 4.93459 19.3852 4.98767 20.5667C5.04075 21.7459 5.22767 22.5513 5.50228 23.2552C5.78613 23.9844 6.16459 24.6029 6.77844 25.2167C7.39459 25.8329 8.01075 26.2113 8.73998 26.4952C9.44382 26.7698 10.2492 26.9567 11.4284 27.0098C12.61 27.0629 12.9861 27.0767 15.9954 27.0767C19.0046 27.0767 19.3807 27.0629 20.56 27.0098C21.7392 26.9567 22.5446 26.7698 23.2484 26.4952C23.9777 26.2113 24.5938 25.8329 25.21 25.2167C25.8261 24.6005 26.2046 23.9821 26.4884 23.2552C26.7607 22.5513 26.9477 21.7459 27.0031 20.5667C27.0561 19.3852 27.07 19.009 27.07 15.9998C27.07 12.9905 27.0561 12.6144 27.0031 11.4329C26.9477 10.2536 26.7607 9.44824 26.4884 8.74439C26.2046 8.01516 25.8261 7.3967 25.21 6.78285C24.5938 6.1667 23.9777 5.78824 23.2484 5.50439C22.5423 5.22977 21.7369 5.04285 20.5577 4.98977C19.3761 4.9367 19 4.92285 15.9907 4.92285H15.9931H15.9977ZM15.0031 6.91901C15.2984 6.91901 15.6261 6.91901 15.9977 6.91901C18.9538 6.91901 19.3046 6.93054 20.4723 6.98362C21.5523 7.03208 22.1384 7.21439 22.5284 7.36439C23.0454 7.56516 23.4146 7.80516 23.8 8.19285C24.1877 8.58054 24.4277 8.94977 24.6284 9.4667C24.7807 9.8567 24.9607 10.4429 25.0092 11.5229C25.0623 12.6905 25.0738 13.0413 25.0738 15.9975C25.0738 18.9536 25.0623 19.3044 25.0092 20.4721C24.9607 21.5521 24.7784 22.1382 24.6284 22.5282C24.4277 23.0452 24.1877 23.4144 23.8 23.7998C23.4123 24.1875 23.0454 24.4275 22.5284 24.6282C22.1384 24.7805 21.5523 24.9605 20.4723 25.009C19.3046 25.0621 18.9538 25.0736 15.9977 25.0736C13.0415 25.0736 12.6907 25.0621 11.5231 25.009C10.4431 24.9582 9.8569 24.7782 9.4669 24.6259C8.94998 24.4252 8.58075 24.1852 8.19305 23.7975C7.80536 23.4098 7.56536 23.0405 7.36459 22.5236C7.21228 22.1336 7.03228 21.5475 6.98382 20.4675C6.93075 19.2998 6.91921 18.949 6.91921 15.9905C6.91921 13.0321 6.93075 12.6836 6.98382 11.5159C7.03228 10.4359 7.21459 9.84977 7.36459 9.45977C7.56536 8.94285 7.80536 8.57362 8.19305 8.18593C8.58075 7.79824 8.94998 7.55824 9.4669 7.35747C9.8569 7.20516 10.4431 7.02516 11.5231 6.97439C12.5454 6.92824 12.94 6.91439 15.0054 6.91208L15.0031 6.91901ZM21.9077 8.76054C21.1738 8.76054 20.5784 9.35593 20.5784 10.0898C20.5784 10.8236 21.1738 11.419 21.9077 11.419C22.6415 11.419 23.2369 10.8236 23.2369 10.0898C23.2369 9.35593 22.6415 8.76054 21.9077 8.76054ZM15.9954 10.3136C12.8546 10.3136 10.3069 12.8613 10.3069 16.0021C10.3069 19.1429 12.8523 21.6905 15.9954 21.6905C19.1361 21.6905 21.6815 19.1452 21.6815 16.0021C21.6815 12.859 19.1361 10.3136 15.9954 10.3136ZM15.9954 12.3098C18.0331 12.3098 19.6877 13.9621 19.6877 16.0021C19.6877 18.0421 18.0354 19.6944 15.9954 19.6944C13.9554 19.6944 12.3031 18.0421 12.3031 16.0021C12.3031 13.9621 13.9554 12.3098 15.9954 12.3098Z" fill="white"/>
<defs>
<radialGradient id="paint0_radial_1291_693" cx="0" cy="0" r="1" gradientUnits="userSpaceOnUse" gradientTransform="translate(8.76529 33.1873) rotate(-90) scale(29.7 27.6)">
<stop stop-color="#FFDD55"/>
<stop offset="0.1" stop-color="#FFDD55"/>
<stop offset="0.5" stop-color="#FF543E"/>
<stop offset="1" stop-color="#C837AB"/>
</radialGradient>
<radialGradient id="paint1_radial_1291_693" cx="0" cy="0" r="1" gradientUnits="userSpaceOnUse" gradientTransform="translate(-3.98077 3.45682) rotate(78.68) scale(13.35 54.75)">
<stop stop-color="#3771C8"/>
<stop offset="0.13" stop-color="#3771C8"/>
<stop offset="1" stop-color="#6600FF" stop-opacity="0"/>
</radialGradient>
</defs>
</svg>
