<svg width="32" height="32" viewBox="0 0 32 32" fill="none" xmlns="http://www.w3.org/2000/svg">
<rect width="32" height="32" rx="8" fill="#32D951"/>
<path fill-rule="evenodd" clip-rule="evenodd" d="M12.2973 11.2278C12.8801 10.8569 13.2509 11.1218 13.4628 11.7046L13.9926 13.082C13.9926 13.082 14.3635 13.8237 13.4099 14.5654C13.3039 14.6361 13.2686 14.7597 13.3039 14.9363C13.5158 15.572 14.3635 17.4793 17.0644 18.9617C17.3293 19.1206 17.3823 19.1206 17.6472 18.9087C17.8591 18.6968 18.124 18.4319 18.3359 18.22C18.8127 17.7962 19.0776 17.6372 19.5014 17.9551C19.8193 18.167 20.1372 18.4319 20.455 18.6438C20.7729 18.9087 21.3027 19.2266 20.7729 19.8623L20.2961 20.4451C19.6074 21.2928 19.0246 21.3457 18.124 21.1338C14.6814 20.2332 12.1384 17.7971 11.0258 14.3535C10.655 13.0291 11.1848 11.9165 12.2973 11.2288V11.2278ZM16.0049 5.56006C21.7786 5.56006 26.4397 10.2212 26.4397 15.9949C26.4397 21.7686 21.7786 26.4298 16.0049 26.4298C14.4155 26.4298 12.9331 26.1119 11.6086 25.4761L6.04681 26.4298L6.78851 20.9209L6.73554 20.815C5.99384 19.3846 5.57001 17.7432 5.57001 15.9949C5.57001 10.2212 10.2312 5.56006 16.0049 5.56006ZM9.43744 24.0987L10.9208 23.8338L11.8215 23.6749C13.093 24.3636 14.4704 24.7344 16.0058 24.7344C20.8259 24.7344 24.7453 20.815 24.7453 15.9949C24.7453 11.1748 20.8259 7.25537 16.0058 7.25537C11.1857 7.25537 7.26628 11.1748 7.26628 15.9949C7.26628 17.7432 7.79607 19.3316 8.64373 20.709L8.53777 21.5037L8.32585 23.0931L8.16692 24.3116L9.4384 24.0997L9.43744 24.0987Z" fill="white"/>
</svg>
