<svg width="32" height="32" viewBox="0 0 32 32" fill="none" xmlns="http://www.w3.org/2000/svg">
<path d="M16 32C24.8366 32 32 24.8366 32 16C32 7.16344 24.8366 0 16 0C7.16344 0 0 7.16344 0 16C0 24.8366 7.16344 32 16 32Z" fill="url(#paint0_linear_1272_1882)"/>
<path fill-rule="evenodd" clip-rule="evenodd" d="M7.24256 15.831C11.9069 13.7987 15.0173 12.4591 16.5734 11.8118C21.017 9.96378 21.9402 9.6425 22.5418 9.63194C22.6742 9.6297 22.9699 9.66234 23.1619 9.81786C23.3238 9.94906 23.3683 10.1267 23.3898 10.2511C23.4112 10.3756 23.4378 10.6595 23.4166 10.8809C23.176 13.4108 22.1341 19.5503 21.6038 22.3839C21.3795 23.583 20.9379 23.9849 20.5104 24.0243C19.5811 24.1097 18.8758 23.4102 17.9757 22.8204C16.5674 21.8972 15.7718 21.3228 14.4051 20.422C12.8253 19.3811 13.8496 18.8089 14.7498 17.8739C14.9853 17.6291 19.0794 13.9055 19.1584 13.5676C19.1683 13.5254 19.1776 13.3679 19.0838 13.2847C18.9901 13.2015 18.8522 13.23 18.7526 13.2527C18.6115 13.2847 16.3619 14.7718 12.0038 17.7135C11.3654 18.1519 10.7869 18.3657 10.2688 18.3545C9.6976 18.342 8.59872 18.0316 7.78176 17.766C6.77984 17.4403 5.98336 17.2681 6.0528 16.7148C6.08896 16.4268 6.48576 16.1321 7.2432 15.831H7.24256Z" fill="white"/>
<defs>
<linearGradient id="paint0_linear_1272_1882" x1="16.128" y1="0.128" x2="16.128" y2="31.808" gradientUnits="userSpaceOnUse">
<stop stop-color="#2AABEE"/>
<stop offset="1" stop-color="#229ED9"/>
</linearGradient>
</defs>
</svg>
