<svg width="32" height="32" viewBox="0 0 32 32" fill="none" xmlns="http://www.w3.org/2000/svg">
<path d="M16.0306 0C7.17959 0 0 7.16327 0 15.9796C0 24.7959 7.15918 32 16.0306 32C24.902 32 32 24.7959 32 15.9796C32.0204 7.12245 24.8408 0 16.0306 0Z" fill="#001935"/>
<path d="M17.2755 19.5918C17.2755 21.0408 18.0102 21.5306 19.151 21.5306H20.802V25.2041H17.6816C14.8877 25.2041 12.7877 23.7551 12.7877 20.3061V14.7755H10.2388V11.7755C13.0326 11.0408 14.2163 8.63266 14.3592 6.55103H17.2755V11.3061H20.6612V14.7755H17.2755V19.5918Z" fill="white"/>
</svg>
