<svg width="32" height="32" viewBox="0 0 32 32" fill="none" xmlns="http://www.w3.org/2000/svg">
<rect width="32" height="32" rx="8" fill="#1AA2F8"/>
<path fill-rule="evenodd" clip-rule="evenodd" d="M16.1981 12.9585C15.3518 8.50728 20.7129 5.85948 23.8735 9.07115C23.8735 9.07115 25.2846 8.67692 26.5261 7.88846C26.5261 7.88846 26.075 9.40947 24.5511 10.3676C24.5511 10.3676 26.2447 10.142 26.9782 9.69189C26.9782 9.69189 26.2447 11.2129 24.8904 11.7768C25.6239 21.9747 14.6183 28.1715 5.70139 23.1015C5.70139 23.1015 10.1034 23.327 11.9657 21.1862C11.9657 21.1862 9.25619 21.4118 7.90193 18.1442C7.90193 18.1442 8.91787 18.5384 9.9338 18.0314C9.9338 18.0314 6.77322 17.5244 6.49081 13.7498C6.49081 13.7498 7.50674 14.5383 8.63545 14.2568C8.63545 14.2568 5.13655 12.172 7.11155 8.39739C7.11155 8.39739 10.837 13.1301 16.1981 12.9614V12.9585Z" fill="white"/>
</svg>
