<svg width="32" height="32" viewBox="0 0 32 32" fill="none" xmlns="http://www.w3.org/2000/svg">
<rect width="32" height="32" rx="8" fill="#FFFF00"/>
<path fill-rule="evenodd" clip-rule="evenodd" d="M16.143 5.62183C17.1417 5.62183 22.7139 5.93735 22.3459 12.6135C22.3459 12.6135 24.0806 12.4557 24.6589 13.5073C24.6589 13.5073 25.9731 15.5047 22.3984 16.9242C22.3984 16.9242 23.1869 18.922 25.9203 20.2359C25.9203 20.2359 27.1293 20.7092 26.6563 21.8657C26.6563 21.8657 26.551 22.4964 24.6589 23.1799C24.2734 23.3201 24.028 23.5303 23.9229 23.8106C23.7126 24.3364 22.9241 24.9146 21.1366 24.7044C21.1366 24.7044 20.5059 24.5991 19.9801 25.1249C19.9801 25.1249 18.4557 26.4391 16.1427 26.4916C13.8822 26.4391 12.3053 25.1249 12.3053 25.1249C11.7795 24.5991 11.2013 24.7044 11.2013 24.7044C9.36127 24.9146 8.62559 24.3364 8.41503 23.8106C8.27487 23.5303 8.02953 23.3201 7.67903 23.1799C5.73407 22.4964 5.68159 21.8657 5.68159 21.8657C5.20863 20.7092 6.36511 20.2359 6.36511 20.2359C9.09855 18.9217 9.93983 16.9242 9.93983 16.9242C6.36511 15.505 7.67935 13.5073 7.67935 13.5073C8.25759 12.4557 9.93983 12.6135 9.93983 12.6135C9.62431 5.93735 15.1968 5.62183 16.143 5.62183Z" fill="black"/>
<path fill-rule="evenodd" clip-rule="evenodd" d="M16.143 6.83081C21.7152 7.25129 21.2422 11.2465 21.1369 14.4532C21.1369 14.4532 21.4525 14.5585 22.6089 13.9275C22.6089 13.9275 23.2397 13.507 23.7129 13.9799C23.7129 13.9799 24.2912 14.6107 23.1347 15.2417L21.2422 16.6084C21.2422 16.6084 21.2422 19.3419 25.6579 21.3921C25.6579 21.3921 25.5526 21.8654 23.3974 22.2859C23.3974 22.2859 23.0294 22.3911 22.8192 23.2321C22.6614 23.7579 21.6102 23.5476 21.0845 23.5476C21.0845 23.5476 19.9805 23.5476 18.824 24.5463C18.824 24.5463 17.6675 25.2823 16.143 25.3873C14.6185 25.2823 13.5145 24.5463 13.5145 24.5463C12.3581 23.5476 11.2016 23.5476 11.2016 23.5476C10.7286 23.5476 9.62462 23.7579 9.51934 23.2321C9.3091 22.3911 8.88862 22.2859 8.88862 22.2859C6.73342 21.8654 6.62814 21.3921 6.62814 21.3921C11.0438 19.3419 11.0438 16.6084 11.0438 16.6084L9.15134 15.2417C8.04734 14.611 8.62558 13.9799 8.62558 13.9799C9.09886 13.5067 9.72958 13.9275 9.72958 13.9275C10.8861 14.5582 11.2016 14.4532 11.2016 14.4532C11.0438 11.2465 10.6233 7.25129 16.143 6.83081Z" fill="white"/>
</svg>
