<svg width="32" height="32" viewBox="0 0 32 32" fill="none" xmlns="http://www.w3.org/2000/svg">
<path d="M7.34316 0H24.6569C28.725 0 32 3.27503 32 7.34315V24.6569C32 28.725 28.725 32 24.6569 32H7.34316C3.27505 32 0 28.725 0 24.6569V7.34315C0 3.27503 3.27505 0 7.34316 0Z" fill="#34ABFB"/>
<path d="M7.0111 9.1001C6.84249 9.1001 6.68365 9.12918 6.53332 9.18899L9.54443 12.289L12.5889 15.4445L12.6444 15.5112L12.7333 15.6001L12.8222 15.689L13 15.8779L15.6111 18.5557C15.6546 18.5827 15.7806 18.6994 15.879 18.7486C16.0058 18.812 16.1432 18.8704 16.2849 18.8754C16.4377 18.8809 16.5939 18.8371 16.7315 18.7702C16.8345 18.7201 16.8803 18.6483 17 18.5557L20.0222 15.4334L23.0778 12.289L26.0222 9.25565C25.8332 9.15323 25.6238 9.1001 25.4 9.1001H7.0111ZM6.08887 9.47788C5.76777 9.78213 5.56665 10.2395 5.56665 10.7557V20.9334C5.56665 21.3513 5.70087 21.731 5.92221 22.0223L6.34443 21.6223L9.48888 18.5668L12.2778 15.8668L12.2222 15.8001L9.16665 12.6557L6.1111 9.5001L6.08887 9.47788ZM26.4222 9.57788L23.4444 12.6557L20.4 15.8001L20.3444 15.8557L23.2444 18.6668L26.3889 21.7223L26.5778 21.9001C26.7471 21.6285 26.8444 21.2938 26.8444 20.9334V10.7557C26.8444 10.2955 26.685 9.87816 26.4222 9.57788ZM12.6333 16.2334L9.85554 18.9334L6.69998 21.989L6.29998 22.3779C6.51086 22.5137 6.75084 22.6001 7.0111 22.6001H25.4C25.7129 22.6001 25.9967 22.4797 26.2333 22.289L26.0333 22.089L22.8778 19.0334L19.9778 16.2334L17.3667 18.9223C17.2253 19.016 17.1309 19.1199 16.9929 19.1837C16.7708 19.2864 16.5274 19.3733 16.2828 19.3696C16.0375 19.3658 15.7969 19.2698 15.5768 19.1615C15.4663 19.1072 15.4074 19.0531 15.2778 18.9445L12.6333 16.2334Z" fill="white"/>
</svg>
