<svg width="32" height="32" viewBox="0 0 32 32" fill="none" xmlns="http://www.w3.org/2000/svg">
<rect width="32" height="32" rx="8" fill="black"/>
<path d="M16.099 26.9924C13.8749 26.9924 12.8519 26.7175 11.1545 25.804C9.68366 25.0125 8.41382 23.9514 7.73437 22.4296C5.30157 16.9762 6.03955 8.82272 11.2411 6.11255C13.8825 4.73583 18.0712 4.58568 20.7534 5.94968C23.3262 7.25769 24.5731 9.29859 25.6012 11.9197L23.4992 12.5203C22.5271 8.99322 20.1885 7.03884 16.3917 7.03884C14.8903 7.03884 13.5288 7.18898 12.3837 7.75647C9.64549 9.11283 8.52324 12.2963 8.41382 15.518C8.33239 17.8592 8.71156 20.2233 9.75746 21.9257C10.9535 23.8725 13.4372 25.1016 15.7657 25.1016C17.9465 25.1016 19.7024 24.7224 21.0562 23.4526C22.8986 21.7222 23.2829 18.9662 20.9341 17.2841C20.2114 23.4602 11.834 23.1091 11.834 18.2002C11.834 17.1797 12.231 16.2916 13.0224 15.5307C14.5976 14.0217 16.9668 14.467 18.9415 14.439C18.7329 13.5076 17.9414 12.1564 16.4197 12.1564C15.2465 12.1564 14.2362 12.4516 13.6942 13.36L12.0579 12.2989C12.7501 10.996 14.1497 10.1435 16.2924 10.1435C18.4351 10.1435 20.5371 11.5456 20.8832 14.2075L20.9901 15.0294C22.2014 15.518 23.0742 16.4316 23.6799 17.3502C25.3823 19.9357 24.4433 23.2516 22.0105 25.3128C20.6821 26.4376 18.71 27 16.0939 27L16.099 26.9924ZM13.7909 18.1544C13.7909 19.1647 14.8648 19.923 15.9031 19.923C17.0609 19.923 17.86 19.5973 18.2926 18.9433C18.7278 18.2893 18.9441 17.5029 18.9441 16.5817C17.7531 16.2789 15.6817 16.0626 14.5849 16.7878C14.0683 17.1288 13.7909 17.5665 13.7909 18.1544Z" fill="white"/>
</svg>
