<svg width="32" height="32" viewBox="0 0 32 32" fill="none" xmlns="http://www.w3.org/2000/svg">
<path fill-rule="evenodd" clip-rule="evenodd" d="M16.0001 2C8.11349 2 2 7.77713 2 15.5801C2 19.6615 3.67266 23.1884 6.39673 25.6244C6.62528 25.8292 6.76353 26.1158 6.77298 26.4228L6.84928 28.9131C6.87378 29.7076 7.69418 30.2242 8.42114 29.9036L11.1998 28.6768C11.4354 28.5729 11.6993 28.5536 11.9474 28.6219C13.2242 28.9729 14.5833 29.1602 16.0001 29.1602C23.8867 29.1602 30.0002 23.383 30.0002 15.5801C30.0002 7.77713 23.8867 2 16.0001 2Z" fill="url(#paint0_radial_1272_1897)"/>
<path fill-rule="evenodd" clip-rule="evenodd" d="M7.59303 19.5517L11.7055 13.0269C12.3597 11.9888 13.7604 11.7305 14.7422 12.4666L18.0129 14.9197C18.3129 15.1448 18.7259 15.1438 19.0248 14.9169L23.4422 11.5643C24.0319 11.117 24.8016 11.8226 24.4068 12.4487L20.2942 18.9735C19.6401 20.0112 18.239 20.2699 17.2576 19.5338L13.9865 17.0807C13.6866 16.8556 13.2736 16.8567 12.9747 17.0835L8.55728 20.4361C7.96753 20.8834 7.19787 20.1778 7.59268 19.5517H7.59303Z" fill="white"/>
<defs>
<radialGradient id="paint0_radial_1272_1897" cx="0" cy="0" r="1" gradientUnits="userSpaceOnUse" gradientTransform="translate(7.25003 29.8115) scale(30.5202)">
<stop stop-color="#0099FF"/>
<stop offset="0.61" stop-color="#A033FF"/>
<stop offset="0.93" stop-color="#FF5280"/>
<stop offset="1" stop-color="#FF7061"/>
</radialGradient>
</defs>
</svg>
