<svg width="32" height="32" viewBox="0 0 32 32" fill="none" xmlns="http://www.w3.org/2000/svg">
<g clip-path="url(#clip0_1220_1746)">
<path d="M4.03155 15.9787C4.03155 9.36409 9.41042 3.98346 16.0198 3.98346C18.1488 3.98346 20.1468 4.54407 21.883 5.51904L22.8332 3.78237C20.8108 2.64897 18.5387 2.03351 16.2208 2H15.9924C8.31089 2.01219 2.08528 8.19412 2 15.8659V16C2.00305 19.8542 3.596 23.5347 6.40422 26.1763L7.78701 24.6834C5.38997 22.4226 4.03155 19.2753 4.03155 15.9787ZM25.7542 5.96997L24.4079 7.41719C26.7136 9.66877 28.0111 12.7552 28.0111 15.9787C28.0111 22.5902 22.6322 27.9708 16.0228 27.9708C13.9426 27.9708 11.9872 27.4376 10.2815 26.5023L9.28554 28.2786C11.3445 29.4089 13.6532 30.003 16.0015 30C23.7318 30 30 23.7297 30 15.997C30 12.2189 28.468 8.59935 25.7572 5.96997H25.7542ZM4.29044 15.9787C4.29044 19.1991 5.61841 22.2794 7.96062 24.4914L9.33732 23.0015C7.41238 21.1734 6.31894 18.6324 6.32198 15.9787C6.32198 10.6285 10.6744 6.27465 16.0228 6.27465C17.7529 6.27465 19.3763 6.73166 20.7834 7.52992L21.7581 5.7506C20.0067 4.76344 18.0331 4.24244 16.0228 4.24548C9.55662 4.24548 4.29348 9.50729 4.29348 15.9787H4.29044ZM25.7207 15.9787C25.7207 21.3288 21.3682 25.6827 16.0198 25.6827C14.4055 25.6827 12.8156 25.2805 11.3993 24.5097L10.4064 26.2799C12.1273 27.2213 14.0583 27.7149 16.0228 27.7149C22.4891 27.7149 27.7522 22.4501 27.7522 15.9817C27.7522 12.7064 26.4029 9.74189 24.2313 7.61219L22.8515 9.09902C24.6912 10.918 25.7237 13.398 25.7207 15.9817V15.9787ZM23.4485 15.9787C23.4454 20.0797 20.1225 23.4007 16.0228 23.4037C14.7984 23.4037 13.5953 23.1021 12.5171 22.5201L11.5272 24.2781C12.907 25.0276 14.4543 25.4207 16.0228 25.4176C21.2312 25.4176 25.4648 21.1826 25.4648 15.9726C25.4648 13.459 24.4627 11.0459 22.6779 9.27573L21.3012 10.7534C22.6749 12.1428 23.4454 14.0196 23.4454 15.9726L23.4485 15.9787ZM6.58088 15.9787C6.58088 18.6629 7.70782 21.0912 9.51398 22.8157L10.8815 21.3349C9.41956 19.9365 8.59415 18.0017 8.59415 15.9817C8.59719 11.8807 11.9202 8.55974 16.0168 8.55669C17.3021 8.55669 18.5691 8.89184 19.6839 9.53166L20.6525 7.76148C19.2392 6.96017 17.6402 6.53972 16.0168 6.53972C10.8115 6.53972 6.57783 10.7748 6.57783 15.9848L6.58088 15.9787ZM21.1976 15.9787C21.1976 18.8396 18.8798 21.1552 16.0198 21.1552C15.1822 21.1552 14.3568 20.951 13.6167 20.561L12.642 22.2977C13.6806 22.8553 14.8411 23.1478 16.0198 23.1447C19.9763 23.1417 23.1835 19.9334 23.1866 15.9756C23.1866 14.0927 22.4464 12.286 21.1246 10.9484L19.7692 12.4078C20.686 13.3706 21.1976 14.6472 21.1976 15.9756V15.9787ZM8.85304 15.9787C8.85304 17.9286 9.64799 19.7933 11.0552 21.143L12.4044 19.6836L12.4197 19.6988C11.4085 18.7269 10.8389 17.3832 10.8389 15.9787C10.8389 13.1208 13.1537 10.8022 16.0137 10.8022C16.9214 10.8022 17.8138 11.0429 18.5996 11.4999L19.556 9.75103C18.4778 9.13254 17.2564 8.80958 16.0137 8.80958C12.0664 8.80348 8.84999 12.0209 8.84999 15.9756L8.85304 15.9787ZM16.6472 15.9787C16.6259 16.326 16.3274 16.588 15.9832 16.5667C15.6665 16.5484 15.4137 16.2955 15.3954 15.9787C15.3954 15.6313 15.6756 15.351 16.0228 15.351C16.3701 15.351 16.6503 15.6313 16.6503 15.9787H16.6472ZM12.0511 15.9787C12.0511 13.788 13.8268 12.0118 16.0168 12.0118C18.2067 12.0118 19.9824 13.788 19.9824 15.9787C19.9824 18.1693 18.2067 19.9456 16.0168 19.9456C13.8268 19.9456 12.0511 18.1693 12.0511 15.9787ZM12.2247 15.9787C12.2247 18.0749 13.9243 19.7719 16.0198 19.775C18.1153 19.775 19.8149 18.0749 19.8149 15.9787C19.8149 13.8825 18.1184 12.1824 16.0228 12.1824C13.9273 12.1824 12.2278 13.8794 12.2278 15.9756L12.2247 15.9787Z" fill="black"/>
</g>
<defs>
<clipPath id="clip0_1220_1746">
<rect width="28" height="28" fill="white" transform="translate(2 2)"/>
</clipPath>
</defs>
</svg>
