<svg width="32" height="32" viewBox="0 0 32 32" fill="none" xmlns="http://www.w3.org/2000/svg">
<path d="M27.5002 10.2237C27.2236 9.19048 26.4116 8.3785 25.3783 8.10191C23.5054 7.6001 16 7.6001 16 7.6001C16 7.6001 8.49457 7.6001 6.62364 8.10191C5.59039 8.3785 4.7784 9.19048 4.50181 10.2237C4 12.0947 4 16.0005 4 16.0005C4 16.0005 4 19.9063 4.50181 21.7772C4.7784 22.8105 5.59039 23.6225 6.62364 23.8991C8.49457 24.4009 16 24.4009 16 24.4009C16 24.4009 23.5054 24.4009 25.3764 23.8991C26.4096 23.6225 27.2216 22.8105 27.4982 21.7772C28 19.9063 28 16.0005 28 16.0005C28 16.0005 28 12.0947 27.4982 10.2237H27.5002Z" fill="#FF0000"/>
<path d="M13.5996 19.6001L19.8367 16.0005L13.5996 12.4009V19.6001Z" fill="white"/>
</svg>
