<svg width="32" height="32" viewBox="0 0 32 32" fill="none" xmlns="http://www.w3.org/2000/svg">
<rect x="2" y="2" width="28" height="28" rx="14" fill="white"/>
<path fill-rule="evenodd" clip-rule="evenodd" d="M2 16C2 8.26801 8.26801 2 16 2C23.732 2 30 8.26801 30 16C30 23.732 23.732 30 16 30C8.26801 30 2 23.732 2 16ZM15.9999 9.41681C12.3641 9.41681 9.4166 12.3643 9.4166 16.0001C9.4166 19.636 12.3641 22.5835 15.9999 22.5835C19.6358 22.5835 22.5833 19.636 22.5833 16.0001C22.5833 12.3643 19.6358 9.41681 15.9999 9.41681ZM7.4166 16.0001C7.4166 11.2597 11.2595 7.41681 15.9999 7.41681C20.7404 7.41681 24.5833 11.2597 24.5833 16.0001C24.5833 20.7406 20.7404 24.5835 15.9999 24.5835C11.2595 24.5835 7.4166 20.7406 7.4166 16.0001ZM19.7917 15.8357L13.3618 19.7918V12.2084L19.7917 15.8357Z" fill="#FF0000"/>
</svg>
