<svg viewBox="0 0 32 32" fill="none" xmlns="http://www.w3.org/2000/svg">
<path d="M29.2875 8.72505C29.1726 8.26421 28.9477 7.83809 28.632 7.48323C28.3163 7.12837 27.9193 6.85534 27.475 6.68755C23.2 5.03755 16.375 5.05005 16 5.05005C15.625 5.05005 8.8 5.03755 4.525 6.68755C4.08068 6.85534 3.68366 7.12837 3.36799 7.48323C3.05231 7.83809 2.82739 8.26421 2.7125 8.72505C2.3875 9.96255 2 12.2376 2 16.0001C2 19.7626 2.3875 22.0376 2.7125 23.2751C2.82739 23.7359 3.05231 24.162 3.36799 24.5169C3.68366 24.8717 4.08068 25.1448 4.525 25.3126C8.625 26.9001 15.05 26.9501 15.9125 26.9501H16.0875C16.95 26.9501 23.375 26.9001 27.475 25.3126C27.9193 25.1448 28.3163 24.8717 28.632 24.5169C28.9477 24.162 29.1726 23.7359 29.2875 23.2751C29.6125 22.0376 30 19.7626 30 16.0001C30 12.2376 29.6125 9.96255 29.2875 8.72505ZM20.275 16.4126L14.275 20.4126C14.1954 20.4711 14.0988 20.5019 14 20.5001C13.9172 20.497 13.8361 20.4756 13.7625 20.4376C13.6826 20.396 13.6158 20.3331 13.5694 20.2559C13.5231 20.1787 13.4991 20.0901 13.5 20.0001V12.0001C13.4991 11.91 13.5231 11.8214 13.5694 11.7442C13.6158 11.667 13.6826 11.6041 13.7625 11.5626C13.8422 11.52 13.932 11.4999 14.0222 11.5043C14.1124 11.5087 14.1998 11.5375 14.275 11.5876L20.275 15.5876C20.3447 15.6315 20.4022 15.6923 20.442 15.7645C20.4818 15.8366 20.5027 15.9177 20.5027 16.0001C20.5027 16.0824 20.4818 16.1635 20.442 16.2356C20.4022 16.3078 20.3447 16.3686 20.275 16.4126Z" fill="black"/>
</svg>
