<svg viewBox="0 0 32 32" fill="none" xmlns="http://www.w3.org/2000/svg">
<path fill-rule="evenodd" clip-rule="evenodd" d="M4.05114 6.98804C3.5 8.18356 3.5 9.72237 3.5 12.8V19.2C3.5 22.2776 3.5 23.8164 4.05114 25.012C4.64925 26.3093 5.69065 27.3508 6.98804 27.9489C8.18356 28.5 9.72237 28.5 12.8 28.5H19.2C22.2776 28.5 23.8164 28.5 25.012 27.9489C26.3093 27.3508 27.3508 26.3093 27.9489 25.012C28.5 23.8164 28.5 22.2776 28.5 19.2V12.8C28.5 9.72237 28.5 8.18356 27.9489 6.98804C27.3508 5.69065 26.3093 4.64925 25.012 4.05114C23.8164 3.5 22.2776 3.5 19.2 3.5H12.8C9.72237 3.5 8.18356 3.5 6.98804 4.05114C5.69065 4.64925 4.64925 5.69065 4.05114 6.98804ZM9.30356 15.9999C9.30356 12.2855 12.3379 9.3035 16 9.3035C19.6621 9.3035 22.6964 12.3378 22.6964 15.9999C22.6964 19.662 19.7144 22.6964 16 22.6964C12.2856 22.6964 9.30356 19.7144 9.30356 15.9999ZM23.2321 10.0178C23.9225 10.0178 24.4822 9.45811 24.4822 8.76776C24.4822 8.0774 23.9225 7.51776 23.2321 7.51776C22.5418 7.51776 21.9821 8.0774 21.9821 8.76776C21.9821 9.45811 22.5418 10.0178 23.2321 10.0178ZM16.0001 20.4583C13.5534 20.4583 11.5417 18.4466 11.5417 16C11.5417 13.5533 13.5534 11.5416 16.0001 11.5416C18.4467 11.5416 20.4584 13.5533 20.4584 16C20.4584 18.4466 18.4467 20.4583 16.0001 20.4583Z" fill="black"/>
</svg>
