<svg viewBox="0 0 32 32" fill="none" xmlns="http://www.w3.org/2000/svg">
<path fill-rule="evenodd" clip-rule="evenodd" d="M19.2 3.5H12.8C9.72237 3.5 8.18356 3.5 6.98804 4.05114C5.69065 4.64925 4.64925 5.69065 4.05114 6.98804C3.5 8.18356 3.5 9.72237 3.5 12.8V19.2C3.5 22.2776 3.5 23.8164 4.05114 25.012C4.64925 26.3093 5.69065 27.3508 6.98804 27.9489C8.18356 28.5 9.72237 28.5 12.8 28.5H15.0523V20.0327H11.5087V15.9985H15.0523V13.7571C15.0523 10.2592 17.1359 8.32717 20.3238 8.32717C21.8507 8.32717 23.4479 8.59973 23.4479 8.59973V12.0343H21.6881C19.9543 12.0343 19.4136 13.1101 19.4136 14.2138V15.9985H23.2843L22.6656 20.0327H19.4136V28.5C22.3495 28.4997 23.8444 28.4871 25.012 27.9489C26.3093 27.3508 27.3508 26.3093 27.9489 25.012C28.5 23.8164 28.5 22.2776 28.5 19.2V12.8C28.5 9.72237 28.5 8.18356 27.9489 6.98804C27.3508 5.69065 26.3093 4.64925 25.012 4.05114C23.8164 3.5 22.2776 3.5 19.2 3.5Z" fill="black"/>
</svg>
