<svg viewBox="0 0 32 32" fill="none" xmlns="http://www.w3.org/2000/svg">
<rect x="1" y="1" width="30" height="30" rx="15" fill="white"/>
<path fill-rule="evenodd" clip-rule="evenodd" d="M0 16C0 7.16344 7.16344 0 16 0C24.8366 0 32 7.16344 32 16C32 24.8366 24.8366 32 16 32C7.16344 32 0 24.8366 0 16ZM16 8.33333C11.7658 8.33333 8.33333 11.7658 8.33333 16C8.33333 20.2342 11.7658 23.6667 16 23.6667C20.2342 23.6667 23.6667 20.2342 23.6667 16C23.6667 11.7658 20.2342 8.33333 16 8.33333ZM6.33333 16C6.33333 10.6612 10.6612 6.33333 16 6.33333C21.3388 6.33333 25.6667 10.6612 25.6667 16C25.6667 21.3388 21.3388 25.6667 16 25.6667C10.6612 25.6667 6.33333 21.3388 6.33333 16ZM20.3333 15.812L12.9849 20.3333V11.6666L20.3333 15.812Z" fill="#FF0000"/>
</svg>
