<svg viewBox="0 0 32 32" fill="none" xmlns="http://www.w3.org/2000/svg">
<rect x="1" y="1" width="30" height="30" rx="15" fill="white"/>
<path fill-rule="evenodd" clip-rule="evenodd" d="M16 0C7.16344 0 0 7.16344 0 16C0 24.8366 7.16344 32 16 32C24.8366 32 32 24.8366 32 16C32 7.16344 24.8366 0 16 0ZM21.5745 22.9285C22.014 23.1982 22.5909 23.0584 22.8581 22.6188C23.1278 22.1768 22.988 21.6024 22.5484 21.3327C18.5977 18.9203 13.703 18.3584 7.99418 19.662C7.49222 19.7769 7.17756 20.2789 7.29244 20.7808C7.40731 21.2853 7.90927 21.5999 8.41123 21.4851C13.6281 20.2939 18.0558 20.7808 21.5745 22.9285ZM24.6911 18.5382C24.354 19.0876 23.6348 19.2624 23.0854 18.9228C19.0572 16.448 12.9164 15.7312 8.15404 17.1772C7.53721 17.3645 6.88291 17.0148 6.69562 16.398C6.50832 15.7812 6.85794 15.1294 7.47477 14.9421C12.9164 13.2914 19.6816 14.0905 24.3066 16.9324C24.856 17.2696 25.0283 17.9888 24.6911 18.5382ZM7.44231 12.5572C12.0523 11.1587 20.0187 11.4209 24.8485 14.2903C25.5128 14.6849 26.3743 14.4651 26.7689 13.8009C27.166 13.1366 26.9462 12.275 26.2794 11.8804C20.7204 8.57901 11.92 8.26934 6.62819 9.8751C5.88649 10.0999 5.46944 10.8815 5.6942 11.6232C5.91895 12.3649 6.7031 12.782 7.44231 12.5572Z" fill="#1ED760"/>
</svg>
