<svg viewBox="0 0 32 32" fill="none" xmlns="http://www.w3.org/2000/svg">
<rect width="32" height="32" rx="8" fill="white"/>
<rect x="0.16" y="0.16" width="31.68" height="31.68" rx="7.84" stroke="black" stroke-opacity="0.16" stroke-width="0.32"/>
<mask id="mask0_306_526" style="mask-type:alpha" maskUnits="userSpaceOnUse" x="8" y="6" width="18" height="20">
<path d="M17.5055 6.33215H8.81836V25.6646H14.0018C14.485 25.6646 14.8754 25.2743 14.8754 24.7911V21.0763H16.1744C22.5226 21.0763 25.1175 17.499 25.1175 13.3139C25.1207 8.14957 21.1979 6.33215 17.5055 6.33215Z" fill="url(#paint0_linear_306_526)"/>
</mask>
<g mask="url(#mask0_306_526)">
<path d="M16.4368 -1.52949L16.7183 -1.4463C17.1343 -1.32471 17.4862 -1.04954 17.707 -0.678377L18.1038 -0.0064441C18.3246 0.364719 18.6765 0.639891 19.0925 0.761479L19.8412 0.982257C20.2572 1.10384 20.6091 1.37902 20.8299 1.75018L21.2267 2.42211C21.4475 2.79328 21.7994 3.06845 22.2154 3.19004L22.9641 3.41081C23.3801 3.5324 23.732 3.80757 23.9528 4.17874L24.3496 4.85067C24.5703 5.22183 24.9223 5.49701 25.3383 5.61859L26.087 5.83937C26.5029 5.96096 26.8549 6.23613 27.0757 6.6073L27.4757 7.28243C27.6932 7.65359 28.0452 7.92556 28.458 8.05035L29.2163 8.27433C29.6226 8.39592 29.9714 8.66469 30.189 9.02625L30.3394 9.27583C30.7073 9.88057 30.6593 10.6517 30.2242 11.2084L29.2227 12.4947C28.6435 13.237 27.5716 13.3714 26.8293 12.7923L13.9058 2.74208C13.1635 2.16294 13.0291 1.09105 13.6082 0.34872L14.6129 -0.940751C15.0385 -1.4943 15.7648 -1.72787 16.4368 -1.52949Z" fill="url(#paint1_linear_306_526)"/>
<path d="M27.3957 8.8983C27.4885 8.9463 27.5909 8.9879 27.6933 9.01669L28.4484 9.24067C28.8547 9.36226 29.2035 9.63103 29.4243 9.99579L29.5747 10.2454C29.9394 10.8501 29.8914 11.618 29.4563 12.1748L28.4516 13.461C27.8724 14.2034 26.8005 14.3346 26.0582 13.7554L13.1475 3.69242C12.4052 3.11328 12.2708 2.04139 12.8499 1.29586L13.8546 0.0063929C14.2866 -0.547152 15.0097 -0.780728 15.6817 -0.582348L15.9632 -0.499156C16.3792 -0.377569 16.7311 -0.102396 16.9519 0.271966L17.3487 0.943899C17.5695 1.31506 17.9214 1.59343 18.3374 1.71502L19.0861 1.9358C19.5021 2.05739 19.854 2.33256 20.0748 2.70692L20.4716 3.37886C20.6924 3.75002 21.0443 4.02839 21.4603 4.14998L22.209 4.37076C22.625 4.49234 22.9769 4.76752 23.1977 5.14188L23.5945 5.81381C23.8152 6.18498 24.1672 6.46335 24.5832 6.58494L25.3319 6.80571C25.7478 6.9273 26.0998 7.20247 26.3206 7.57684L26.7173 8.25197C26.8741 8.52714 27.1141 8.75112 27.3957 8.8983Z" fill="url(#paint2_linear_306_526)"/>
<path d="M14.933 0.374359L15.2145 0.457551C15.6305 0.579139 15.9825 0.857511 16.2 1.22867L16.5968 1.90061C16.8176 2.27497 17.1695 2.55014 17.5823 2.67173L18.331 2.89251C18.747 3.0141 19.0989 3.29247 19.3165 3.66363L19.7133 4.33556C19.9341 4.70993 20.286 4.9851 20.6988 5.10669L21.4475 5.32746C21.8635 5.44905 22.2154 5.72742 22.433 6.09859L22.8298 6.77052C23.0505 7.14488 23.4025 7.42006 23.8153 7.54164L24.564 7.76242C24.98 7.88401 25.3319 8.16238 25.5495 8.53354L25.9463 9.20868C26.1638 9.57984 26.5158 9.85501 26.9286 9.9798L27.6837 10.2038C28.0932 10.3254 28.442 10.5973 28.6596 10.9653L28.81 11.2149C29.1715 11.8196 29.1235 12.5875 28.6884 13.1411L27.6837 14.4274C27.1045 15.1697 26.0326 15.3009 25.2903 14.7217L12.3924 4.64273C11.6501 4.06359 11.5189 2.9885 12.098 2.24617L13.1027 0.959901C13.5347 0.409556 14.261 0.175979 14.933 0.374359Z" fill="url(#paint3_linear_306_526)"/>
<path d="M16.3664 1.83014L16.648 1.91333C17.0639 2.03492 17.4159 2.31329 17.6335 2.68445L18.027 3.35639C18.2446 3.73075 18.5998 4.00592 19.0125 4.12751L19.7613 4.34829C20.1772 4.46987 20.5292 4.74825 20.7468 5.11941L21.1403 5.79134C21.3579 6.16571 21.7131 6.44088 22.1258 6.56247L22.8746 6.78324C23.2905 6.90483 23.6425 7.1832 23.8601 7.55437L24.2536 8.2263C24.4712 8.60066 24.8264 8.87583 25.2391 8.99742L25.9878 9.2182C26.4038 9.33979 26.7558 9.61816 26.9733 9.98932L27.3701 10.6645C27.5877 11.0356 27.9397 11.3108 28.3524 11.4356L29.1043 11.6596C29.5139 11.7811 29.8627 12.0563 30.0834 12.4243L30.2338 12.6771C30.5922 13.2818 30.5442 14.0465 30.109 14.6001L29.1011 15.8863C28.5188 16.6287 27.4469 16.7566 26.7046 16.1775L13.8195 6.09531C13.0771 5.51297 12.9459 4.44108 13.5283 3.69875L14.5362 2.41248C14.9681 1.86214 15.6945 1.63176 16.3664 1.83014Z" fill="url(#paint4_linear_306_526)"/>
<path d="M13.4291 2.28127L13.7107 2.36446C14.1266 2.48925 14.4786 2.76442 14.6962 3.13879L15.0897 3.81072C15.3073 4.18508 15.6593 4.46025 16.0752 4.58504L16.824 4.80902C17.2399 4.93381 17.5919 5.20898 17.8095 5.58334L18.203 6.25528C18.4206 6.62964 18.7726 6.90481 19.1885 7.0296L19.9372 7.25358C20.3532 7.37836 20.7052 7.65354 20.9227 8.0279L21.3163 8.69983C21.5339 9.07419 21.8858 9.34937 22.3018 9.47415L23.0505 9.69813C23.4665 9.82292 23.8185 10.0981 24.036 10.4725L24.4296 11.1476C24.6472 11.5187 24.9991 11.7971 25.4119 11.9219L26.1638 12.1459C26.5766 12.2707 26.9253 12.5426 27.1429 12.9138L27.2901 13.1666C27.6485 13.7713 27.5973 14.536 27.1621 15.0864L26.1542 16.3695C25.5719 17.1118 24.5 17.2398 23.7577 16.6574L10.8789 6.54325C10.1366 5.96091 10.0086 4.88901 10.591 4.14669L11.5989 2.86041C12.0308 2.31007 12.7572 2.07969 13.4291 2.28127Z" fill="url(#paint5_linear_306_526)"/>
<path d="M11.1445 -0.300803L11.4133 -0.185614C11.81 -0.0160314 12.13 0.300737 12.3028 0.697497L12.6164 1.41103C12.7891 1.80779 13.1091 2.12135 13.5059 2.29414L14.2226 2.60131C14.6194 2.77089 14.9393 3.08766 15.1121 3.48442L15.4257 4.19795C15.5985 4.59471 15.9184 4.90828 16.3152 5.08106L17.0319 5.38823C17.4287 5.55781 17.7486 5.87458 17.9214 6.27134L18.235 6.98487C18.4078 7.38163 18.7277 7.6952 19.1245 7.86798L19.8412 8.17515C20.238 8.34473 20.558 8.6615 20.7307 9.05826L21.0443 9.77499C21.2171 10.1718 21.5339 10.4853 21.9306 10.6549L22.6506 10.9653C23.0441 11.1349 23.3609 11.4484 23.5337 11.842L23.6521 12.1108C23.9368 12.7539 23.7992 13.5058 23.3033 14.005L22.1514 15.1633C21.4859 15.832 20.4076 15.8352 19.7388 15.1729L8.11761 3.638C7.44888 2.97567 7.44568 1.89418 8.10801 1.22544L9.25989 0.0671602C9.75264 -0.43199 10.5014 -0.579175 11.1445 -0.300803Z" fill="url(#paint6_linear_306_526)"/>
<path d="M12.3956 3.84596L12.6804 3.90996C13.1027 4.00595 13.4707 4.26192 13.7139 4.62028L14.149 5.26662C14.3922 5.62498 14.7602 5.87776 15.1825 5.97695L15.944 6.15293C16.3664 6.24892 16.7344 6.5049 16.9775 6.86326L17.4127 7.5096C17.6559 7.86796 18.0238 8.12073 18.4462 8.21992L19.2077 8.39591C19.6301 8.4919 19.998 8.74787 20.2412 9.10624L20.6764 9.75257C20.9196 10.1109 21.2875 10.3637 21.7099 10.4629L22.4714 10.6389C22.8938 10.7349 23.2617 10.9908 23.5049 11.3492L23.9401 11.9955C24.18 12.3539 24.5512 12.6067 24.9703 12.7059L25.7319 12.8819C26.151 12.9778 26.519 13.2306 26.7622 13.589L26.9254 13.8322C27.3189 14.4145 27.3157 15.176 26.919 15.7552L25.9942 17.1022C25.4599 17.8798 24.3976 18.0749 23.6201 17.5406L10.1206 8.26152C9.34311 7.72717 9.14793 6.66488 9.67907 5.88736L10.6038 4.54029C11.0037 3.96755 11.7141 3.68918 12.3956 3.84596Z" fill="url(#paint7_linear_306_526)"/>
<path d="M13.0931 2.55645L13.3587 2.67803C13.7523 2.85722 14.0626 3.18038 14.229 3.58034L14.5266 4.30027C14.6898 4.70023 15.0033 5.0234 15.3969 5.20258L16.1072 5.52575C16.5008 5.70493 16.8112 6.0281 16.9776 6.42806L17.2751 7.14799C17.4383 7.54795 17.7519 7.87112 18.1454 8.0503L18.8558 8.37347C19.2493 8.55265 19.5597 8.87581 19.7261 9.27577L20.0236 9.9957C20.1868 10.3957 20.5004 10.7188 20.894 10.898L21.6043 11.2212C21.9978 11.4004 22.3082 11.7235 22.4746 12.1235L22.7722 12.8466C22.9354 13.2466 23.2457 13.5697 23.6393 13.7489L24.3496 14.0753C24.7432 14.2545 25.0503 14.5744 25.2167 14.9744L25.3287 15.2432C25.5975 15.8927 25.4407 16.6382 24.9352 17.1246L23.7577 18.2573C23.0793 18.91 21.9978 18.8908 21.3451 18.2125L9.97985 6.42486C9.32711 5.74653 9.34631 4.66504 10.0246 4.0123L11.2021 2.87961C11.7077 2.39326 12.4564 2.26528 13.0931 2.55645Z" fill="url(#paint8_linear_306_526)"/>
<path d="M11.9252 4.18508L12.2036 4.26827C12.6164 4.39306 12.9683 4.67143 13.1859 5.0426L13.5795 5.71773C13.797 6.09209 14.149 6.36726 14.5618 6.49205L15.3105 6.71603C15.7233 6.84082 16.0752 7.11919 16.2928 7.49035L16.6864 8.16548C16.9039 8.53985 17.2559 8.81502 17.6687 8.93981L18.4174 9.16378C18.8301 9.28857 19.1821 9.56694 19.3997 9.93811L19.7933 10.6132C20.0108 10.9876 20.3628 11.2628 20.7756 11.3876L21.5243 11.6115C21.937 11.7363 22.289 12.0147 22.5066 12.3859L22.9001 13.061C23.1177 13.4354 23.4697 13.7105 23.8824 13.8353L24.6312 14.0593C25.0439 14.1841 25.3959 14.4625 25.6135 14.8336L25.7607 15.0864C26.1126 15.6911 26.0614 16.4527 25.6263 17.003L24.6152 18.2861C24.0328 19.0252 22.9577 19.1532 22.2186 18.5708L9.36549 8.44386C8.62637 7.86151 8.49838 6.78642 9.08072 6.0473L10.0918 4.76422C10.527 4.21388 11.2533 3.9835 11.9252 4.18508Z" fill="url(#paint9_linear_306_526)"/>
<path d="M9.33672 1.74372L9.60549 1.85571C10.0055 2.02209 10.3286 2.33246 10.5078 2.72602L10.831 3.43635C11.0102 3.82991 11.3333 4.14028 11.7333 4.30667L12.4532 4.60424C12.8532 4.77062 13.1763 5.08099 13.3555 5.47455L13.6787 6.18488C13.8579 6.57844 14.181 6.88881 14.581 7.05519L15.3009 7.35276C15.7009 7.51914 16.0241 7.82951 16.2032 8.22307L16.5264 8.9334C16.7056 9.32696 17.0288 9.63733 17.4287 9.80372L18.1486 10.1013C18.5486 10.2677 18.8718 10.578 19.0509 10.9716L19.3741 11.6819C19.5533 12.0755 19.8765 12.3859 20.2764 12.5522L20.9964 12.8498C21.3963 13.0162 21.7195 13.3266 21.8987 13.7201L22.0203 13.9857C22.3114 14.6224 22.1834 15.3744 21.6971 15.8767L20.5644 17.0542C19.9117 17.7325 18.8302 17.7517 18.1518 17.099L6.36742 5.72412C5.68909 5.07139 5.66989 3.9899 6.32262 3.31156L7.45531 2.13408C7.94486 1.63173 8.69039 1.47495 9.33672 1.74372Z" fill="url(#paint10_linear_306_526)"/>
<path d="M11.3205 5.21546L11.5989 5.29865C12.0116 5.42344 12.3636 5.70181 12.5812 6.07297L12.9747 6.74811C13.1923 7.12247 13.5443 7.39764 13.957 7.52243L14.7058 7.74641C15.1185 7.87119 15.4705 8.14956 15.6881 8.52073L16.0816 9.19586C16.2992 9.57022 16.6512 9.8454 17.0639 9.97018L17.8127 10.1942C18.2254 10.3189 18.5774 10.5973 18.795 10.9685L19.1885 11.6436C19.4061 12.018 19.7581 12.2932 20.1708 12.4179L20.9195 12.6419C21.3323 12.7667 21.6843 13.0451 21.9018 13.4162L22.2954 14.0914C22.513 14.4657 22.8649 14.7409 23.2777 14.8657L24.0264 15.0897C24.4392 15.2145 24.7912 15.4928 25.0087 15.864L25.1559 16.1168C25.5079 16.7215 25.4567 17.483 25.0215 18.0334L24.0104 19.3164C23.4281 20.0556 22.353 20.1836 21.6139 19.6012L8.76076 9.47103C8.02163 8.88869 7.89364 7.8136 8.47598 7.07447L9.48708 5.7914C9.92224 5.24106 10.6486 5.01388 11.3205 5.21546Z" fill="url(#paint11_linear_306_526)"/>
<path d="M9.01033 2.39649L9.27591 2.51808C9.66947 2.70046 9.97984 3.02363 10.143 3.42359L10.4374 4.14672C10.6006 4.54668 10.9109 4.86984 11.3045 5.05223L12.0148 5.37859C12.4084 5.56098 12.7188 5.88414 12.8819 6.2841L13.1763 7.00723C13.3395 7.40719 13.6499 7.73036 14.0434 7.91274L14.7538 8.23911C15.1473 8.42149 15.4577 8.74466 15.6209 9.14462L15.9152 9.86774C16.0784 10.2677 16.3888 10.5909 16.7824 10.7733L17.4927 11.0996C17.8862 11.282 18.1966 11.6052 18.3598 12.0051L18.6542 12.7283C18.8174 13.1282 19.1277 13.4514 19.5213 13.6338L20.2316 13.9601C20.6252 14.1425 20.9355 14.4657 21.0987 14.8656L21.2107 15.1376C21.4763 15.7872 21.3163 16.5295 20.8108 17.0158L19.6301 18.1453C18.9485 18.798 17.8702 18.7725 17.2175 18.0941L5.88425 6.25851C5.23151 5.57697 5.25711 4.49868 5.93544 3.84595L7.11612 2.71646C7.62167 2.23011 8.3736 2.10532 9.01033 2.39649Z" fill="url(#paint12_linear_306_526)"/>
<path d="M10.3478 6.24256L10.6262 6.32575C11.0389 6.45054 11.3909 6.72891 11.6085 7.10007L12.002 7.7752C12.2196 8.14957 12.5716 8.42474 12.9843 8.54953L13.733 8.77351C14.1458 8.89829 14.4978 9.17666 14.7153 9.54783L15.1089 10.223C15.3265 10.5973 15.6784 10.8725 16.0912 10.9973L16.8399 11.2213C17.2527 11.346 17.6047 11.6244 17.8222 11.9956L18.2158 12.6707C18.4334 13.0451 18.7853 13.3203 19.1981 13.445L19.9468 13.669C20.3596 13.7938 20.7115 14.0722 20.9291 14.4433L21.3227 15.1185C21.5403 15.4928 21.8922 15.768 22.305 15.8928L23.0537 16.1168C23.4665 16.2416 23.8184 16.5199 24.036 16.8911L24.1832 17.1439C24.5352 17.7486 24.484 18.5101 24.0488 19.0605L23.0377 20.3435C22.4554 21.0827 21.3803 21.2107 20.6412 20.6283L7.78804 10.4981C7.04891 9.91579 6.92092 8.8407 7.50327 8.10157L8.51436 6.8185C8.95272 6.26816 9.67905 6.04098 10.3478 6.24256Z" fill="url(#paint13_linear_306_526)"/>
<path d="M10.735 5.91615L11.0037 6.02814C11.4037 6.19452 11.7237 6.50809 11.8997 6.90485L12.2196 7.61838C12.3956 8.01194 12.7156 8.32551 13.1155 8.49509L13.8355 8.79906C14.2354 8.96544 14.5554 9.27901 14.7314 9.67577L15.0513 10.3893C15.2273 10.7829 15.5473 11.0964 15.9472 11.266L16.6672 11.57C17.0671 11.7364 17.3871 12.0499 17.5631 12.4467L17.8831 13.1602C18.059 13.5538 18.379 13.8674 18.779 14.0369L19.4989 14.3409C19.8989 14.5073 20.2188 14.8209 20.3948 15.2176L20.7148 15.9311C20.8908 16.3247 21.1787 16.7983 21.5787 16.9678L22.3466 17.6078C22.7466 17.7742 23.0025 17.6622 23.1785 18.0557L23.3705 18.2477C23.6553 18.8877 23.4953 19.6428 23.0057 20.1451L21.8635 21.313C21.2043 21.9881 20.1228 21.9977 19.4509 21.3386L7.73687 9.87735C7.06174 9.21822 7.05214 8.13673 7.71127 7.46479L8.85356 6.29691C9.34311 5.79456 10.0918 5.64418 10.735 5.91615Z" fill="url(#paint14_linear_306_526)"/>
<path d="M9.56067 7.26966L9.83905 7.35285C10.2518 7.47764 10.6038 7.75601 10.8213 8.12717L11.2149 8.8023C11.4325 9.17667 11.7845 9.45184 12.1972 9.57663L12.9459 9.8006C13.3587 9.92539 13.7107 10.2038 13.9282 10.5749L14.3218 11.2501C14.5394 11.6244 14.8913 11.8996 15.3041 12.0244L16.0528 12.2484C16.4656 12.3731 16.8175 12.6515 17.0351 13.0227L17.4287 13.6978C17.6463 14.0722 17.9982 14.3473 18.411 14.4721L19.1597 14.6961C19.5725 14.8209 19.9244 15.0993 20.142 15.4704L20.5356 16.1456C20.7532 16.5199 21.1051 16.7951 21.5179 16.9199L22.2666 17.1439C22.6794 17.2687 23.0313 17.547 23.2489 17.9182L23.3961 18.171C23.7481 18.7757 23.6969 19.5372 23.2617 20.0876L22.2506 21.3706C21.6683 22.1098 20.5932 22.2378 19.854 21.6554L7.00093 11.5252C6.2618 10.9429 6.13381 9.8678 6.71616 9.12867L7.72726 7.8456C8.16241 7.29526 8.88874 7.06808 9.56067 7.26966Z" fill="url(#paint15_linear_306_526)"/>
<path d="M9.62784 6.67133L9.89661 6.78972C10.2934 6.9625 10.6101 7.27927 10.7797 7.67603L11.0901 8.39276C11.2629 8.78952 11.5764 9.10629 11.9732 9.27907L12.6867 9.59264C13.0835 9.76542 13.4003 10.0822 13.5698 10.479L13.8802 11.1957C14.053 11.5924 14.3666 11.9092 14.7633 12.082L15.4769 12.3956C15.8736 12.5683 16.1904 12.8851 16.36 13.2819L16.6703 13.9986C16.8431 14.3954 17.1567 14.7121 17.5534 14.8849L18.267 15.1985C18.6637 15.3713 18.9805 15.688 19.1501 16.0848L19.4605 16.8015C19.6332 17.1983 19.8284 17.739 20.222 17.9118L21.0571 18.0014C21.4539 18.1742 21.7706 18.491 21.9402 18.8877L22.0554 19.1565C22.3338 19.7996 22.1898 20.5483 21.6906 21.0411L20.5323 22.193C19.8636 22.8585 18.7853 22.8553 18.1198 22.1866L6.57534 10.5909C5.90981 9.92221 5.91301 8.84392 6.58174 8.17838L7.74003 7.0265C8.23598 6.53055 8.9847 6.38976 9.62784 6.67133Z" fill="url(#paint16_linear_306_526)"/>
<path d="M8.77356 8.2967L9.05193 8.37989C9.46469 8.50468 9.81666 8.78305 10.0342 9.15421L10.4278 9.82935C10.6454 10.2037 10.9973 10.4789 11.4101 10.6037L12.1588 10.8276C12.5716 10.9524 12.9235 11.2308 13.1411 11.602L13.5347 12.2771C13.7523 12.6515 14.1042 12.9266 14.517 13.0514L15.2657 13.2754C15.6785 13.4002 16.0304 13.6786 16.248 14.0497L16.6416 14.7249C16.8592 15.0992 17.2111 15.3744 17.6239 15.4992L18.3726 15.7232C18.7854 15.8479 19.1373 16.1263 19.3549 16.4975L19.7485 17.1726C19.966 17.547 20.318 17.8221 20.7308 17.9469L21.4795 18.1709C21.8923 18.2957 22.2442 18.5741 22.4618 18.9452L22.609 19.198C22.9609 19.8027 22.9097 20.5643 22.4746 21.1146L21.4635 22.3977C20.8812 23.1368 19.8061 23.2648 19.0669 22.6825L6.21382 12.5523C5.47469 11.9699 5.34671 10.8948 5.92905 10.1557L6.94015 8.87264C7.3753 8.3255 8.10163 8.09512 8.77356 8.2967Z" fill="url(#paint17_linear_306_526)"/>
<path d="M10.7446 11.9092L11.0325 11.9508C11.4613 12.0148 11.8484 12.2356 12.1204 12.5747L12.6068 13.1859C12.8755 13.525 13.2659 13.7458 13.6947 13.8098L14.4658 13.9218C14.8945 13.9858 15.2817 14.2066 15.5537 14.5457L16.04 15.1569C16.3088 15.496 16.6992 15.7168 17.1279 15.7808L17.899 15.8928C18.3278 15.9568 18.715 16.1776 18.9869 16.5167L19.4733 17.1279C19.7421 17.4671 20.1324 17.6878 20.5612 17.7518L21.3323 17.8638C21.7611 17.9278 22.1482 18.1486 22.4202 18.4877L22.9065 19.0989C23.1753 19.4381 23.5657 19.6588 23.9944 19.7228L24.7656 19.8348C25.1943 19.8988 25.5815 20.1196 25.8534 20.4588L26.0358 20.6859C26.4742 21.2331 26.5318 21.9914 26.183 22.5993L25.3703 24.0168C24.8999 24.8327 23.8568 25.1175 23.0409 24.6471L8.83434 16.4943C8.01842 16.024 7.73365 14.9809 8.204 14.165L9.01672 12.7475C9.36549 12.1396 10.0502 11.8068 10.7446 11.9092Z" fill="url(#paint18_linear_306_526)"/>
<path d="M7.98645 9.32388L8.26483 9.40707C8.67758 9.53185 9.02955 9.81023 9.24713 10.1814L9.64069 10.8565C9.85827 11.2309 10.2102 11.5061 10.623 11.6308L11.3717 11.8548C11.7845 11.9796 12.1364 12.258 12.354 12.6291L12.7476 13.3043C12.9652 13.6786 13.3171 13.9538 13.7299 14.0786L14.4786 14.3026C14.8914 14.4274 15.2433 14.7057 15.4609 15.0769L15.8545 15.752C16.072 16.1264 16.424 16.4016 16.8368 16.5264L17.5855 16.7503C17.9983 16.8751 18.3502 17.1535 18.5678 17.5247L18.9614 18.1998C19.1789 18.5742 19.5309 18.8493 19.9437 18.9741L20.6924 19.1981C21.1051 19.3229 21.4571 19.6012 21.6747 19.9724L21.8219 20.2252C22.1738 20.8299 22.1226 21.5914 21.6875 22.1418L20.6764 23.4249C20.094 24.164 19.019 24.292 18.2798 23.7096L5.42671 13.5827C4.68758 13.0003 4.5596 11.9252 5.14194 11.1861L6.15304 9.90302C6.58819 9.35267 7.31452 9.1223 7.98645 9.32388Z" fill="url(#paint19_linear_306_526)"/>
<path d="M8.03764 8.85986L8.30962 8.96865C8.70958 9.13183 9.03594 9.439 9.21832 9.82936L9.54789 10.5365C9.73027 10.9301 10.0566 11.2372 10.4566 11.3972L11.1797 11.6884C11.5797 11.8516 11.9061 12.1587 12.0884 12.5491L12.418 13.2562C12.6004 13.6498 12.9268 13.9569 13.3267 14.1169L14.0498 14.4081C14.4498 14.5713 14.7762 14.8785 14.9586 15.2688L15.2881 15.9759C15.4705 16.3695 15.7969 16.6767 16.1968 16.8367L16.92 17.1278C17.3199 17.291 17.6463 17.5982 17.8287 17.9885L18.1582 18.6957C18.3406 19.0892 18.667 19.3964 19.0669 19.5564L19.7901 19.8476C20.19 20.0107 20.5164 20.3179 20.6988 20.7083L20.8236 20.9738C21.1211 21.6106 20.9963 22.3593 20.5164 22.8681L19.3933 24.0519C18.7438 24.7367 17.6655 24.7655 16.9807 24.1159L5.10033 12.8659C4.4156 12.2163 4.38681 11.138 5.03634 10.4533L6.15943 9.26942C6.64258 8.76067 7.38811 8.59748 8.03764 8.85986Z" fill="url(#paint20_linear_306_526)"/>
<path d="M6.06344 11.6915L6.35461 11.7139C6.78657 11.7459 7.18973 11.9411 7.4809 12.2611L8.00885 12.837C8.30322 13.157 8.70318 13.3522 9.13513 13.3842L9.91266 13.4418C10.3446 13.4738 10.7478 13.6689 11.0389 13.9889L11.5669 14.5649C11.8613 14.8848 12.2612 15.08 12.6932 15.112L13.4707 15.1696C13.9027 15.2016 14.3058 15.3968 14.597 15.7167L15.1249 16.2927C15.4193 16.6127 15.8193 16.8078 16.2512 16.8398L17.0287 16.8974C17.4607 16.9294 17.8639 17.1246 18.155 17.4446L18.683 18.0205C18.9773 18.3405 19.3773 18.5357 19.8093 18.5677L20.5868 18.6253C21.0187 18.6573 21.4219 18.8524 21.7131 19.1724L21.9115 19.3868C22.385 19.9019 22.497 20.6571 22.1898 21.2874L21.4763 22.756C21.0635 23.604 20.0428 23.9591 19.1949 23.5464L4.4764 16.3983C3.62848 15.9855 3.27332 14.9648 3.68608 14.1169L4.39961 12.6483C4.70358 12.0179 5.36271 11.6372 6.06344 11.6915Z" fill="url(#paint21_linear_306_526)"/>
<path d="M7.19928 10.351L7.47766 10.4342C7.89042 10.559 8.24238 10.8373 8.45996 11.2085L8.85352 11.8836C9.0711 12.258 9.42306 12.5332 9.83582 12.6579L10.5845 12.8819C10.9973 13.0067 11.3493 13.2851 11.5668 13.6562L11.9604 14.3346C12.178 14.7089 12.53 14.9841 12.9427 15.1089L13.6914 15.3329C14.1042 15.4577 14.4562 15.736 14.6737 16.1072L15.0673 16.7823C15.2849 17.1567 15.6368 17.4319 16.0496 17.5567L16.7983 17.7806C17.2111 17.9054 17.5631 18.1838 17.7806 18.555L18.1742 19.2301C18.3918 19.6045 18.7437 19.8796 19.1565 20.0044L19.9052 20.2284C20.318 20.3532 20.6699 20.6315 20.8875 21.0027L21.0347 21.2555C21.3867 21.8602 21.3355 22.6217 20.9003 23.1721L19.8892 24.4552C19.3069 25.1943 18.2318 25.3223 17.4927 24.7399L4.63954 14.6097C3.90041 14.0274 3.77243 12.9523 4.35477 12.2132L5.36587 10.9301C5.80102 10.3798 6.52735 10.1494 7.19928 10.351Z" fill="url(#paint22_linear_306_526)"/>
<path d="M7.30811 9.73018L7.57688 9.84857C7.97364 10.0246 8.28721 10.3445 8.45679 10.7413L8.76076 11.458C8.93035 11.8548 9.24391 12.1747 9.64068 12.3507L10.3542 12.6675C10.751 12.8435 11.0645 13.1634 11.2341 13.5602L11.5381 14.2769C11.7077 14.6737 12.0212 14.9937 12.418 15.1696L13.1315 15.4864C13.5283 15.6624 13.8419 15.9824 14.0114 16.3791L14.3154 17.0958C14.485 17.4926 14.7986 17.8126 15.1953 17.9886L15.9088 18.3053C16.3056 18.4813 16.6192 18.8013 16.7888 19.198L17.0927 19.9148C17.2623 20.3115 17.5759 20.6315 17.9726 20.8075L18.6862 21.1242C19.0829 21.3002 19.3965 21.6202 19.5661 22.017L19.6813 22.2857C19.9564 22.9321 19.8061 23.6776 19.3069 24.1703L18.1422 25.3158C17.4703 25.9782 16.3888 25.9686 15.7297 25.2966L4.23641 13.6338C3.57408 12.9619 3.58368 11.8804 4.25561 11.2212L5.4203 10.0757C5.91625 9.583 6.66817 9.44541 7.30811 9.73018Z" fill="url(#paint23_linear_306_526)"/>
<path d="M5.23467 12.9042L5.52585 12.9298C5.9578 12.9682 6.35776 13.1698 6.64573 13.493L7.16408 14.0753C7.45205 14.3985 7.85201 14.6001 8.28397 14.6385L9.06149 14.7088C9.49345 14.7472 9.89341 14.9488 10.1814 15.272L10.6997 15.8543C10.9877 16.1775 11.3877 16.3791 11.8196 16.4175L12.5971 16.4879C13.0291 16.5263 13.4291 16.7278 13.717 17.051L14.2322 17.6302C14.5201 17.9533 14.9201 18.1549 15.3521 18.1933L16.1296 18.2637C16.5615 18.3021 16.9615 18.5037 17.2495 18.8268L17.7678 19.4092C18.0558 19.7323 18.4558 19.9339 18.8877 19.9723L19.6652 20.0427C20.0972 20.0811 20.4971 20.2827 20.7851 20.6059L20.9803 20.8234C21.4475 21.345 21.5466 22.1001 21.2331 22.7272L20.5003 24.1863C20.078 25.0278 19.0509 25.367 18.2094 24.9446L3.57724 17.5854C2.73572 17.163 2.39656 16.1359 2.81891 15.2944L3.55164 13.8353C3.86841 13.2114 4.53394 12.8402 5.23467 12.9042Z" fill="url(#paint24_linear_306_526)"/>
<path d="M6.40897 11.3781L6.68735 11.4613C7.10011 11.5861 7.45207 11.8644 7.66965 12.2356L8.06321 12.9107C8.28079 13.2851 8.63275 13.5603 9.04551 13.685L9.79424 13.909C10.207 14.0338 10.559 14.3122 10.7765 14.6833L11.1701 15.3585C11.3877 15.7328 11.7396 16.008 12.1524 16.1328L12.9011 16.3568C13.3139 16.4816 13.6658 16.7599 13.8834 17.1311L14.277 17.8062C14.4946 18.1806 14.8465 18.4558 15.2593 18.5806L16.008 18.8045C16.4208 18.9293 16.7727 19.2077 16.9903 19.5789L17.3839 20.254C17.6015 20.6284 17.9534 20.9035 18.3662 21.0283L19.1149 21.2523C19.5277 21.3771 19.8796 21.6554 20.0972 22.0266L20.2444 22.2794C20.5964 22.8841 20.5452 23.6456 20.11 24.196L19.0989 25.4791C18.5166 26.2182 17.4415 26.3462 16.7023 25.7638L3.85243 15.6368C3.1133 15.0545 2.98532 13.9794 3.56766 13.2403L4.57876 11.9572C5.01391 11.4069 5.74024 11.1765 6.40897 11.3781Z" fill="url(#paint25_linear_306_526)"/>
<path d="M6.60418 11.474L6.87296 11.5923C7.26972 11.7651 7.58648 12.0819 7.75607 12.4787L8.06644 13.1954C8.23922 13.5921 8.55279 13.9089 8.94955 14.0817L9.66308 14.3953C10.0598 14.568 10.3766 14.8848 10.5462 15.2816L10.8566 15.9983C11.0293 16.3951 11.3429 16.7118 11.7397 16.8846L12.4532 17.1982C12.85 17.371 13.1667 17.6877 13.3363 18.0845L13.6467 18.8012C13.8195 19.198 14.133 19.5147 14.5298 19.6875L15.2433 20.0011C15.6401 20.1739 15.9568 20.4907 16.1264 20.8874L16.4368 21.6041C16.6096 22.0009 16.9232 22.3177 17.3199 22.4905L18.0334 22.804C18.4302 22.9768 18.747 23.2936 18.9166 23.6903L19.0317 23.9591C19.3101 24.6022 19.1661 25.351 18.6702 25.8437L17.5119 26.9956C16.8432 27.6611 15.7649 27.6579 15.0993 26.9892L3.54849 15.3904C2.88295 14.7216 2.88615 13.6433 3.55489 12.9778L4.71317 11.8259C5.21232 11.3332 5.96105 11.1924 6.60418 11.474Z" fill="url(#paint26_linear_306_526)"/>
<path d="M5.62189 12.4052L5.90026 12.4884C6.31302 12.6132 6.66499 12.8915 6.88256 13.2627L7.27612 13.9378C7.4937 14.3122 7.84567 14.5874 8.25843 14.7121L9.00715 14.9361C9.41991 15.0609 9.77188 15.3393 9.98946 15.7104L10.383 16.3856C10.6006 16.7599 10.9526 17.0351 11.3653 17.1599L12.114 17.3839C12.5268 17.5087 12.8788 17.787 13.0963 18.1582L13.4899 18.8333C13.7075 19.2077 14.0594 19.4829 14.4722 19.6077L15.2209 19.8316C15.6337 19.9564 15.9857 20.2348 16.2032 20.606L16.5968 21.2811C16.8144 21.6554 17.1663 21.9306 17.5791 22.0554L18.3278 22.2794C18.7406 22.4042 19.0925 22.6825 19.3101 23.0537L19.4573 23.3065C19.8093 23.9112 19.7581 24.6727 19.3229 25.2231L18.3118 26.5062C17.7295 27.2453 16.6544 27.3733 15.9153 26.7909L3.06215 16.6639C2.32302 16.0816 2.19503 15.0065 2.77737 14.2674L3.78847 12.9843C4.22683 12.434 4.95316 12.2036 5.62189 12.4052Z" fill="url(#paint27_linear_306_526)"/>
<path d="M3.30211 9.50617L3.56449 9.63416C3.95485 9.82294 4.25562 10.1525 4.4124 10.5557L4.69397 11.2852C4.85076 11.6884 5.15153 12.0179 5.54189 12.2067L6.24262 12.5459C6.63298 12.7346 6.93375 13.0642 7.09053 13.4674L7.37211 14.1969C7.52889 14.6001 7.82966 14.9296 8.22002 15.1184L8.92075 15.4576C9.31111 15.6464 9.61188 15.9759 9.76867 16.3791L10.0502 17.1086C10.207 17.5118 10.5078 17.8413 10.8982 18.0301L11.5989 18.3693C11.9892 18.5581 12.29 18.8876 12.4468 19.2908L12.7284 20.0203C12.8852 20.4235 13.1859 20.753 13.5763 20.9418L14.277 21.281C14.6674 21.4698 14.9681 21.7993 15.1249 22.2025L15.2305 22.4745C15.4833 23.1272 15.3105 23.8695 14.7922 24.3431L13.5891 25.4502C12.8948 26.0869 11.8165 26.0421 11.1765 25.351L0.0992317 13.301C-0.537505 12.6067 -0.492708 11.5284 0.198423 10.8884L1.4015 9.78134C1.91985 9.31099 2.67178 9.199 3.30211 9.50617Z" fill="url(#paint28_linear_306_526)"/>
<path d="M4.83472 13.4354L5.11309 13.5186C5.52585 13.6434 5.87782 13.9218 6.0954 14.2929L6.48896 14.9681C6.70653 15.3424 7.0585 15.6176 7.47126 15.7424L8.21998 15.9664C8.63274 16.0912 8.98471 16.3695 9.20228 16.7407L9.59584 17.4158C9.81342 17.7902 10.1654 18.0654 10.5781 18.1902L11.3269 18.4141C11.7396 18.5389 12.0916 18.8173 12.3092 19.1885L12.7027 19.8636C12.9203 20.2379 13.2723 20.5131 13.685 20.6379L14.4338 20.8619C14.8465 20.9867 15.1985 21.265 15.4161 21.6362L15.8096 22.3113C16.0272 22.6857 16.3792 22.9609 16.7919 23.0857L17.5407 23.3096C17.9534 23.4344 18.3054 23.7128 18.523 24.084L18.6701 24.3367C19.0221 24.9415 18.9709 25.703 18.5358 26.2533L17.5247 27.5364C16.9423 28.2755 15.8672 28.4035 15.1281 27.8212L2.27498 17.691C1.53585 17.1087 1.40786 16.0336 1.99021 15.2944L3.0013 14.0114C3.43646 13.461 4.16279 13.2338 4.83472 13.4354Z" fill="url(#paint29_linear_306_526)"/>
<path d="M4.44118 14.1425L4.72275 14.2193C5.14191 14.3313 5.50027 14.6001 5.72745 14.9649L6.14021 15.6272C6.36738 15.9952 6.72895 16.2607 7.14491 16.3727L7.89683 16.5743C8.31599 16.6863 8.67436 16.9551 8.90153 17.3198L9.31429 17.9822C9.54147 18.3501 9.90303 18.6157 10.319 18.7277L11.0709 18.9293C11.4901 19.0413 11.8484 19.31 12.0756 19.6748L12.4884 20.3371C12.7155 20.7051 13.0771 20.9707 13.4931 21.0827L14.245 21.2842C14.6642 21.3962 15.0225 21.665 15.2497 22.0298L15.6625 22.6921C15.8896 23.0601 16.2512 23.3256 16.6672 23.4376L17.4191 23.6392C17.8382 23.7512 18.1966 24.02 18.4238 24.3847L18.5774 24.6343C18.9485 25.2294 18.9165 25.991 18.4974 26.5541L17.5247 27.866C16.9615 28.6211 15.8928 28.7811 15.1377 28.2179L1.99342 18.4589C1.2383 17.8958 1.07831 16.8271 1.64146 16.072L2.61416 14.7601C3.04612 14.2097 3.76604 13.9602 4.44118 14.1425Z" fill="url(#paint30_linear_306_526)"/>
<path d="M5.24108 13.7394L5.50986 13.8545C5.90662 14.0241 6.22658 14.3377 6.40257 14.7313L6.71933 15.4448C6.89532 15.8416 7.21528 16.1551 7.61204 16.3215L8.33197 16.6255C8.72873 16.7951 9.0487 17.1086 9.22468 17.5022L9.54145 18.2157C9.71744 18.6125 10.0374 18.926 10.4342 19.0924L11.1541 19.3964C11.5509 19.566 11.8708 19.8795 12.0468 20.2731L12.3636 20.9866C12.5396 21.3834 12.8595 21.697 13.2563 21.8633L13.9762 22.1737C14.373 22.3433 14.6929 22.6569 14.8689 23.0504L15.1857 23.764C15.3617 24.1607 15.6816 24.4743 16.0784 24.6407L16.7983 24.9446C17.1951 25.1142 17.5151 25.4278 17.691 25.8214L17.8094 26.0869C18.0942 26.7269 17.9598 27.4756 17.4671 27.9747L16.3216 29.1394C15.6624 29.8114 14.5809 29.821 13.909 29.1618L2.23338 17.6942C1.56145 17.035 1.55185 15.9535 2.21098 15.2816L3.35647 14.1169C3.84922 13.6146 4.59475 13.4674 5.24108 13.7394Z" fill="url(#paint31_linear_306_526)"/>
<path d="M4.11164 14.4625L4.39001 14.5457C4.80277 14.6705 5.15473 14.9489 5.37231 15.32L5.76587 15.9952C5.98345 16.3695 6.33541 16.6447 6.74817 16.7695L7.4969 16.9935C7.90966 17.1183 8.26162 17.3966 8.4792 17.7678L8.87276 18.4429C9.09034 18.8173 9.44231 19.0925 9.85506 19.2173L10.6038 19.4412C11.0165 19.566 11.3685 19.8444 11.5861 20.2156L11.9797 20.8907C12.1972 21.265 12.5492 21.5402 12.962 21.665L13.7107 21.889C14.1234 22.0138 14.4754 22.2921 14.693 22.6633L15.0865 23.3384C15.3041 23.7128 15.6561 23.988 16.0688 24.1128L16.8176 24.3367C17.2303 24.4615 17.5823 24.7399 17.7999 25.1111L17.9471 25.3638C18.299 25.9686 18.2478 26.7301 17.8127 27.2804L16.8016 28.5635C16.2192 29.3026 15.1441 29.4306 14.405 28.8483L1.55189 18.7181C0.812767 18.1358 0.684779 17.0607 1.26712 16.3215L2.27822 15.0385C2.71338 14.4881 3.4397 14.2609 4.11164 14.4625Z" fill="url(#paint32_linear_306_526)"/>
<path d="M2.67498 16.6063L2.96295 16.6479C3.39171 16.7119 3.77887 16.9358 4.04765 17.2718L4.534 17.883C4.80277 18.2221 5.18993 18.4461 5.61869 18.5069L6.39301 18.6221C6.82177 18.6861 7.20893 18.91 7.4777 19.246L7.96405 19.8572C8.23283 20.1963 8.61999 20.4203 9.04874 20.4811L9.81987 20.5963C10.2486 20.6603 10.6358 20.8843 10.9046 21.2202L11.3909 21.8314C11.6597 22.1705 12.0468 22.3945 12.4756 22.4553L13.2467 22.5705C13.6755 22.6345 14.0626 22.8585 14.3314 23.1944L14.8178 23.8056C15.0865 24.1447 15.4737 24.3687 15.9025 24.4295L16.6736 24.5447C17.1023 24.6087 17.4895 24.8327 17.7583 25.1686L17.9407 25.3958C18.3758 25.9429 18.4334 26.7045 18.0846 27.3092L17.2687 28.7235C16.7984 29.5394 15.7553 29.821 14.9394 29.3506L0.761573 21.1882C-0.0543453 20.7179 -0.335916 19.6748 0.134437 18.8589L0.950355 17.4446C1.29912 16.8335 1.98385 16.5007 2.67498 16.6063Z" fill="url(#paint33_linear_306_526)"/>
<path d="M3.2605 15.4896L3.53887 15.5728C3.95163 15.6976 4.3036 15.976 4.52118 16.3471L4.91474 17.0223C5.13231 17.3966 5.48428 17.6718 5.89704 17.7966L6.64576 18.0206C7.05852 18.1454 7.41049 18.4237 7.62807 18.7949L8.02163 19.47C8.23921 19.8444 8.59117 20.1196 9.00393 20.2444L9.75265 20.4683C10.1654 20.5931 10.5174 20.8715 10.735 21.2427L11.1285 21.9178C11.3461 22.2921 11.6981 22.5673 12.1108 22.6921L12.8595 22.9161C13.2723 23.0409 13.6243 23.3192 13.8418 23.6904L14.2354 24.3655C14.453 24.7399 14.8049 25.0151 15.2177 25.1399L15.9664 25.3638C16.3792 25.4886 16.7312 25.767 16.9487 26.1382L17.0959 26.3909C17.4479 26.9957 17.3967 27.7572 16.9615 28.3075L15.9504 29.5906C15.3681 30.3297 14.293 30.4577 13.5539 29.8754L0.700757 19.7452C-0.0383695 19.1629 -0.166356 18.0878 0.415986 17.3486L1.42708 16.0656C1.86224 15.5152 2.58857 15.288 3.2605 15.4896Z" fill="url(#paint34_linear_306_526)"/>
<path d="M4.38041 14.9617L4.63959 15.0961C5.02355 15.2977 5.31472 15.6368 5.45871 16.0432L5.71788 16.7791C5.86187 17.1887 6.15304 17.5247 6.537 17.7262L7.22813 18.0878C7.61209 18.2894 7.90326 18.6285 8.04725 19.0349L8.30642 19.7708C8.45041 20.1804 8.74158 20.5164 9.12554 20.7179L9.81667 21.0795C10.2006 21.2811 10.4918 21.6202 10.6358 22.0266L10.895 22.7625C11.039 23.1721 11.3301 23.5081 11.7141 23.7096L12.4052 24.0712C12.7892 24.2728 13.0803 24.6119 13.2243 25.0183L13.4835 25.7542C13.6275 26.1638 13.9187 26.4998 14.3026 26.7013L14.9938 27.0629C15.3777 27.2645 15.6689 27.6036 15.8129 28.01L15.9089 28.2852C16.1392 28.9475 15.9441 29.6834 15.4161 30.141L14.181 31.2097C13.4675 31.8272 12.3892 31.7472 11.7749 31.0337L1.06555 18.6509C0.448009 17.9374 0.528001 16.8591 1.24153 16.2448L2.47661 15.1761C3.00135 14.7249 3.75968 14.6353 4.38041 14.9617Z" fill="url(#paint35_linear_306_526)"/>
<path d="M2.53736 16.5167L2.81573 16.5999C3.22849 16.7246 3.58045 17.003 3.79803 17.3742L4.19159 18.0493C4.40917 18.4237 4.76114 18.6989 5.17389 18.8236L5.92262 19.0476C6.33538 19.1724 6.68734 19.4508 6.90492 19.8219L7.29848 20.4971C7.51606 20.8714 7.86802 21.1466 8.28078 21.2714L9.02951 21.4954C9.44227 21.6202 9.79423 21.8985 10.0118 22.2697L10.4054 22.9448C10.623 23.3192 10.9749 23.5944 11.3877 23.7191L12.1364 23.9431C12.5492 24.0679 12.9011 24.3463 13.1187 24.7174L13.5123 25.3926C13.7298 25.7669 14.0818 26.0421 14.4946 26.1669L15.2433 26.3909C15.656 26.5157 16.008 26.794 16.2256 27.1652L16.3728 27.418C16.7247 28.0227 16.6735 28.7842 16.2384 29.3346L15.2273 30.6177C14.6449 31.3568 13.5699 31.4848 12.8307 30.9024L-0.0223872 20.7722C-0.761513 20.1899 -0.8895 19.1148 -0.307159 18.3757L0.703941 17.0926C1.1391 16.5455 1.86542 16.3151 2.53736 16.5167Z" fill="url(#paint36_linear_306_526)"/>
<path d="M3.78846 16.1647L4.04764 16.2991C4.4316 16.5007 4.72277 16.8398 4.86676 17.2462L5.12273 17.9821C5.26672 18.3917 5.55789 18.7308 5.94185 18.9292L6.63298 19.2908C7.01694 19.4924 7.30811 19.8315 7.4521 20.2379L7.70807 20.9738C7.85206 21.3834 8.14323 21.7225 8.52719 21.9209L9.21832 22.2825C9.60228 22.4841 9.89346 22.8232 10.0374 23.2296L10.2934 23.9655C10.4374 24.3751 10.7286 24.7142 11.1125 24.9126L11.8037 25.2742C12.1876 25.4758 12.4788 25.8149 12.6228 26.2213L12.8788 26.9572C13.0227 27.3668 13.3139 27.7059 13.6979 27.9043L14.389 28.2659C14.773 28.4675 15.0641 28.8066 15.2081 29.213L15.3041 29.4882C15.5345 30.1505 15.3393 30.8864 14.8082 31.344L13.5699 32.4095C12.8564 33.0238 11.7781 32.9438 11.1637 32.2303L0.463998 19.8571C-0.15034 19.1436 -0.0703491 18.0653 0.643179 17.451L1.88146 16.3823C2.4094 15.9247 3.16773 15.8383 3.78846 16.1647Z" fill="url(#paint37_linear_306_526)"/>
<path d="M1.68628 17.5438L1.96465 17.627C2.37741 17.7518 2.72938 18.0302 2.94696 18.4014L3.34052 19.0765C3.5581 19.4509 3.91006 19.726 4.32282 19.8508L5.07155 20.0748C5.4843 20.1996 5.83627 20.478 6.05385 20.8491L6.44741 21.5242C6.66499 21.8986 7.01695 22.1738 7.42971 22.2986L8.17843 22.5225C8.59119 22.6473 8.94316 22.9257 9.16074 23.2969L9.5543 23.972C9.77188 24.3464 10.1238 24.6215 10.5366 24.7463L11.2853 24.9703C11.6981 25.0951 12.05 25.3735 12.2676 25.7446L12.6612 26.4198C12.8788 26.7941 13.2307 27.0693 13.6435 27.1941L14.3922 27.4181C14.805 27.5428 15.1569 27.8212 15.3745 28.1924L15.5217 28.4452C15.8737 29.0499 15.8225 29.8114 15.3873 30.3618L14.3762 31.6448C13.7939 32.384 12.7188 32.512 11.9797 31.9296L-0.873461 21.8026C-1.61259 21.2203 -1.74057 20.1452 -1.15823 19.4061L-0.147135 18.123C0.288022 17.5726 1.01435 17.3423 1.68628 17.5438Z" fill="url(#paint38_linear_306_526)"/>
<path d="M0.102422 19.5564L0.380792 19.6396C0.793551 19.7644 1.14552 20.0428 1.36309 20.4139L1.75665 21.0891C1.97423 21.4634 2.3262 21.7386 2.73896 21.8634L3.48768 22.0874C3.90044 22.2122 4.25241 22.4905 4.46999 22.8617L4.86355 23.5368C5.08112 23.9112 5.43309 24.1864 5.84585 24.3111L6.59457 24.5351C7.00733 24.6599 7.3593 24.9383 7.57687 25.3094L7.97044 25.9846C8.18801 26.3589 8.53998 26.6341 8.95274 26.7589L9.70146 26.9829C10.1142 27.1077 10.4662 27.386 10.6838 27.7572L11.0773 28.4323C11.2949 28.8067 11.6469 29.0819 12.0596 29.2067L12.8084 29.4306C13.2211 29.5554 13.5731 29.8338 13.7907 30.205L13.9378 30.4577C14.2898 31.0625 14.2386 31.824 13.8035 32.3743L12.7924 33.6574C12.21 34.3965 11.1349 34.5245 10.3958 33.9422L-2.45732 23.8152C-3.19645 23.2329 -3.32444 22.1578 -2.7421 21.4186L-1.731 20.1356C-1.29584 19.5852 -0.569511 19.3548 0.102422 19.5564Z" fill="url(#paint39_linear_306_526)"/>
<path d="M-0.691097 20.5419L-0.412726 20.6251C3.31402e-05 20.7499 0.351998 21.0282 0.569577 21.3994L0.963137 22.0745C1.18072 22.4489 1.53268 22.7241 1.94544 22.8489L2.69417 23.0728C3.10692 23.1976 3.45889 23.476 3.67647 23.8472L4.07003 24.5223C4.28761 24.8967 4.63957 25.1718 5.05233 25.2966L5.80105 25.5206C6.21381 25.6454 6.56578 25.9238 6.78336 26.2949L7.17692 26.9701C7.3945 27.3444 7.74646 27.6196 8.15922 27.7444L8.90794 27.9683C9.3207 28.0931 9.67267 28.3715 9.89025 28.7427L10.2838 29.4178C10.5014 29.7922 10.8533 30.0673 11.2661 30.1921L12.0148 30.4161C12.4276 30.5409 12.7796 30.8193 12.9971 31.1904L13.1443 31.4432C13.4963 32.0479 13.4451 32.8095 13.0099 33.3598L11.9988 34.6429C11.4165 35.382 10.3414 35.51 9.60227 34.9277L-3.25084 24.8007C-3.98997 24.2183 -4.11796 23.1432 -3.53561 22.4041L-2.52451 21.121C-2.08936 20.5707 -1.36303 20.3403 -0.691097 20.5419Z" fill="url(#paint40_linear_306_526)"/>
<path d="M-1.48462 21.5274L-1.20624 21.6106C-0.793484 21.7353 -0.441519 22.0137 -0.22394 22.3849L0.16962 23.06C0.387198 23.4344 0.739163 23.7095 1.15192 23.8343L1.90065 24.0583C2.31341 24.1831 2.66537 24.4615 2.88295 24.8326L3.27651 25.5078C3.49409 25.8821 3.84605 26.1573 4.25881 26.2821L5.00754 26.5061C5.4203 26.6309 5.77226 26.9092 5.98984 27.2804L6.3834 27.9555C6.60098 28.3299 6.95294 28.6051 7.3657 28.7298L8.11443 28.9538C8.52718 29.0786 8.87915 29.357 9.09673 29.7281L9.49029 30.4033C9.70787 30.7776 10.0598 31.0528 10.4726 31.1776L11.2213 31.4016C11.6341 31.5264 11.986 31.8047 12.2036 32.1759L12.3508 32.4287C12.7028 33.0334 12.6516 33.7949 12.2164 34.3453L11.2053 35.6284C10.623 36.3675 9.54788 36.4955 8.80876 35.9131L-4.04436 25.7861C-4.78349 25.2038 -4.91147 24.1287 -4.32913 23.3896L-3.31803 22.1065C-2.88288 21.5562 -2.15655 21.3258 -1.48462 21.5274Z" fill="url(#paint41_linear_306_526)"/>
<path d="M-2.28137 22.5129L-2.003 22.5961C-1.59024 22.7209 -1.23827 22.9992 -1.02069 23.3704L-0.627133 24.0455C-0.409555 24.4199 -0.0575905 24.6951 0.355168 24.8199L1.10389 25.0438C1.51665 25.1686 1.86862 25.447 2.0862 25.8182L2.47976 26.4933C2.69734 26.8677 3.0493 27.1428 3.46206 27.2676L4.21078 27.4916C4.62354 27.6164 4.97551 27.8947 5.19309 28.2659L5.58665 28.941C5.80422 29.3154 6.15619 29.5906 6.56895 29.7154L7.31767 29.9393C7.73043 30.0641 8.0824 30.3425 8.29997 30.7137L8.69354 31.3888C8.91111 31.7632 9.26308 32.0383 9.67584 32.1631L10.4246 32.3871C10.8373 32.5119 11.1893 32.7903 11.4069 33.1614L11.554 33.4142C11.906 34.0189 11.8548 34.7805 11.4197 35.3308L10.4086 36.6139C9.82622 37.353 8.75113 37.481 8.012 36.8986L-4.84111 26.7685C-5.58024 26.1861 -5.70823 25.111 -5.12588 24.3719L-4.11478 23.0888C-3.67643 22.5417 -2.9533 22.3113 -2.28137 22.5129Z" fill="url(#paint42_linear_306_526)"/>
<path d="M-3.07489 23.4984L-2.79651 23.5815C-2.38376 23.7063 -2.03179 23.9847 -1.81421 24.3559L-1.42065 25.031C-1.20307 25.4054 -0.851109 25.6805 -0.43835 25.8053L0.310376 26.0293C0.723135 26.1541 1.0751 26.4325 1.29268 26.8036L1.68624 27.4788C1.90382 27.8531 2.25578 28.1283 2.66854 28.2531L3.41726 28.4771C3.83002 28.6018 4.18199 28.8802 4.39957 29.2514L4.79313 29.9265C5.01071 30.3009 5.36267 30.5761 5.77543 30.7008L6.52415 30.9248C6.93691 31.0496 7.28888 31.328 7.50646 31.6991L7.90002 32.3743C8.11759 32.7486 8.46956 33.0238 8.88232 33.1486L9.63105 33.3726C10.0438 33.4974 10.3958 33.7757 10.6133 34.1469L10.7605 34.3997C11.1125 35.0044 11.0613 35.7659 10.6261 36.3163L9.61505 37.5993C9.03271 38.3385 7.95761 38.4665 7.21848 37.8841L-5.63463 27.7539C-6.37376 27.1716 -6.50174 26.0965 -5.9194 25.3574L-4.9083 24.0743C-4.47315 23.5272 -3.74682 23.2968 -3.07489 23.4984Z" fill="url(#paint43_linear_306_526)"/>
<path d="M-3.8684 24.4839L-3.59003 24.5671C-3.17727 24.6919 -2.82531 24.9702 -2.60773 25.3414L-2.21417 26.0165C-1.99659 26.3909 -1.64463 26.6661 -1.23187 26.7909L-0.483142 27.0148C-0.0703831 27.1396 0.281581 27.418 0.499159 27.7892L0.89272 28.4643C1.1103 28.8387 1.46226 29.1138 1.87502 29.2386L2.62375 29.4626C3.03651 29.5874 3.38847 29.8658 3.60605 30.2369L3.99961 30.912C4.21719 31.2864 4.56915 31.5616 4.98191 31.6864L5.73064 31.9103C6.1434 32.0351 6.49536 32.3135 6.71294 32.6847L7.1065 33.3598C7.32408 33.7342 7.67604 34.0093 8.0888 34.1341L8.83753 34.3581C9.25029 34.4829 9.60225 34.7613 9.81983 35.1324L9.96701 35.3852C10.319 35.9899 10.2678 36.7515 9.83263 37.3018L8.82153 38.5849C8.23919 39.324 7.16409 39.452 6.42497 38.8697L-6.42815 28.7395C-7.16728 28.1571 -7.29526 27.082 -6.71292 26.3429L-5.70182 25.0598C-5.26666 24.5095 -4.54034 24.2823 -3.8684 24.4839Z" fill="url(#paint44_linear_306_526)"/>
<path d="M-4.6651 25.4694L-4.38672 25.5526C-3.97396 25.6773 -3.622 25.9557 -3.40442 26.3269L-3.01086 27.002C-2.79328 27.3764 -2.44132 27.6515 -2.02856 27.7763L-1.27983 28.0003C-0.867075 28.1251 -0.51511 28.4035 -0.297533 28.7746L0.0960288 29.4498C0.313607 29.8241 0.665572 30.0993 1.07833 30.2241L1.82705 30.4481C2.23981 30.5729 2.59178 30.8512 2.80936 31.2224L3.20292 31.8975C3.4205 32.2719 3.77246 32.5471 4.18522 32.6718L4.93395 32.8958C5.3467 33.0206 5.69867 33.299 5.91625 33.6701L6.30981 34.3453C6.52739 34.7196 6.87935 34.9948 7.29211 35.1196L8.04084 35.3436C8.45359 35.4684 8.80556 35.7467 9.02314 36.1179L9.17032 36.3707C9.52229 36.9754 9.47109 37.7369 9.03593 38.2873L8.02484 39.5704C7.4425 40.3095 6.3674 40.4375 5.62827 39.8551L-7.22484 29.7249C-7.96397 29.1426 -8.09195 28.0675 -7.50961 27.3284L-6.49851 26.0453C-6.06016 25.495 -5.33383 25.2678 -4.6651 25.4694Z" fill="url(#paint45_linear_306_526)"/>
</g>
<defs>
<linearGradient id="paint0_linear_306_526" x1="8.81952" y1="15.997" x2="25.1214" y2="15.997" gradientUnits="userSpaceOnUse">
<stop stop-color="#3105B5"/>
<stop offset="0.173" stop-color="#3406B4"/>
<stop offset="0.3169" stop-color="#3F08B1"/>
<stop offset="0.4502" stop-color="#500BAD"/>
<stop offset="0.5772" stop-color="#6810A6"/>
<stop offset="0.6998" stop-color="#88169E"/>
<stop offset="0.8191" stop-color="#AE1D94"/>
<stop offset="0.9335" stop-color="#DB2688"/>
<stop offset="1" stop-color="#F92C80"/>
</linearGradient>
<linearGradient id="paint1_linear_306_526" x1="20.3679" y1="7.7726" x2="23.5329" y2="3.7046" gradientUnits="userSpaceOnUse">
<stop stop-color="#C40561"/>
<stop offset="0.222" stop-color="#C50861"/>
<stop offset="0.4003" stop-color="#CA1261"/>
<stop offset="0.5634" stop-color="#D12362"/>
<stop offset="0.7174" stop-color="#DC3B63"/>
<stop offset="0.8637" stop-color="#E95964"/>
<stop offset="1" stop-color="#F97D65"/>
</linearGradient>
<linearGradient id="paint2_linear_306_526" x1="19.6046" y1="8.72686" x2="22.7737" y2="4.66247" gradientUnits="userSpaceOnUse">
<stop stop-color="#313EC0"/>
<stop offset="0.2133" stop-color="#3343C4"/>
<stop offset="0.4627" stop-color="#3751D0"/>
<stop offset="0.73" stop-color="#3F69E4"/>
<stop offset="1" stop-color="#4A88FF"/>
</linearGradient>
<linearGradient id="paint3_linear_306_526" x1="18.8402" y1="9.68565" x2="22.014" y2="5.62487" gradientUnits="userSpaceOnUse">
<stop stop-color="#34B5FF"/>
<stop offset="0.3038" stop-color="#3383EA"/>
<stop offset="0.9952" stop-color="#3106B5"/>
<stop offset="1" stop-color="#3105B5"/>
</linearGradient>
<linearGradient id="paint4_linear_306_526" x1="20.3558" y1="14.6299" x2="23.2883" y2="3.6841" gradientUnits="userSpaceOnUse">
<stop stop-color="#34B5FF"/>
<stop offset="0.1887" stop-color="#3392F0"/>
<stop offset="0.749" stop-color="#322DC6"/>
<stop offset="1" stop-color="#3105B5"/>
</linearGradient>
<linearGradient id="paint5_linear_306_526" x1="17.2397" y1="14.647" x2="20.5122" y2="4.57598" gradientUnits="userSpaceOnUse">
<stop offset="0.22" stop-color="#2449EC"/>
<stop offset="0.3392" stop-color="#254FED"/>
<stop offset="0.4984" stop-color="#2960F0"/>
<stop offset="0.6801" stop-color="#307CF4"/>
<stop offset="0.8772" stop-color="#39A2FA"/>
<stop offset="1" stop-color="#3FBEFF"/>
</linearGradient>
<linearGradient id="paint6_linear_306_526" x1="9.35174" y1="-0.0221444" x2="22.1209" y2="15.1954" gradientUnits="userSpaceOnUse">
<stop stop-color="#3105B5"/>
<stop offset="0.1574" stop-color="#3506B4"/>
<stop offset="0.3" stop-color="#4008B1"/>
<stop offset="0.437" stop-color="#520BAC"/>
<stop offset="0.5706" stop-color="#6C11A5"/>
<stop offset="0.7016" stop-color="#8E179C"/>
<stop offset="0.8308" stop-color="#B71F92"/>
<stop offset="0.956" stop-color="#E62885"/>
<stop offset="1" stop-color="#F92C80"/>
</linearGradient>
<linearGradient id="paint7_linear_306_526" x1="16.7097" y1="14.8912" x2="19.8999" y2="6.70819" gradientUnits="userSpaceOnUse">
<stop stop-color="#D80832"/>
<stop offset="0.1643" stop-color="#D80A36"/>
<stop offset="0.3328" stop-color="#D91042"/>
<stop offset="0.5033" stop-color="#DB1957"/>
<stop offset="0.6752" stop-color="#DD2774"/>
<stop offset="0.8465" stop-color="#DF3898"/>
<stop offset="1" stop-color="#E24AC0"/>
</linearGradient>
<linearGradient id="paint8_linear_306_526" x1="12.0487" y1="12.5451" x2="22.8964" y2="8.59717" gradientUnits="userSpaceOnUse">
<stop offset="0.25" stop-color="#2449EC"/>
<stop offset="0.7219" stop-color="#3591F8"/>
<stop offset="1" stop-color="#3FBEFF"/>
</linearGradient>
<linearGradient id="paint9_linear_306_526" x1="15.5111" y1="14.7285" x2="19.2351" y2="8.27815" gradientUnits="userSpaceOnUse">
<stop stop-color="#D80832"/>
<stop offset="0.241" stop-color="#D90B35"/>
<stop offset="0.4413" stop-color="#DE163F"/>
<stop offset="0.627" stop-color="#E52750"/>
<stop offset="0.8039" stop-color="#EF3F67"/>
<stop offset="0.9731" stop-color="#FD5E86"/>
<stop offset="1" stop-color="#FF648B"/>
</linearGradient>
<linearGradient id="paint10_linear_306_526" x1="8.34254" y1="11.6536" x2="19.6853" y2="7.52464" gradientUnits="userSpaceOnUse">
<stop stop-color="#2449EC"/>
<stop offset="0.3043" stop-color="#2D70F2"/>
<stop offset="0.7732" stop-color="#3AA8FB"/>
<stop offset="1" stop-color="#3FBEFF"/>
</linearGradient>
<linearGradient id="paint11_linear_306_526" x1="15.6573" y1="18.7659" x2="17.8457" y2="6.35423" gradientUnits="userSpaceOnUse">
<stop stop-color="#D80832"/>
<stop offset="0.1723" stop-color="#DA0D35"/>
<stop offset="0.3769" stop-color="#DF1B3F"/>
<stop offset="0.5979" stop-color="#E8334F"/>
<stop offset="0.8288" stop-color="#F45465"/>
<stop offset="1" stop-color="#FF7279"/>
</linearGradient>
<linearGradient id="paint12_linear_306_526" x1="7.226" y1="12.0711" x2="19.5132" y2="8.77811" gradientUnits="userSpaceOnUse">
<stop stop-color="#3105B5"/>
<stop offset="0.1045" stop-color="#3806B3"/>
<stop offset="0.2544" stop-color="#4B0AAE"/>
<stop offset="0.4319" stop-color="#6A10A6"/>
<stop offset="0.6305" stop-color="#95199A"/>
<stop offset="0.8439" stop-color="#CC238C"/>
<stop offset="1" stop-color="#F92C80"/>
</linearGradient>
<linearGradient id="paint13_linear_306_526" x1="14.3084" y1="19.0832" x2="17.2534" y2="8.09213" gradientUnits="userSpaceOnUse">
<stop stop-color="#D80832"/>
<stop offset="0.1787" stop-color="#DA0D34"/>
<stop offset="0.3994" stop-color="#E01C3A"/>
<stop offset="0.6422" stop-color="#EA3644"/>
<stop offset="0.8992" stop-color="#F95853"/>
<stop offset="1" stop-color="#FF6859"/>
</linearGradient>
<linearGradient id="paint14_linear_306_526" x1="6.83181" y1="13.0531" x2="23.8865" y2="14.5458" gradientUnits="userSpaceOnUse">
<stop stop-color="#3105B5"/>
<stop offset="0.0627935" stop-color="#4008B1"/>
<stop offset="0.4028" stop-color="#8F179C"/>
<stop offset="0.6831" stop-color="#C8228D"/>
<stop offset="0.8896" stop-color="#EC2984"/>
<stop offset="1" stop-color="#F92C80"/>
</linearGradient>
<linearGradient id="paint15_linear_306_526" x1="13.3533" y1="19.6627" x2="16.6352" y2="9.56156" gradientUnits="userSpaceOnUse">
<stop stop-color="#D80832"/>
<stop offset="0.1707" stop-color="#DB0F35"/>
<stop offset="0.4128" stop-color="#E2213C"/>
<stop offset="0.6977" stop-color="#EF4049"/>
<stop offset="1" stop-color="#FF6859"/>
</linearGradient>
<linearGradient id="paint16_linear_306_526" x1="5.3742" y1="10.5214" x2="22.9077" y2="18.6967" gradientUnits="userSpaceOnUse">
<stop stop-color="#3105B5"/>
<stop offset="0.0380933" stop-color="#3D07B2"/>
<stop offset="0.2267" stop-color="#7612A3"/>
<stop offset="0.4096" stop-color="#A51C96"/>
<stop offset="0.5827" stop-color="#C9238D"/>
<stop offset="0.7435" stop-color="#E42886"/>
<stop offset="0.8874" stop-color="#F32B81"/>
<stop offset="1" stop-color="#F92C80"/>
</linearGradient>
<linearGradient id="paint17_linear_306_526" x1="6.64343" y1="9.23242" x2="21.8319" y2="21.9769" gradientUnits="userSpaceOnUse">
<stop stop-color="#D80832"/>
<stop offset="0.1809" stop-color="#E5273F"/>
<stop offset="0.3864" stop-color="#F0444A"/>
<stop offset="0.5924" stop-color="#F85852"/>
<stop offset="0.7973" stop-color="#FD6457"/>
<stop offset="1" stop-color="#FF6859"/>
</linearGradient>
<linearGradient id="paint18_linear_306_526" x1="15.8342" y1="21.2877" x2="18.584" y2="15.3903" gradientUnits="userSpaceOnUse">
<stop stop-color="#3105B5"/>
<stop offset="0.1026" stop-color="#3806B3"/>
<stop offset="0.2568" stop-color="#4D0AAE"/>
<stop offset="0.4436" stop-color="#6F11A5"/>
<stop offset="0.6558" stop-color="#9E1A98"/>
<stop offset="0.8864" stop-color="#D92688"/>
<stop offset="1" stop-color="#F92C80"/>
</linearGradient>
<linearGradient id="paint19_linear_306_526" x1="11.7049" y1="19.1171" x2="15.1841" y2="14.1482" gradientUnits="userSpaceOnUse">
<stop stop-color="#3105B5"/>
<stop offset="0.155" stop-color="#3228C4"/>
<stop offset="0.4465" stop-color="#3364DD"/>
<stop offset="0.6948" stop-color="#3390EF"/>
<stop offset="0.8871" stop-color="#34ABFB"/>
<stop offset="1" stop-color="#34B5FF"/>
</linearGradient>
<linearGradient id="paint20_linear_306_526" x1="7.05305" y1="18.7545" x2="18.5027" y2="14.5872" gradientUnits="userSpaceOnUse">
<stop stop-color="#D80832"/>
<stop offset="0.271" stop-color="#E11D46"/>
<stop offset="0.8272" stop-color="#F7527A"/>
<stop offset="1" stop-color="#FF648B"/>
</linearGradient>
<linearGradient id="paint21_linear_306_526" x1="11.7942" y1="20.8528" x2="14.1168" y2="14.4716" gradientUnits="userSpaceOnUse">
<stop stop-color="#3105B5"/>
<stop offset="0.1066" stop-color="#3706B3"/>
<stop offset="0.254" stop-color="#490AAF"/>
<stop offset="0.4252" stop-color="#670FA7"/>
<stop offset="0.6144" stop-color="#8F179C"/>
<stop offset="0.8157" stop-color="#C3218E"/>
<stop offset="1" stop-color="#F92C80"/>
</linearGradient>
<linearGradient id="paint22_linear_306_526" x1="10.7797" y1="21.6665" x2="14.4987" y2="13.6911" gradientUnits="userSpaceOnUse">
<stop stop-color="#3105B5"/>
<stop offset="0.155" stop-color="#3228C4"/>
<stop offset="0.4465" stop-color="#3364DD"/>
<stop offset="0.6948" stop-color="#3390EF"/>
<stop offset="0.8871" stop-color="#34ABFB"/>
<stop offset="1" stop-color="#34B5FF"/>
</linearGradient>
<linearGradient id="paint23_linear_306_526" x1="5.12428" y1="19.1069" x2="18.425" y2="16.2798" gradientUnits="userSpaceOnUse">
<stop stop-color="#D80832"/>
<stop offset="0.1321" stop-color="#D80B39"/>
<stop offset="0.3182" stop-color="#DA144B"/>
<stop offset="0.5363" stop-color="#DC2269"/>
<stop offset="0.7765" stop-color="#DF3593"/>
<stop offset="1" stop-color="#E24AC0"/>
</linearGradient>
<linearGradient id="paint24_linear_306_526" x1="10.9439" y1="23.0357" x2="13.114" y2="14.9377" gradientUnits="userSpaceOnUse">
<stop stop-color="#3105B5"/>
<stop offset="0.1509" stop-color="#3506B4"/>
<stop offset="0.2932" stop-color="#4008B1"/>
<stop offset="0.432" stop-color="#530CAC"/>
<stop offset="0.5686" stop-color="#6E11A5"/>
<stop offset="0.7038" stop-color="#90189C"/>
<stop offset="0.8378" stop-color="#BB2090"/>
<stop offset="0.9685" stop-color="#EC2983"/>
<stop offset="1" stop-color="#F92C80"/>
</linearGradient>
<linearGradient id="paint25_linear_306_526" x1="9.99211" y1="22.694" x2="13.711" y2="14.7186" gradientUnits="userSpaceOnUse">
<stop stop-color="#3105B5"/>
<stop offset="0.0728146" stop-color="#311DBF"/>
<stop offset="0.2326" stop-color="#324BD2"/>
<stop offset="0.3928" stop-color="#3371E2"/>
<stop offset="0.551" stop-color="#338FEF"/>
<stop offset="0.7062" stop-color="#34A4F8"/>
<stop offset="0.8575" stop-color="#34B1FD"/>
<stop offset="1" stop-color="#34B5FF"/>
</linearGradient>
<linearGradient id="paint26_linear_306_526" x1="6.21654" y1="10.8952" x2="16.0429" y2="27.9172" gradientUnits="userSpaceOnUse">
<stop stop-color="#3105B5"/>
<stop offset="0.1422" stop-color="#650FA7"/>
<stop offset="0.2868" stop-color="#92189B"/>
<stop offset="0.4328" stop-color="#B71F92"/>
<stop offset="0.5777" stop-color="#D4258A"/>
<stop offset="0.7212" stop-color="#E82984"/>
<stop offset="0.8627" stop-color="#F52B81"/>
<stop offset="1" stop-color="#F92C80"/>
</linearGradient>
<linearGradient id="paint27_linear_306_526" x1="9.2045" y1="23.7216" x2="12.9234" y2="15.7462" gradientUnits="userSpaceOnUse">
<stop stop-color="#3105B5"/>
<stop offset="0.0705151" stop-color="#3115BC"/>
<stop offset="0.3998" stop-color="#3259D8"/>
<stop offset="0.6754" stop-color="#338BED"/>
<stop offset="0.8835" stop-color="#34A9FA"/>
<stop offset="1" stop-color="#34B5FF"/>
</linearGradient>
<linearGradient id="paint28_linear_306_526" x1="2.58374" y1="9.056" x2="12.4572" y2="26.1563" gradientUnits="userSpaceOnUse">
<stop stop-color="#3105B5"/>
<stop offset="0.1294" stop-color="#3506B4"/>
<stop offset="0.2709" stop-color="#4308B0"/>
<stop offset="0.4181" stop-color="#580DAB"/>
<stop offset="0.5693" stop-color="#7713A2"/>
<stop offset="0.7235" stop-color="#9F1A98"/>
<stop offset="0.878" stop-color="#CE248B"/>
<stop offset="1" stop-color="#F92C80"/>
</linearGradient>
<linearGradient id="paint29_linear_306_526" x1="3.9639" y1="23.0748" x2="16.5712" y2="18.4861" gradientUnits="userSpaceOnUse">
<stop stop-color="#3105B5"/>
<stop offset="0.0515839" stop-color="#310FB9"/>
<stop offset="0.5163" stop-color="#3368DF"/>
<stop offset="0.8428" stop-color="#349FF6"/>
<stop offset="1" stop-color="#34B5FF"/>
</linearGradient>
<linearGradient id="paint30_linear_306_526" x1="8.32993" y1="25.0922" x2="11.861" y2="17.5196" gradientUnits="userSpaceOnUse">
<stop stop-color="#D80832"/>
<stop offset="0.1505" stop-color="#D80A37"/>
<stop offset="0.3217" stop-color="#D91144"/>
<stop offset="0.5031" stop-color="#DB1B5B"/>
<stop offset="0.6916" stop-color="#DD2A7B"/>
<stop offset="0.8836" stop-color="#E03DA4"/>
<stop offset="1" stop-color="#E24AC0"/>
</linearGradient>
<linearGradient id="paint31_linear_306_526" x1="4.23264" y1="23.6737" x2="15.4475" y2="19.5918" gradientUnits="userSpaceOnUse">
<stop stop-color="#3105B5"/>
<stop offset="0.2305" stop-color="#3229C4"/>
<stop offset="0.7397" stop-color="#3384EA"/>
<stop offset="1" stop-color="#34B5FF"/>
</linearGradient>
<linearGradient id="paint32_linear_306_526" x1="2.95021" y1="23.9505" x2="16.1377" y2="19.6655" gradientUnits="userSpaceOnUse">
<stop stop-color="#3105B5"/>
<stop offset="0.173" stop-color="#3406B4"/>
<stop offset="0.3169" stop-color="#3F08B1"/>
<stop offset="0.4502" stop-color="#500BAD"/>
<stop offset="0.5772" stop-color="#6810A6"/>
<stop offset="0.6998" stop-color="#88169E"/>
<stop offset="0.8191" stop-color="#AE1D94"/>
<stop offset="0.9335" stop-color="#DB2688"/>
<stop offset="1" stop-color="#F92C80"/>
</linearGradient>
<linearGradient id="paint33_linear_306_526" x1="7.7992" y1="25.5565" x2="10.4735" y2="20.5268" gradientUnits="userSpaceOnUse">
<stop stop-color="#3105B5"/>
<stop offset="0.231" stop-color="#3406B4"/>
<stop offset="0.3779" stop-color="#3C07B2"/>
<stop offset="0.5014" stop-color="#4B0AAE"/>
<stop offset="0.612" stop-color="#600EA9"/>
<stop offset="0.7138" stop-color="#7B13A1"/>
<stop offset="0.8094" stop-color="#9C1A99"/>
<stop offset="0.9" stop-color="#C3228E"/>
<stop offset="0.9845" stop-color="#F02A82"/>
<stop offset="1" stop-color="#F92C80"/>
</linearGradient>
<linearGradient id="paint34_linear_306_526" x1="6.97899" y1="25.2823" x2="10.4582" y2="20.3135" gradientUnits="userSpaceOnUse">
<stop stop-color="#3105B5"/>
<stop offset="0.1529" stop-color="#3109B7"/>
<stop offset="0.3039" stop-color="#3115BC"/>
<stop offset="0.4542" stop-color="#3229C4"/>
<stop offset="0.6042" stop-color="#3245D0"/>
<stop offset="0.754" stop-color="#3368DF"/>
<stop offset="0.9015" stop-color="#3394F1"/>
<stop offset="1" stop-color="#34B5FF"/>
</linearGradient>
<linearGradient id="paint35_linear_306_526" x1="3.39847" y1="14.6119" x2="13.2978" y2="31.7583" gradientUnits="userSpaceOnUse">
<stop stop-color="#3105B5"/>
<stop offset="0.1414" stop-color="#3506B4"/>
<stop offset="0.2831" stop-color="#4108B1"/>
<stop offset="0.425" stop-color="#550CAB"/>
<stop offset="0.5671" stop-color="#7112A4"/>
<stop offset="0.7095" stop-color="#96199A"/>
<stop offset="0.852" stop-color="#C2218F"/>
<stop offset="0.9923" stop-color="#F62B81"/>
<stop offset="1" stop-color="#F92C80"/>
</linearGradient>
<linearGradient id="paint36_linear_306_526" x1="6.11786" y1="27.8317" x2="9.83679" y2="19.8562" gradientUnits="userSpaceOnUse">
<stop offset="0.0963742" stop-color="#3105B5"/>
<stop offset="0.2339" stop-color="#3109B7"/>
<stop offset="0.3704" stop-color="#3115BC"/>
<stop offset="0.5065" stop-color="#3229C4"/>
<stop offset="0.6424" stop-color="#3245D0"/>
<stop offset="0.7783" stop-color="#3369DF"/>
<stop offset="0.9122" stop-color="#3394F1"/>
<stop offset="1" stop-color="#34B5FF"/>
</linearGradient>
<linearGradient id="paint37_linear_306_526" x1="2.7946" y1="15.8227" x2="12.6958" y2="32.9714" gradientUnits="userSpaceOnUse">
<stop stop-color="#3105B5"/>
<stop offset="0.2214" stop-color="#3108B6"/>
<stop offset="0.3745" stop-color="#3111BA"/>
<stop offset="0.507" stop-color="#3120C0"/>
<stop offset="0.6278" stop-color="#3236CA"/>
<stop offset="0.7407" stop-color="#3252D5"/>
<stop offset="0.8476" stop-color="#3375E4"/>
<stop offset="0.948" stop-color="#349DF5"/>
<stop offset="1" stop-color="#34B5FF"/>
</linearGradient>
<linearGradient id="paint38_linear_306_526" x1="5.25405" y1="28.3941" x2="9.00655" y2="21.3366" gradientUnits="userSpaceOnUse">
<stop stop-color="#3105B5"/>
<stop offset="0.2824" stop-color="#3107B6"/>
<stop offset="0.4354" stop-color="#310FB9"/>
<stop offset="0.5575" stop-color="#311DBF"/>
<stop offset="0.6632" stop-color="#3230C7"/>
<stop offset="0.7583" stop-color="#3249D2"/>
<stop offset="0.8458" stop-color="#3368DF"/>
<stop offset="0.9259" stop-color="#338CEE"/>
<stop offset="1" stop-color="#34B5FF"/>
</linearGradient>
<linearGradient id="paint39_linear_306_526" x1="3.97241" y1="28.885" x2="7.16372" y2="24.8376" gradientUnits="userSpaceOnUse">
<stop stop-color="#2F3CCA"/>
<stop offset="0.4479" stop-color="#445AD6"/>
<stop offset="1" stop-color="#6285E6"/>
</linearGradient>
<linearGradient id="paint40_linear_306_526" x1="3.17789" y1="29.8704" x2="6.3692" y2="25.823" gradientUnits="userSpaceOnUse">
<stop stop-color="#3639C5"/>
<stop offset="0.3372" stop-color="#454ECD"/>
<stop offset="1" stop-color="#6B82E0"/>
</linearGradient>
<linearGradient id="paint41_linear_306_526" x1="2.38337" y1="30.8558" x2="5.57469" y2="26.8084" gradientUnits="userSpaceOnUse">
<stop stop-color="#3D35C0"/>
<stop offset="0.2776" stop-color="#4945C5"/>
<stop offset="0.8198" stop-color="#686FD4"/>
<stop offset="1" stop-color="#747FD9"/>
</linearGradient>
<linearGradient id="paint42_linear_306_526" x1="1.58882" y1="31.8412" x2="4.78013" y2="27.7938" gradientUnits="userSpaceOnUse">
<stop stop-color="#4432BB"/>
<stop offset="0.2455" stop-color="#4E3FBF"/>
<stop offset="0.6998" stop-color="#6962CA"/>
<stop offset="1" stop-color="#7D7CD2"/>
</linearGradient>
<linearGradient id="paint43_linear_306_526" x1="0.7943" y1="32.8265" x2="3.98561" y2="28.7792" gradientUnits="userSpaceOnUse">
<stop stop-color="#4B2FB6"/>
<stop offset="0.226" stop-color="#543AB9"/>
<stop offset="0.6218" stop-color="#6B57C1"/>
<stop offset="1" stop-color="#8579CB"/>
</linearGradient>
<linearGradient id="paint44_linear_306_526" x1="-0.000217919" y1="33.812" x2="3.1911" y2="29.7646" gradientUnits="userSpaceOnUse">
<stop stop-color="#522CB1"/>
<stop offset="0.214" stop-color="#5A35B4"/>
<stop offset="0.5701" stop-color="#6E4FBA"/>
<stop offset="1" stop-color="#8E76C5"/>
</linearGradient>
<linearGradient id="paint45_linear_306_526" x1="-0.794714" y1="34.7973" x2="2.3966" y2="30.75" gradientUnits="userSpaceOnUse">
<stop stop-color="#5928AC"/>
<stop offset="0.205" stop-color="#6030AE"/>
<stop offset="0.5277" stop-color="#7247B3"/>
<stop offset="0.9258" stop-color="#916BBC"/>
<stop offset="1" stop-color="#9773BE"/>
</linearGradient>
</defs>
</svg>
