<svg viewBox="0 0 32 32" fill="none" xmlns="http://www.w3.org/2000/svg">
<rect x="1" y="1" width="30" height="30" rx="8" fill="white"/>
<path fill-rule="evenodd" clip-rule="evenodd" d="M0.871948 4.36808C0 6.07937 0 8.31958 0 12.8V19.2C0 23.6804 0 25.9206 0.871948 27.6319C1.63893 29.1372 2.86278 30.3611 4.36808 31.1281C6.07937 32 8.31958 32 12.8 32H19.2C23.6804 32 25.9206 32 27.6319 31.1281C29.1372 30.3611 30.3611 29.1372 31.1281 27.6319C32 25.9206 32 23.6804 32 19.2V12.8C32 8.31958 32 6.07937 31.1281 4.36808C30.3611 2.86278 29.1372 1.63893 27.6319 0.871948C25.9206 0 23.6804 0 19.2 0H12.8C8.31958 0 6.07937 0 4.36808 0.871948C2.86278 1.63893 1.63893 2.86278 0.871948 4.36808ZM18.2676 12H17.0871L17.0796 12.0139V12H8.16564L4 19.6916H12.9215L17.0796 12.0139V19.703H18.2066V18.9377H18.2257C18.5836 19.6725 19.3642 19.8553 20.0953 19.8553C21.6907 19.8553 22.4218 18.4426 22.4218 16.9424C22.4218 15.3127 21.5993 13.9724 19.8973 13.9724C19.2918 13.9724 18.6141 14.3075 18.2904 14.8482H18.2676V12ZM18.2295 16.9234C18.2295 15.7354 18.7397 14.9472 19.7411 14.9472C20.7235 14.9472 21.2338 15.9067 21.2338 16.9234C21.2338 17.8943 20.8263 18.8881 19.7411 18.8881C18.7816 18.8881 18.2295 18.0466 18.2295 16.9234ZM26.8119 15.9943C26.7167 15.3127 26.237 14.9471 25.5782 14.9471C24.9614 14.9471 24.097 15.2822 24.097 16.9766C24.097 17.9057 24.493 18.8881 25.5249 18.8881C26.2141 18.8881 26.6939 18.4122 26.8081 17.6125H27.9961C27.7753 19.0595 26.9109 19.8591 25.5249 19.8591C23.8343 19.8591 22.9052 18.6178 22.9052 16.9766C22.9052 15.2936 23.7924 13.9762 25.5668 13.9762C26.8195 13.9762 27.8819 14.6235 27.9999 15.9943H26.8119Z" fill="#60909A"/>
</svg>
