<svg width="414" height="72" viewBox="0 0 414 72" fill="none" xmlns="http://www.w3.org/2000/svg">
<path d="M25.877 45.2078V65.9998H0V6.90078H25.877V27.9188L37.29 6.90078H63.506L47.347 33.7948L64.749 65.9998H36.386L25.877 45.2078Z" fill="black"/>
<path d="M70.7804 6.90078H109.878C117.035 6.90078 122.195 8.36978 125.359 11.3078C128.599 14.2458 130.218 17.9748 130.218 22.4948V22.8338C130.218 29.8398 126.715 34.0961 119.709 35.6028C123.175 36.0548 126 37.4484 128.184 39.7838C130.369 42.1191 131.461 45.2831 131.461 49.2758V49.6148C131.461 60.5381 123.966 65.9998 108.974 65.9998H70.7804V6.90078ZM95.8664 20.9128V29.3878H100.386C103.626 29.3878 105.245 28.0694 105.245 25.4328V25.0938C105.245 22.3064 103.626 20.9128 100.386 20.9128H95.8664ZM95.8664 41.8178V51.8748H100.047C103.739 51.8748 105.584 50.2551 105.584 47.0158V46.6768C105.584 43.4374 103.663 41.8178 99.8214 41.8178H95.8664Z" fill="black"/>
<path d="M199.346 65.9998H174.486V59.3328C171.247 64.8321 165.559 67.5818 157.423 67.5818C151.698 67.5818 146.914 66.1128 143.072 63.1748C139.23 60.1614 137.309 55.6414 137.309 49.6148C137.309 42.6841 139.87 37.7498 144.993 34.8118C150.191 31.7984 158.402 30.2918 169.627 30.2918H173.808V29.9528C173.808 28.3708 173.733 27.1654 173.582 26.3368C173.431 25.4328 172.942 24.6041 172.113 23.8508C171.284 23.0221 170.079 22.6078 168.497 22.6078C165.634 22.6078 163.902 24.3028 163.299 27.6928H139.343C139.72 20.4608 142.582 14.8861 147.931 10.9688C153.355 7.05144 160.738 5.09277 170.079 5.09277C189.59 5.09277 199.346 12.7391 199.346 28.0318V65.9998ZM173.808 43.3998H169.853C166.915 43.3998 164.994 43.7011 164.09 44.3038C163.186 44.8311 162.734 45.8481 162.734 47.3548C162.734 49.5394 164.316 50.6318 167.48 50.6318C169.363 50.6318 170.87 50.1421 172 49.1628C173.205 48.1081 173.808 46.8274 173.808 45.3208V43.3998Z" fill="black"/>
<path d="M236.371 38.0888C235.919 48.4848 234.149 55.9051 231.06 60.3498C228.047 64.7944 222.774 67.0168 215.24 67.0168C212.83 67.0168 210.796 66.8284 209.138 66.4518L206.991 65.7738V49.0498L207.669 49.3888C208.423 49.5394 209.138 49.6148 209.816 49.6148C211.624 49.6148 212.867 48.7108 213.545 46.9028C214.299 45.0948 214.788 42.0438 215.014 37.7498C215.316 31.9491 215.542 25.2821 215.692 17.7488L215.918 6.90078H269.367V65.9998H243.603V25.4328H236.823C236.673 32.5141 236.522 36.7328 236.371 38.0888Z" fill="black"/>
<path d="M279.701 65.9998V6.90078H305.126V34.5858L318.686 6.90078H343.207V65.9998H317.782V38.7668L304.222 65.9998H279.701Z" fill="black"/>
<path d="M413.011 65.9998H388.151V59.3328C384.912 64.8321 379.224 67.5818 371.088 67.5818C365.363 67.5818 360.579 66.1128 356.737 63.1748C352.895 60.1614 350.974 55.6414 350.974 49.6148C350.974 42.6841 353.536 37.7498 358.658 34.8118C363.856 31.7984 372.068 30.2918 383.292 30.2918H387.473V29.9528C387.473 28.3708 387.398 27.1654 387.247 26.3368C387.097 25.4328 386.607 24.6041 385.778 23.8508C384.95 23.0221 383.744 22.6078 382.162 22.6078C379.3 22.6078 377.567 24.3028 376.964 27.6928H353.008C353.385 20.4608 356.248 14.8861 361.596 10.9688C367.02 7.05144 374.403 5.09277 383.744 5.09277C403.256 5.09277 413.011 12.7391 413.011 28.0318V65.9998ZM387.473 43.3998H383.518C380.58 43.3998 378.659 43.7011 377.755 44.3038C376.851 44.8311 376.399 45.8481 376.399 47.3548C376.399 49.5394 377.981 50.6318 381.145 50.6318C383.029 50.6318 384.535 50.1421 385.665 49.1628C386.871 48.1081 387.473 46.8274 387.473 45.3208V43.3998Z" fill="black"/>
</svg>
