<svg width="20" height="20" viewBox="0 0 20 20" fill="none" xmlns="http://www.w3.org/2000/svg">
<path fill-rule="evenodd" clip-rule="evenodd" d="M18.125 1.125V1.5L18.125 6.99976L18.125 7.37476L17.375 7.37476V6.99976V2.49829L11.0322 9.74718L10.4678 9.25331L16.9238 1.875L12.75 1.875L12.375 1.875V1.125H12.75H17.75H18.125ZM4 4H9V4.75H4C3.86193 4.75 3.75 4.86193 3.75 5V16C3.75 16.1381 3.86193 16.25 4 16.25H15C15.1381 16.25 15.25 16.1381 15.25 16V11H16V16C16 16.5523 15.5523 17 15 17H4C3.44772 17 3 16.5523 3 16V5C3 4.44772 3.44772 4 4 4Z" fill="black"/>
</svg>
