<svg width="24" height="24" viewBox="0 0 24 24" fill="none" xmlns="http://www.w3.org/2000/svg">
<path fill-rule="evenodd" clip-rule="evenodd" d="M12.0009 2L12.2661 2.26539L15.267 5.26796L15.5321 5.5332L15.0016 6.06338L14.7365 5.79814L12.3762 3.43654V11.8228H11.6262V3.43581L9.26524 5.79814L9.00015 6.06338L8.46967 5.5332L8.73476 5.26796L11.7356 2.26539L12.0009 2ZM6 8H8V8.75H6C5.86193 8.75 5.75 8.86193 5.75 9V19C5.75 19.1381 5.86193 19.25 6 19.25H18C18.1381 19.25 18.25 19.1381 18.25 19V9C18.25 8.86193 18.1381 8.75 18 8.75H16V8H18C18.5523 8 19 8.44772 19 9V19C19 19.5523 18.5523 20 18 20H6C5.44772 20 5 19.5523 5 19V9C5 8.44771 5.44772 8 6 8Z" fill="black"/>
</svg>
