<svg width="24" height="24" viewBox="0 0 24 24" fill="none" xmlns="http://www.w3.org/2000/svg">
<path fill-rule="evenodd" clip-rule="evenodd" d="M12.0009 1.82317L12.3545 2.17703L15.3554 5.17959L15.7088 5.53325L15.0015 6.24015L14.6481 5.8865L12.5012 3.73843V11.8228H11.5012V3.73771L9.35365 5.8865L9.0002 6.24015L8.29289 5.53325L8.64635 5.17959L11.6472 2.17703L12.0009 1.82317ZM6 8H8V9H6V19H18V9H16V8H18C18.5523 8 19 8.44772 19 9V19C19 19.5523 18.5523 20 18 20H6C5.44772 20 5 19.5523 5 19V9C5 8.44771 5.44772 8 6 8Z" fill="black"/>
</svg>
