<svg width="32" height="32" viewBox="0 0 32 32" fill="none" xmlns="http://www.w3.org/2000/svg">
<rect width="32" height="32" rx="8" fill="black"/>
<path d="M27.772 13.1484L27.6782 12.6825L23.7206 11.9909L26.0201 8.87964L25.7528 8.58727L22.3701 10.2095L22.7977 5.90145L22.4497 5.70182L20.3902 9.18509L18.0786 4H17.6772L18.2259 9.01273L12.4094 4.35891L11.9153 4.50509L16.3943 10.1298L7.53002 7.17782L7.12859 7.62945L15.0439 12.1371L4.11999 13.0415L4 13.72L15.3515 14.9571L5.88501 22.7876L6.28644 23.3331L17.5572 17.2033L15.3242 28H16.006L20.3247 17.8415L22.9591 25.7931L23.4271 25.4342L22.3439 17.3495L26.4488 22.0033L26.7161 21.5778L23.5744 15.8069L27.9596 17.4291L28 16.9371L24.0696 14.0385L27.7731 13.1473L27.772 13.1484Z" fill="#FFDD55"/>
</svg>
