<svg width="32" height="32" viewBox="0 0 32 32" fill="none" xmlns="http://www.w3.org/2000/svg">
<path d="M16.0046 1C9.74154 1 7.91154 1.00692 7.55615 1.03692C6.27077 1.14308 5.47231 1.34615 4.6 1.78C3.92846 2.11462 3.4 2.5 2.87615 3.04231C1.92308 4.03 1.34615 5.24615 1.13846 6.69077C1.03692 7.39231 1.00692 7.53538 1 11.1192C1 12.3123 1 13.8862 1 15.9931C1 22.2538 1.00692 24.0838 1.03692 24.4392C1.14077 25.69 1.33692 26.4769 1.75231 27.3377C2.54615 28.9854 4.06231 30.2223 5.84846 30.6838C6.46692 30.8431 7.15 30.9308 8.02692 30.9723C8.39846 30.9885 12.1854 31 15.9723 31C19.7592 31 23.5485 30.9954 23.9108 30.9769C24.9262 30.9285 25.5146 30.85 26.1677 30.6815C27.9654 30.2177 29.4538 28.9992 30.2638 27.3285C30.67 26.4885 30.8777 25.6715 30.97 24.4854C30.9908 24.2269 30.9977 20.1054 30.9977 15.9908C30.9977 11.8762 30.9885 7.76154 30.9677 7.50308C30.8731 6.29846 30.6677 5.48846 30.2454 4.63231C29.9015 3.93077 29.5185 3.40692 28.9623 2.87385C27.97 1.92538 26.7562 1.34846 25.3092 1.14077C24.6077 1.03923 24.4692 1.00923 20.8831 1.00231H16L16.0046 1Z" fill="url(#paint0_radial_20_146)"/>
<path d="M16.0046 1C9.74154 1 7.91154 1.00692 7.55615 1.03692C6.27077 1.14308 5.47231 1.34615 4.6 1.78C3.92846 2.11462 3.4 2.5 2.87615 3.04231C1.92308 4.03 1.34615 5.24615 1.13846 6.69077C1.03692 7.39231 1.00692 7.53538 1 11.1192C1 12.3123 1 13.8862 1 15.9931C1 22.2538 1.00692 24.0838 1.03692 24.4392C1.14077 25.69 1.33692 26.4769 1.75231 27.3377C2.54615 28.9854 4.06231 30.2223 5.84846 30.6838C6.46692 30.8431 7.15 30.9308 8.02692 30.9723C8.39846 30.9885 12.1854 31 15.9723 31C19.7592 31 23.5485 30.9954 23.9108 30.9769C24.9262 30.9285 25.5146 30.85 26.1677 30.6815C27.9654 30.2177 29.4538 28.9992 30.2638 27.3285C30.67 26.4885 30.8777 25.6715 30.97 24.4854C30.9908 24.2269 30.9977 20.1054 30.9977 15.9908C30.9977 11.8762 30.9885 7.76154 30.9677 7.50308C30.8731 6.29846 30.6677 5.48846 30.2454 4.63231C29.9015 3.93077 29.5185 3.40692 28.9623 2.87385C27.97 1.92538 26.7562 1.34846 25.3092 1.14077C24.6077 1.03923 24.4692 1.00923 20.8831 1.00231H16L16.0046 1Z" fill="url(#paint1_radial_20_146)"/>
<path d="M15.9977 4.9231C12.9908 4.9231 12.6123 4.93694 11.4308 4.99002C10.2515 5.0431 9.44616 5.23002 8.74232 5.50463C8.01308 5.78848 7.39693 6.16694 6.78078 6.7831C6.16462 7.39925 5.78616 8.01771 5.50231 8.74463C5.2277 9.44848 5.04078 10.2539 4.9877 11.4331C4.93462 12.6146 4.92078 12.9931 4.92078 16C4.92078 19.0069 4.93462 19.3854 4.9877 20.5669C5.04078 21.7462 5.2277 22.5516 5.50231 23.2554C5.78616 23.9846 6.16462 24.6031 6.77847 25.2169C7.39462 25.8331 8.01078 26.2116 8.74001 26.4954C9.44385 26.77 10.2492 26.9569 11.4285 27.01C12.61 27.0631 12.9862 27.0769 15.9954 27.0769C19.0046 27.0769 19.3808 27.0631 20.56 27.01C21.7392 26.9569 22.5446 26.77 23.2485 26.4954C23.9777 26.2116 24.5939 25.8331 25.21 25.2169C25.8262 24.6008 26.2046 23.9823 26.4885 23.2554C26.7608 22.5516 26.9477 21.7462 27.0031 20.5669C27.0562 19.3854 27.07 19.0092 27.07 16C27.07 12.9908 27.0562 12.6146 27.0031 11.4331C26.9477 10.2539 26.7608 9.44848 26.4885 8.74463C26.2046 8.0154 25.8262 7.39694 25.21 6.7831C24.5939 6.16694 23.9777 5.78848 23.2485 5.50463C22.5423 5.23002 21.7369 5.0431 20.5577 4.99002C19.3762 4.93694 19 4.9231 15.9908 4.9231H15.9931H15.9977ZM15.0031 6.91925C15.2985 6.91925 15.6262 6.91925 15.9977 6.91925C18.9539 6.91925 19.3046 6.93079 20.4723 6.98387C21.5523 7.03233 22.1385 7.21463 22.5285 7.36463C23.0454 7.5654 23.4146 7.8054 23.8 8.1931C24.1877 8.58079 24.4277 8.95002 24.6285 9.46694C24.7808 9.85694 24.9608 10.4431 25.0092 11.5231C25.0623 12.6908 25.0739 13.0416 25.0739 15.9977C25.0739 18.9539 25.0623 19.3046 25.0092 20.4723C24.9608 21.5523 24.7785 22.1385 24.6285 22.5285C24.4277 23.0454 24.1877 23.4146 23.8 23.8C23.4123 24.1877 23.0454 24.4277 22.5285 24.6285C22.1385 24.7808 21.5523 24.9608 20.4723 25.0093C19.3046 25.0623 18.9539 25.0739 15.9977 25.0739C13.0415 25.0739 12.6908 25.0623 11.5231 25.0093C10.4431 24.9585 9.85693 24.7785 9.46693 24.6262C8.95001 24.4254 8.58078 24.1854 8.19308 23.7977C7.80539 23.41 7.56539 23.0408 7.36462 22.5239C7.21232 22.1339 7.03232 21.5477 6.98385 20.4677C6.93078 19.3 6.91924 18.9492 6.91924 15.9908C6.91924 13.0323 6.93078 12.6839 6.98385 11.5162C7.03232 10.4362 7.21462 9.85002 7.36462 9.46002C7.56539 8.9431 7.80539 8.57386 8.19308 8.18617C8.58078 7.79848 8.95001 7.55848 9.46693 7.35771C9.85693 7.2054 10.4431 7.0254 11.5231 6.97463C12.5454 6.92848 12.94 6.91463 15.0054 6.91233L15.0031 6.91925ZM21.9077 8.76079C21.1739 8.76079 20.5785 9.35617 20.5785 10.09C20.5785 10.8239 21.1739 11.4193 21.9077 11.4193C22.6415 11.4193 23.2369 10.8239 23.2369 10.09C23.2369 9.35617 22.6415 8.76079 21.9077 8.76079ZM15.9954 10.3139C12.8546 10.3139 10.3069 12.8616 10.3069 16.0023C10.3069 19.1431 12.8523 21.6908 15.9954 21.6908C19.1362 21.6908 21.6815 19.1454 21.6815 16.0023C21.6815 12.8593 19.1362 10.3139 15.9954 10.3139ZM15.9954 12.31C18.0331 12.31 19.6877 13.9623 19.6877 16.0023C19.6877 18.0423 18.0354 19.6946 15.9954 19.6946C13.9554 19.6946 12.3031 18.0423 12.3031 16.0023C12.3031 13.9623 13.9554 12.31 15.9954 12.31Z" fill="white"/>
<defs>
<radialGradient id="paint0_radial_20_146" cx="0" cy="0" r="1" gradientUnits="userSpaceOnUse" gradientTransform="translate(8.76529 33.1873) rotate(-90) scale(29.7 27.6)">
<stop stop-color="#FFDD55"/>
<stop offset="0.1" stop-color="#FFDD55"/>
<stop offset="0.5" stop-color="#FF543E"/>
<stop offset="1" stop-color="#C837AB"/>
</radialGradient>
<radialGradient id="paint1_radial_20_146" cx="0" cy="0" r="1" gradientUnits="userSpaceOnUse" gradientTransform="translate(-3.98077 3.45682) rotate(78.68) scale(13.35 54.75)">
<stop stop-color="#3771C8"/>
<stop offset="0.13" stop-color="#3771C8"/>
<stop offset="1" stop-color="#6600FF" stop-opacity="0"/>
</radialGradient>
</defs>
</svg>
