<svg width="32" height="32" viewBox="0 0 32 32" fill="none" xmlns="http://www.w3.org/2000/svg">
<path fill-rule="evenodd" clip-rule="evenodd" d="M24.812 6.96123C25.0504 5.56857 25.408 4.6907 25.7981 4.68529C26.5295 4.68529 27.12 7.73072 27.12 11.486C27.12 15.2413 26.5295 18.2868 25.7981 18.2868C25.5001 18.2868 25.2238 17.772 25.0017 16.905C24.6495 20.075 23.9235 22.2534 23.0784 22.2534C22.4228 22.2534 21.8377 20.9421 21.4476 18.8774C21.1767 22.8062 20.5049 25.5915 19.7139 25.5915C19.2155 25.5915 18.7658 24.486 18.4299 22.687C18.029 26.3989 17.0971 29 16.0135 29C14.93 29 13.9981 26.3989 13.5972 22.687C13.2667 24.486 12.8116 25.5915 12.3132 25.5915C11.5222 25.5915 10.8504 22.8062 10.5795 18.8774C10.184 20.9421 9.59887 22.2534 8.94874 22.2534C8.10356 22.2534 7.37758 20.075 7.02542 16.905C6.80329 17.772 6.52698 18.2868 6.22901 18.2868C5.4976 18.2868 4.90706 15.2413 4.90706 11.486C4.90706 7.73072 5.48135 4.6907 6.21275 4.6907C6.60283 4.6907 6.95499 5.56857 7.19879 6.96665C7.58887 4.56065 8.22275 3 8.9379 3C9.7885 3 10.5253 5.21092 10.8721 8.41892C11.2134 6.08337 11.7281 4.59316 12.3078 4.59316C13.1204 4.59316 13.8085 7.5248 14.0631 11.6107C14.5453 9.51355 15.2388 8.20217 16.0081 8.20217C16.7775 8.20217 17.4709 9.51897 17.9531 11.6107C18.2078 7.5248 18.8958 4.59316 19.7085 4.59316C20.2882 4.59316 20.8029 6.08337 21.1442 8.41892C21.4909 5.21092 22.2278 3 23.0784 3C23.7935 3 24.4274 4.56607 24.8175 6.96665L24.812 6.96123ZM3 10.8195C3 9.13964 3.3359 7.77949 3.74766 7.77949C4.15941 7.77949 4.49531 9.13964 4.49531 10.8195C4.49531 12.4994 4.15941 13.8595 3.74766 13.8595C3.3359 13.8595 3 12.4994 3 10.8195ZM27.5047 10.8195C27.5047 9.13964 27.8406 7.77949 28.2523 7.77949C28.6641 7.77949 29 9.13964 29 10.8195C29 12.4994 28.6641 13.8595 28.2523 13.8595C27.8406 13.8595 27.5047 12.4994 27.5047 10.8195Z" fill="#A238FF"/>
</svg>
