<svg width="32" height="32" viewBox="0 0 32 32" fill="none" xmlns="http://www.w3.org/2000/svg">
<rect width="32" height="32" rx="8" fill="url(#paint0_linear_27_44)"/>
<path fill-rule="evenodd" clip-rule="evenodd" d="M22.3784 9C22.5671 9 22.7289 9.05392 22.8367 9.16177C22.9445 9.24265 22.9715 9.40442 22.9715 9.56619C22.9715 9.72796 22.9176 9.86277 22.8097 9.97061C22.7019 10.0785 22.5671 10.1324 22.3784 10.1324C22.1896 10.1324 22.0548 10.0785 21.947 9.97061C21.8391 9.88973 21.7852 9.72796 21.7852 9.56619C21.7852 9.40442 21.8391 9.26961 21.947 9.16177C22.0548 9.05392 22.1896 9 22.3784 9ZM10.5963 15.8482H11.1625C11.2973 15.8482 11.3512 15.7943 11.3512 15.6595V12.2893C11.3512 11.831 11.2433 11.4805 11.0007 11.2378C10.758 10.9952 10.4345 10.8604 9.97616 10.8604C9.35605 10.8604 8.70897 11.076 8.08886 11.5344C7.87317 11.076 7.46874 10.8604 6.87559 10.8604C6.28244 10.8604 5.68929 11.076 5.09614 11.4805L5.04221 11.1839C5.04221 11.103 5.01525 11.076 4.96133 11.0491C4.93437 11.0221 4.88045 11.0221 4.82652 11.0221H4.39514C4.26033 11.0221 4.20641 11.076 4.20641 11.2109V15.6865C4.20641 15.8213 4.26033 15.8752 4.39514 15.8752H4.96133C5.09614 15.8752 5.15006 15.8213 5.15006 15.6865V12.0467C5.6084 11.777 6.06675 11.6153 6.55206 11.6153C6.82167 11.6153 7.0104 11.6962 7.11825 11.8579C7.22609 12.0197 7.30698 12.2354 7.30698 12.5589V15.6595C7.30698 15.7943 7.3609 15.8482 7.49571 15.8482H8.0619C8.1967 15.8482 8.25063 15.7943 8.25063 15.6595V12.0467C8.73593 11.7501 9.19428 11.6153 9.65262 11.6153C9.92224 11.6153 10.111 11.6962 10.2188 11.8579C10.3267 12.0197 10.4075 12.2354 10.4075 12.5589V15.6595C10.4075 15.7943 10.4615 15.8482 10.5963 15.8482ZM19.251 15.2551C19.5476 15.2551 19.7902 15.1742 19.952 15.0663C20.1137 14.9585 20.1946 14.7698 20.1946 14.5541C20.1946 14.3923 20.1677 14.2845 20.0598 14.1766C19.952 14.0688 19.7902 13.9879 19.5206 13.88L18.7117 13.5835C18.0107 13.3138 17.6603 12.8555 17.6603 12.2354C17.6603 11.831 17.822 11.4805 18.1456 11.2378C18.4691 10.9952 18.9005 10.8604 19.4127 10.8604C19.8172 10.8604 20.2216 10.9412 20.626 11.076C20.7069 11.103 20.7608 11.13 20.7878 11.1839C20.8147 11.2378 20.8417 11.2917 20.8417 11.3726V11.6422C20.8417 11.7501 20.7878 11.804 20.7069 11.804C20.6902 11.804 20.653 11.7937 20.6015 11.7795C20.5697 11.7707 20.5324 11.7604 20.4912 11.7501C20.1677 11.6422 19.8172 11.5883 19.4667 11.5883C18.8466 11.5883 18.55 11.804 18.55 12.2084C18.55 12.3972 18.6039 12.505 18.7117 12.6128C18.7926 12.7207 19.0083 12.8285 19.3049 12.9364L20.0598 13.233C20.4373 13.3678 20.7069 13.5565 20.8687 13.7452C21.0304 13.9609 21.1113 14.2036 21.1113 14.5271C21.1113 14.9855 20.9495 15.336 20.599 15.6056C20.2486 15.8752 19.8172 16.01 19.251 16.01C18.7117 16.01 18.2264 15.9291 17.7951 15.7404C17.7142 15.7134 17.6603 15.6595 17.6333 15.6325C17.6063 15.5786 17.5794 15.5247 17.5794 15.4438V15.1742C17.5794 15.0663 17.6063 15.0124 17.6872 15.0124C17.7267 15.0124 17.7806 15.0269 17.849 15.0452L17.849 15.0452C17.874 15.0519 17.901 15.0591 17.9299 15.0663C18.3612 15.2011 18.7926 15.2551 19.251 15.2551ZM15.7192 14.7697V11.1838C15.7192 11.076 15.7731 10.9951 15.9349 10.9951H16.501C16.6359 10.9951 16.6898 11.049 16.6898 11.1838V15.6325C16.6898 15.7673 16.6359 15.8212 16.501 15.8212H16.0966C16.0157 15.8212 15.9618 15.8212 15.9349 15.7943C15.8809 15.7673 15.854 15.7403 15.854 15.6594L15.8 15.3359C15.2069 15.7673 14.5868 15.983 13.9667 15.983C13.5083 15.983 13.1578 15.8482 12.9152 15.6055C12.6725 15.3629 12.5647 14.9854 12.5647 14.5271V11.1838C12.5647 11.049 12.6186 10.9951 12.7534 10.9951H13.3196C13.4544 10.9951 13.5083 11.049 13.5083 11.1838V14.2305C13.5083 14.581 13.5622 14.8236 13.6971 14.9854C13.8319 15.1472 14.0476 15.2281 14.3441 15.2281C14.8025 15.2281 15.2608 15.0663 15.7192 14.7697ZM16.2313 21.2946C19.1431 21.2946 22.3515 20.6745 25.2903 19.4342C25.7487 19.2455 26.1261 19.7308 25.6678 20.0543C23.0525 21.9956 19.2509 23.0201 15.9617 23.0201C11.3782 23.0201 7.22614 21.3215 4.09862 18.4906C3.90989 18.3019 4.01773 18.0862 4.20646 18.0862C4.26039 18.0862 4.31431 18.1131 4.36823 18.1401C7.73841 20.1083 11.9174 21.2946 16.2313 21.2946ZM25.2095 12.0736C25.4521 11.8039 25.8296 11.6691 26.3688 11.6691C26.6384 11.6691 26.9081 11.6961 27.1507 11.777C27.2316 11.8039 27.2586 11.8039 27.3125 11.8039C27.3934 11.8039 27.4473 11.75 27.4473 11.6152V11.3456C27.4473 11.2647 27.4203 11.1838 27.3934 11.1569C27.3664 11.1299 27.3125 11.076 27.2586 11.049C26.9081 10.9681 26.5576 10.8873 26.234 10.8873C25.4791 10.8873 24.9129 11.1029 24.4815 11.5613C24.0771 11.9927 23.8614 12.6397 23.8614 13.4486C23.8614 14.2574 24.0501 14.8775 24.4546 15.3089C24.859 15.7403 25.4252 15.956 26.1801 15.956C26.5845 15.956 26.962 15.9021 27.2586 15.7673C27.3394 15.7403 27.3934 15.7134 27.4203 15.6594C27.4473 15.6325 27.4473 15.5516 27.4473 15.4707V15.2011C27.4473 15.0663 27.3934 15.0124 27.3125 15.0124C27.2855 15.0124 27.2316 15.0124 27.1777 15.0393C26.8811 15.1202 26.5845 15.1741 26.3149 15.1741C25.8026 15.1741 25.4252 15.0393 25.1825 14.7697C24.9399 14.5001 24.832 14.0687 24.832 13.5025V13.3677C24.859 12.7746 24.9668 12.3432 25.2095 12.0736ZM27.9056 17.9512C28.2022 18.3287 27.8247 20.7822 26.4227 21.9685C26.18 22.1302 25.9913 22.0493 26.0722 21.8067C26.3957 21.0248 27.0967 19.2453 26.7732 18.814C26.4227 18.3826 24.5354 18.5983 23.6996 18.7061C23.4569 18.7331 23.403 18.5174 23.6457 18.3556C24.4276 17.8164 25.4521 17.6277 26.3149 17.6277C27.1237 17.6277 27.7708 17.7894 27.9056 17.9512ZM22.675 10.9951H22.1088C21.974 10.9951 21.9201 11.049 21.9201 11.1838V15.6594C21.9201 15.7943 21.974 15.8482 22.1088 15.8482H22.675C22.8098 15.8482 22.8638 15.7943 22.8638 15.6594V11.1838C22.8638 11.076 22.8098 10.9951 22.675 10.9951Z" fill="#20272A"/>
<defs>
<linearGradient id="paint0_linear_27_44" x1="16" y1="0" x2="16" y2="32" gradientUnits="userSpaceOnUse">
<stop stop-color="#A0E3EA"/>
<stop offset="1" stop-color="#6DCED7"/>
</linearGradient>
</defs>
</svg>
