<svg width="32" height="32" viewBox="0 0 32 32" fill="none" xmlns="http://www.w3.org/2000/svg">
<g clip-path="url(#clip0_20_130)">
<path d="M2.32177 15.9756C2.32177 8.4161 8.46905 2.26681 16.0226 2.26681C18.4558 2.26681 20.7393 2.90751 22.7234 4.02176L23.8094 2.037C21.4981 0.741676 18.9013 0.0383025 16.2524 0H15.9913C7.21244 0.0139282 0.0974655 7.079 0 15.8468V16C0.00348091 20.4048 1.824 24.6111 5.0334 27.63L6.61373 25.9238C3.87425 23.3402 2.32177 19.7432 2.32177 15.9756ZM27.1476 4.53711L25.6091 6.19108C28.2441 8.76431 29.727 12.2916 29.727 15.9756C29.727 23.5317 23.5797 29.681 16.0261 29.681C13.6486 29.681 11.4139 29.0716 9.46459 28.0026L8.32634 30.0326C10.6794 31.3245 13.318 32.0035 16.0017 32C24.8363 32 32 24.8339 32 15.9965C32 11.6788 30.2491 7.54211 27.1511 4.53711H27.1476ZM2.61764 15.9756C2.61764 19.6561 4.13532 23.1765 6.81214 25.7045L8.38551 24.0017C6.18558 21.9125 4.93593 19.0085 4.93941 15.9756C4.93941 9.86115 9.91363 4.88531 16.0261 4.88531C18.0033 4.88531 19.8586 5.40762 21.4668 6.31991L22.5807 4.2864C20.5791 3.15822 18.3235 2.56279 16.0261 2.56627C8.63614 2.56627 2.62112 8.57976 2.62112 15.9756H2.61764ZM27.1093 15.9756C27.1093 22.0901 22.1351 27.0659 16.0226 27.0659C14.1777 27.0659 12.3607 26.6063 10.7421 25.7254L9.60731 27.7484C11.574 28.8244 13.7809 29.3885 16.0261 29.3885C23.4161 29.3885 29.4311 23.3715 29.4311 15.9791C29.4311 12.2359 27.889 8.84788 25.4072 6.41393L23.8303 8.11317C25.9328 10.1919 27.1128 13.0263 27.1093 15.9791V15.9756ZM24.5126 15.9756C24.5091 20.6625 20.7114 24.4579 16.0261 24.4614C14.6268 24.4614 13.2518 24.1166 12.0196 23.4516L10.8883 25.4607C12.4651 26.3173 14.2334 26.7665 16.0261 26.763C21.9785 26.763 26.8169 21.923 26.8169 15.9687C26.8169 13.096 25.6717 10.3382 23.6319 8.31512L22.0585 10.0039C23.6284 11.5917 24.5091 13.7367 24.5091 15.9687L24.5126 15.9756ZM5.23529 15.9756C5.23529 19.0433 6.52322 21.8185 8.5874 23.7893L10.1503 22.0971C8.4795 20.4988 7.53617 18.2877 7.53617 15.9791C7.53965 11.2923 11.3373 7.49684 16.0191 7.49336C17.4881 7.49336 18.9361 7.87639 20.2102 8.60762L21.3171 6.58455C19.7019 5.66877 17.8745 5.18825 16.0191 5.18825C10.0703 5.18825 5.23181 10.0283 5.23181 15.9826L5.23529 15.9756ZM21.9402 15.9756C21.9402 19.2453 19.2912 21.8916 16.0226 21.8916C15.0654 21.8916 14.122 21.6583 13.2762 21.2126L12.1623 23.1974C13.3493 23.8346 14.6755 24.1689 16.0226 24.1654C20.5443 24.1619 24.2097 20.4953 24.2132 15.9721C24.2132 13.8202 23.3673 11.7554 21.8566 10.2268L20.3076 11.8947C21.3554 12.995 21.9402 14.454 21.9402 15.9721V15.9756ZM7.83205 15.9756C7.83205 18.2041 8.74056 20.3351 10.3487 21.8777L11.8908 20.2098L11.9082 20.2272C10.7525 19.1164 10.1016 17.5808 10.1016 15.9756C10.1016 12.7095 12.7471 10.0596 16.0157 10.0596C17.053 10.0596 18.0729 10.3347 18.971 10.857L20.064 8.85832C18.8317 8.15147 17.4359 7.78237 16.0157 7.78237C11.5044 7.77541 7.82857 11.4524 7.82857 15.9721L7.83205 15.9756ZM16.7397 15.9756C16.7153 16.3726 16.3742 16.672 15.9809 16.6477C15.6188 16.6268 15.3299 16.3378 15.309 15.9756C15.309 15.5787 15.6293 15.2583 16.0261 15.2583C16.4229 15.2583 16.7432 15.5787 16.7432 15.9756H16.7397ZM11.487 15.9756C11.487 13.472 13.5164 11.442 16.0191 11.442C18.5219 11.442 20.5513 13.472 20.5513 15.9756C20.5513 18.4792 18.5219 20.5092 16.0191 20.5092C13.5164 20.5092 11.487 18.4792 11.487 15.9756ZM11.6854 15.9756C11.6854 18.3713 13.6278 20.3108 16.0226 20.3143C18.4175 20.3143 20.3598 18.3713 20.3598 15.9756C20.3598 13.58 18.421 11.637 16.0261 11.637C13.6312 11.637 11.6889 13.5765 11.6889 15.9721L11.6854 15.9756Z" fill="black"/>
</g>
<defs>
<clipPath id="clip0_20_130">
<rect width="32" height="32" fill="white"/>
</clipPath>
</defs>
</svg>
