<svg width="32" height="32" viewBox="0 0 32 32" fill="none" xmlns="http://www.w3.org/2000/svg">
<g clip-path="url(#clip0_20_35)">
<path fill-rule="evenodd" clip-rule="evenodd" d="M9.81721 0H8.8607L7.89176 0.0124283C7.19078 0.0241661 6.49187 0.0876883 5.80055 0.203685C4.40688 0.448798 3.11956 1.10611 2.10296 2.09002C1.09051 3.08842 0.420602 4.38303 0.191315 5.78673C0.0794346 6.48272 0.0193504 7.1856 0.0131348 7.88987V8.85859L1.29601e-05 9.7769V22.2176C-0.000677662 22.8424 0.00346607 23.4666 0.0124442 24.0915C0.0379972 24.7923 0.0759815 25.4938 0.203747 26.1946C0.448918 27.588 1.10639 28.875 2.09053 29.8913C3.08917 30.9049 4.38409 31.574 5.78812 31.8032C6.4891 31.9178 7.19078 31.9565 7.89176 31.9814C8.5292 32.0007 9.16665 32.0048 9.80409 31.9938H23.14L24.0965 31.9814C24.8017 31.9703 25.5047 31.9068 26.2002 31.7901C27.5938 31.545 28.8812 30.8877 29.8978 29.9038C30.9116 28.9054 31.5808 27.6108 31.8101 26.2071C31.9227 25.5069 31.9827 24.7999 31.9883 24.0908C32.0028 23.4618 32.0028 22.8328 31.9883 22.2045V7.88987C31.9627 7.20148 31.9247 6.48755 31.797 5.79916C31.5518 4.40582 30.8943 3.1188 29.9102 2.10245C28.9115 1.08885 27.6166 0.419799 26.2126 0.190567C25.5116 0.0628317 24.8099 0.0372848 24.0958 0.0124283H23.1393L22.1842 0H9.81721Z" fill="url(#paint0_linear_20_35)"/>
<path fill-rule="evenodd" clip-rule="evenodd" d="M15.7966 4.06609C15.7317 4.11097 15.6757 4.16689 15.6309 4.2318L15.6053 4.26977C15.5286 4.37196 15.4775 4.47346 15.4271 4.60119L15.0576 5.621L12.916 12.2107H19.0743L16.9327 5.63343L16.5632 4.60119C16.5245 4.48105 16.4637 4.36851 16.385 4.26977L16.3595 4.2318C16.3153 4.16689 16.2586 4.11027 16.1937 4.06609C16.1336 4.02535 16.0625 4.00325 15.99 4.00256C15.9264 4.00256 15.8622 4.02811 15.7987 4.06609" fill="url(#paint1_radial_20_35)"/>
<path fill-rule="evenodd" clip-rule="evenodd" d="M15.9879 21.6694L21.5978 25.7486L22.4901 26.3735C22.6179 26.437 22.7194 26.5012 22.8341 26.5392H22.8852C22.9618 26.5772 23.0385 26.5903 23.1144 26.5772C23.1911 26.5772 23.2546 26.5516 23.3058 26.5136C23.3638 26.4722 23.408 26.4149 23.4335 26.3479C23.4598 26.274 23.4722 26.1967 23.4715 26.1187V26.0676C23.4715 25.9399 23.4591 25.8128 23.4204 25.6982C23.3313 25.3412 23.2167 24.9974 23.1144 24.6404L20.9728 18.0631L16.0003 21.6832L15.9879 21.6708V21.6694Z" fill="url(#paint2_radial_20_35)"/>
<path fill-rule="evenodd" clip-rule="evenodd" d="M5.99252 12.2114L4.89581 12.2494C4.76804 12.2494 4.64097 12.2749 4.52632 12.3129H4.48834C4.40823 12.3405 4.33433 12.384 4.27148 12.4407C4.21831 12.4835 4.17825 12.5415 4.15684 12.6064C4.14027 12.6692 4.14027 12.7348 4.15684 12.7976C4.16927 12.8743 4.20795 12.9509 4.25905 13.0144L4.28461 13.0524C4.36126 13.1546 4.45036 13.2437 4.53945 13.3203C4.83296 13.5627 5.12578 13.7795 5.4193 13.9956L11.0292 18.0748L12.916 12.2114H5.99252Z" fill="url(#paint3_radial_20_35)"/>
<path fill-rule="evenodd" clip-rule="evenodd" d="M8.88696 24.639C8.75919 24.996 8.65767 25.3399 8.56789 25.6968C8.54234 25.8246 8.51678 25.9516 8.51678 26.0793V26.1173C8.51678 26.2064 8.51678 26.283 8.55477 26.3465C8.58032 26.4232 8.63143 26.4743 8.68253 26.5123C8.73364 26.5502 8.79718 26.5758 8.87384 26.5758C8.95119 26.5813 9.02923 26.573 9.10312 26.5502L9.15423 26.5378L9.48573 26.3721C9.79167 26.1684 10.0976 25.964 10.3911 25.7348L16.0011 21.6811L12.8394 19.3867L11.0161 18.061L8.87453 24.6383H8.88696V24.639Z" fill="url(#paint4_radial_20_35)"/>
<path fill-rule="evenodd" clip-rule="evenodd" d="M19.0736 12.2114L20.9735 18.0748L26.5703 13.9956C26.8638 13.7788 27.1567 13.562 27.437 13.3203C27.5393 13.2437 27.6284 13.1546 27.6919 13.0655L27.7299 13.0144C27.7775 12.9495 27.8121 12.8756 27.8321 12.7976C27.8487 12.7348 27.8487 12.6692 27.8321 12.6064C27.8072 12.5394 27.763 12.4821 27.7043 12.4407C27.6449 12.3854 27.5759 12.3426 27.5006 12.3129H27.4626C27.3348 12.2749 27.2078 12.2494 27.08 12.2494C26.7229 12.2239 26.3535 12.2114 25.9964 12.2114H19.0736Z" fill="url(#paint5_radial_20_35)"/>
<path fill-rule="evenodd" clip-rule="evenodd" d="M12.9153 12.2115L11.0154 18.0749L12.8387 19.3874L15.9879 21.6818L20.9604 18.0618L19.0736 12.2108H12.9153V12.2115Z" fill="white"/>
</g>
<defs>
<linearGradient id="paint0_linear_20_35" x1="16.1489" y1="-0.335508" x2="16.1489" y2="31.6645" gradientUnits="userSpaceOnUse">
<stop stop-color="#EF4DB7"/>
<stop offset="1" stop-color="#C643FD"/>
</linearGradient>
<radialGradient id="paint1_radial_20_35" cx="0" cy="0" r="1" gradientUnits="userSpaceOnUse" gradientTransform="translate(0.86441 21.7477) scale(23.9557 23.9232)">
<stop stop-color="#FBE3F8"/>
<stop offset="0.74" stop-color="#FBE3F8"/>
<stop offset="0.81" stop-color="#FADEF6"/>
<stop offset="0.88" stop-color="#F9D1F0"/>
<stop offset="0.95" stop-color="#F6BAE7"/>
<stop offset="0.98" stop-color="#F5B1E3"/>
<stop offset="1" stop-color="#F5B1E3"/>
</radialGradient>
<radialGradient id="paint2_radial_20_35" cx="0" cy="0" r="1" gradientUnits="userSpaceOnUse" gradientTransform="translate(0.864401 21.5054) scale(23.9497 23.9462)">
<stop stop-color="#F9E3FB"/>
<stop offset="0.75" stop-color="#F9E3FB"/>
<stop offset="0.81" stop-color="#F8DEFB"/>
<stop offset="0.88" stop-color="#F3D0FA"/>
<stop offset="0.96" stop-color="#ECBAF9"/>
<stop offset="0.98" stop-color="#EAB2F9"/>
<stop offset="1" stop-color="#EAB2F9"/>
</radialGradient>
<radialGradient id="paint3_radial_20_35" cx="0" cy="0" r="1" gradientUnits="userSpaceOnUse" gradientTransform="translate(-11.1851 0.00301049) scale(32.5706 32.659)">
<stop stop-color="#FAE1F8"/>
<stop offset="0.6" stop-color="#FAE1F8"/>
<stop offset="0.85" stop-color="#F7D6F7"/>
<stop offset="1" stop-color="#F7D6F7"/>
</radialGradient>
<radialGradient id="paint4_radial_20_35" cx="0" cy="0" r="1" gradientUnits="userSpaceOnUse" gradientTransform="translate(25.3691 33.9297) scale(23.2013 23.1765)">
<stop stop-color="#FAE9FC"/>
<stop offset="0.67" stop-color="#FAE9FC"/>
<stop offset="0.81" stop-color="#F8DEFA"/>
<stop offset="0.91" stop-color="#F6D4F8"/>
<stop offset="1" stop-color="#F6D4F8"/>
</radialGradient>
<radialGradient id="paint5_radial_20_35" cx="0" cy="0" r="1" gradientUnits="userSpaceOnUse" gradientTransform="translate(25.3431 34.1299) scale(23.2118 23.2776)">
<stop stop-color="#FAE9FB"/>
<stop offset="0.68" stop-color="#FAE9FB"/>
<stop offset="0.81" stop-color="#F8DEF8"/>
<stop offset="0.98" stop-color="#F5CAF2"/>
<stop offset="1" stop-color="#F5CAF2"/>
</radialGradient>
<clipPath id="clip0_20_35">
<rect width="32" height="32" fill="white"/>
</clipPath>
</defs>
</svg>
