<svg width="32" height="32" viewBox="0 0 32 32" fill="none" xmlns="http://www.w3.org/2000/svg">
<path fill-rule="evenodd" clip-rule="evenodd" d="M3.10872 3.10872C1.063 5.15474 1.0018 8.41007 1 14.7998C6.72646 14.7998 10.3019 12.3413 13.4378 10.1849C15.8879 8.50038 18.0699 6.99976 20.8002 6.99976C24.8637 6.99976 28.4122 9.87289 30.2935 11.3966C30.5587 11.6114 30.7909 11.7995 30.9868 11.9486C30.9274 7.39276 30.6079 4.82504 28.8916 3.10872C26.7826 1 23.3883 1 16.6002 1H15.4001C8.61198 1 5.21774 1 3.10872 3.10872ZM14.5181 31C14.8055 31 15.0995 31 15.4001 31H16.6002C16.9008 31 17.1948 31 17.4822 31H14.5181Z" fill="#0077FF"/>
<path fill-rule="evenodd" clip-rule="evenodd" d="M1 14.7998C6.72646 14.7998 10.3019 12.3413 13.4378 10.1849C15.8879 8.50037 18.0699 6.99976 20.8002 6.99976C24.864 6.99976 28.4122 9.87288 30.2935 11.3966C30.5587 11.6114 30.7909 11.7995 30.9868 11.9486C31.0003 12.9905 31.0003 14.1365 31.0003 15.3998V16.5999C31.0003 23.388 31.0003 26.7823 28.8916 28.8913C26.8762 30.9067 23.6865 30.9961 17.4819 31H14.5184C8.31377 30.9961 5.12444 30.9067 3.10902 28.8913C1 26.7826 1 23.3883 1 16.6002V15.4001C1 15.197 1 14.9969 1 14.7998Z" fill="#F45FFF"/>
<path d="M24.2505 16.2927C24.2505 15.5511 24.8592 14.9502 25.6005 14.9502C26.3418 14.9502 26.9505 15.5514 26.9505 16.2927V21.7078C26.9505 22.4491 26.3421 23.0503 25.6005 23.0503C24.8589 23.0503 24.2505 22.4491 24.2505 21.7078V16.2927Z" fill="white"/>
<path d="M19.4504 12.8425C19.4504 12.1009 20.0591 11.5 20.8005 11.5C21.5418 11.5 22.1505 12.1012 22.1505 12.8425V25.1576C22.1505 25.8989 21.5418 26.5002 20.8005 26.5002C20.0591 26.5002 19.4504 25.8989 19.4504 25.1576V12.8425Z" fill="white"/>
<path d="M14.6504 16.2927C14.6504 15.5511 15.2591 14.9502 16.0004 14.9502C16.7417 14.9502 17.3504 15.5514 17.3504 16.2927V21.7078C17.3504 22.4491 16.7417 23.0503 16.0004 23.0503C15.2591 23.0503 14.6504 22.4491 14.6504 21.7078V16.2927Z" fill="white"/>
<path d="M9.84985 18.2427C9.84985 17.5011 10.4586 16.9001 11.1999 16.9001C11.9412 16.9001 12.5499 17.5011 12.5499 18.2427V19.7577C12.5499 20.4993 11.9412 21.1002 11.1999 21.1002C10.4586 21.1002 9.84985 20.499 9.84985 19.7577V18.2427Z" fill="white"/>
<path d="M5.0498 18.2427C5.0498 17.5011 5.65851 16.9001 6.39982 16.9001C7.14113 16.9001 7.74983 17.5011 7.74983 18.2427V19.7577C7.74983 20.4993 7.14113 21.1002 6.39982 21.1002C5.65851 21.1002 5.0498 20.499 5.0498 19.7577V18.2427Z" fill="white"/>
</svg>
