<svg width="32" height="32" viewBox="0 0 32 32" fill="none" xmlns="http://www.w3.org/2000/svg">
<path fill-rule="evenodd" clip-rule="evenodd" d="M0.871948 4.36808C0 6.07937 0 8.31958 0 12.8V19.2C0 23.6804 0 25.9206 0.871948 27.6319C1.63893 29.1372 2.86278 30.3611 4.36808 31.1281C6.07937 32 8.31958 32 12.8 32H19.2C23.6804 32 25.9206 32 27.6319 31.1281C29.1372 30.3611 30.3611 29.1372 31.1281 27.6319C32 25.9206 32 23.6804 32 19.2V12.8C32 8.31958 32 6.07937 31.1281 4.36808C30.3611 2.86278 29.1372 1.63893 27.6319 0.871948C25.9206 0 23.6804 0 19.2 0H12.8C8.31958 0 6.07937 0 4.36808 0.871948C2.86278 1.63893 1.63893 2.86278 0.871948 4.36808ZM4.28001 18.4544L4.46001 17.1744C4.46001 16.9944 4.64001 16.9944 4.64001 17.1744L4.82001 18.4544L4.64001 19.7344C4.64001 19.8544 4.46001 19.8544 4.46001 19.7344L4.28001 18.4544ZM5.34001 16.3544C5.34001 16.1744 5.52001 16.1744 5.52001 16.3544L5.76001 18.4544L5.52001 20.5144C5.52001 20.6944 5.28001 20.6944 5.28001 20.5144L5.04001 18.4544L5.34001 16.3544ZM8.80001 18.4544L8.96001 14.5944C8.96001 14.2944 9.32001 14.2944 9.34001 14.5944L9.58001 18.4544L9.34001 20.7944C9.34001 21.2544 8.92001 21.2544 8.92001 20.7944L8.80001 18.4544ZM6.92001 18.4744L7.16001 15.8944C7.16001 15.7144 7.38001 15.7144 7.40001 15.8944L7.64001 18.4744L7.40001 20.8144C7.40001 21.1744 7.10001 21.1744 7.10001 20.8144L6.92001 18.4744ZM11.44 18.4744L11.26 20.8144C11.26 21.2744 10.78 21.2744 10.78 20.8144L10.66 18.4744L10.84 13.3144C10.84 12.9544 11.26 12.9544 11.26 13.3144L11.44 18.4744ZM15.36 18.4744L15.24 20.8144C15.24 21.2744 14.66 21.2744 14.66 20.8144L14.54 18.4744L14.66 12.4944C14.66 12.0744 15.24 12.0744 15.24 12.4944L15.36 18.4744ZM13.42 18.4744L13.24 20.8144C13.24 21.2744 12.72 21.2744 12.72 20.7944L12.6 18.4544L12.72 13.2544C12.72 12.8944 13.24 12.8944 13.24 13.2544L13.42 18.4744ZM8.56001 18.4744L8.38001 20.8144C8.38001 21.2144 8.04001 21.2144 8.02001 20.8144L7.84001 18.4744L8.02001 16.0744C8.02001 15.8944 8.38001 15.8944 8.38001 16.0744L8.56001 18.4744ZM6.68001 18.4744L6.44001 20.8144C6.44001 21.0344 6.22001 21.0344 6.20001 20.8144L5.96001 18.4744L6.20001 15.9544C6.20001 15.7744 6.44001 15.7744 6.44001 15.9544L6.68001 18.4744ZM13.6 18.4544L13.72 13.4744C13.72 13.0744 14.24 13.0744 14.24 13.4744L14.36 18.4544L14.24 20.7944C14.24 21.2544 13.66 21.2544 13.66 20.7944L13.6 18.4544ZM10.5 18.4744L10.32 20.8144C10.32 21.2744 9.84001 21.2744 9.84001 20.8144L9.72001 18.4744L9.90001 13.7344C9.90001 13.3744 10.32 13.3744 10.32 13.7344L10.5 18.4744ZM12.42 18.4744L12.24 20.8144C12.24 21.2744 11.78 21.2744 11.78 20.7944L11.6 18.4544L11.78 13.1344C11.78 12.7744 12.24 12.7744 12.24 13.1344L12.42 18.4744ZM16.82 11.3144C19.98 10.0944 23.44 12.2544 23.74 15.5944C25.66 14.9544 27.72 16.1144 27.72 18.2944C27.72 19.8944 26.42 21.1744 24.84 21.1744H16.82C16.64 21.1744 16.52 20.9944 16.52 20.8144V11.6744C16.52 11.4944 16.58 11.4344 16.82 11.3144ZM15.46 18.4544L15.64 11.9544C15.64 11.5544 16.24 11.5544 16.24 11.9544L16.4 18.4544L16.22 20.7944C16.22 21.2544 15.64 21.2544 15.64 20.7944L15.46 18.4544Z" fill="#FF5500"/>
</svg>
