<svg width="32" height="32" viewBox="0 0 32 32" fill="none" xmlns="http://www.w3.org/2000/svg">
<g clip-path="url(#clip0_20_140)">
<path fill-rule="evenodd" clip-rule="evenodd" d="M32 10.0098C32 9.62756 32 9.24533 31.9982 8.86311C31.9964 8.54133 31.9929 8.21956 31.984 7.89778C31.9653 7.19644 31.9236 6.48978 31.7991 5.79644C31.6729 5.09244 31.4658 4.43733 31.1404 3.79733C30.8204 3.16889 30.4027 2.59467 29.904 2.096C29.4053 1.59733 28.8302 1.17956 28.2018 0.859556C27.5627 0.534222 26.9076 0.328 26.2044 0.200889C25.5111 0.0764444 24.8036 0.0346667 24.1022 0.016C23.7804 0.00711111 23.4587 0.00355556 23.1369 0.00177778C22.7547 0 22.3724 0 21.9902 0H10.0098C9.62756 0 9.24533 0 8.86311 0.00177778C8.54133 0.00355556 8.21956 0.00711111 7.89778 0.016C7.19644 0.0355556 6.48889 0.0764444 5.79556 0.201778C5.09156 0.328 4.43733 0.535111 3.79822 0.860444C3.16978 1.18044 2.59467 1.59822 2.096 2.09689C1.59733 2.59556 1.17956 3.16978 0.859556 3.79822C0.534222 4.43822 0.327111 5.09333 0.200889 5.79733C0.0764444 6.49067 0.0346667 7.19822 0.016 7.89867C0.00711111 8.22044 0.00355556 8.54222 0.00177778 8.864C0 9.24533 0 9.62756 0 10.0098V21.9902C0 22.3724 0 22.7547 0.00177778 23.1369C0.00355556 23.4587 0.00711111 23.7804 0.016 24.1022C0.0346667 24.8036 0.0764444 25.5102 0.200889 26.2036C0.327111 26.9076 0.534222 27.5627 0.859556 28.2027C1.17956 28.8311 1.59733 29.4053 2.096 29.904C2.59467 30.4027 3.16978 30.8204 3.79822 31.1404C4.43733 31.4658 5.09244 31.672 5.79556 31.7991C6.48889 31.9236 7.19644 31.9653 7.89778 31.984C8.21956 31.9929 8.54133 31.9964 8.86311 31.9982C9.24533 32.0009 9.62756 32 10.0098 32H21.9893C22.3716 32 22.7538 32 23.136 31.9982C23.4578 31.9964 23.7796 31.9929 24.1013 31.984C24.8027 31.9653 25.5102 31.9236 26.2036 31.7991C26.9076 31.6729 27.5618 31.4658 28.2009 31.1404C28.8293 30.8204 29.4044 30.4027 29.9031 29.904C30.4018 29.4053 30.8196 28.8311 31.1396 28.2027C31.4649 27.5627 31.672 26.9076 31.7982 26.2036C31.9227 25.5102 31.9644 24.8027 31.9831 24.1022C31.992 23.7804 31.9956 23.4587 31.9973 23.1369C32 22.7547 31.9991 22.3724 31.9991 21.9902V10.0098H32Z" fill="url(#paint0_linear_20_140)"/>
<path fill-rule="evenodd" clip-rule="evenodd" d="M22.6222 4.88892C22.5448 4.89603 21.8577 5.01781 21.7751 5.0347L12.264 6.95381H12.2604C12.0124 7.00714 11.8177 7.09514 11.6675 7.22136C11.4862 7.37336 11.3857 7.58848 11.3475 7.83914C11.3395 7.89248 11.3262 8.00092 11.3262 8.16092V20.0649C11.3262 20.3431 11.304 20.6134 11.1155 20.8436C10.9271 21.0738 10.6942 21.1431 10.4213 21.1983C10.2142 21.24 10.0071 21.2818 9.79995 21.3236C9.01417 21.4818 8.50306 21.5894 8.03995 21.7689C7.59729 21.9405 7.26573 22.1591 7.00173 22.4365C6.47817 22.9849 6.26573 23.7289 6.33862 24.4258C6.40084 25.0205 6.6684 25.5894 7.12795 26.0098C7.43817 26.2943 7.82573 26.5103 8.28262 26.6018C8.7564 26.6969 9.26129 26.664 9.99906 26.5147C10.392 26.4356 10.76 26.312 11.1102 26.1049C11.4568 25.9005 11.7537 25.6276 11.9857 25.2951C12.2186 24.9618 12.3688 24.5911 12.4515 24.1974C12.5368 23.7911 12.5573 23.424 12.5573 23.0187V12.6943C12.5573 12.1414 12.7137 11.9956 13.16 11.8871C13.16 11.8871 21.0657 10.2925 21.4346 10.2205C21.9493 10.1218 22.192 10.2685 22.192 10.808V17.856C22.192 18.1351 22.1893 18.4178 21.9991 18.6489C21.8106 18.8791 21.5777 18.9485 21.3048 19.0036L20.6835 19.1289C19.8977 19.2871 19.3866 19.3947 18.9235 19.5743C18.4808 19.7458 18.1493 19.9645 17.8853 20.2418C17.3617 20.7903 17.1306 21.5343 17.2035 22.2311C17.2657 22.8258 17.552 23.3947 18.0115 23.8151C18.3217 24.0996 18.7093 24.3094 19.1662 24.4018C19.64 24.4969 20.1448 24.4631 20.8826 24.3147C21.2755 24.2356 21.6435 24.1174 21.9937 23.9103C22.3404 23.7058 22.6373 23.4329 22.8693 23.1005C23.1022 22.7671 23.2524 22.3965 23.3351 22.0027C23.4204 21.5965 23.424 21.2294 23.424 20.824V5.72981C23.4257 5.18225 23.1368 4.84448 22.6222 4.88892Z" fill="white"/>
</g>
<defs>
<linearGradient id="paint0_linear_20_140" x1="16" y1="31.8764" x2="16" y2="0.689778" gradientUnits="userSpaceOnUse">
<stop stop-color="#FA233B"/>
<stop offset="1" stop-color="#FB5C74"/>
</linearGradient>
<clipPath id="clip0_20_140">
<rect width="32" height="32" fill="white"/>
</clipPath>
</defs>
</svg>
