<svg width="32" height="32" viewBox="0 0 32 32" fill="none" xmlns="http://www.w3.org/2000/svg">
<path d="M28.0002 8H22.8103V11.0267H28.0002V8Z" fill="#29AB70"/>
<path d="M28.0002 12.2144H22.8103V15.2411H28.0002V12.2144Z" fill="url(#paint0_linear_1148_1830)"/>
<path d="M28.0002 16.4297H22.8103V19.4564H28.0002V16.4297Z" fill="url(#paint1_linear_1148_1830)"/>
<path d="M9.18985 20.6484H4V23.6752H9.18985V20.6484Z" fill="url(#paint2_linear_1148_1830)"/>
<path d="M15.4596 20.6484H10.2698V23.6752H15.4596V20.6484Z" fill="url(#paint3_linear_1148_1830)"/>
<path d="M21.7326 20.6484H16.5427V23.6752H21.7326V20.6484Z" fill="url(#paint4_linear_1148_1830)"/>
<path d="M28.0002 20.6484H22.8103V23.6752H28.0002V20.6484Z" fill="url(#paint5_linear_1148_1830)"/>
<path d="M21.7326 16.4297H16.5427V19.4564H21.7326V16.4297Z" fill="url(#paint6_linear_1148_1830)"/>
<path d="M15.4596 16.4297H10.2698V19.4564H15.4596V16.4297Z" fill="url(#paint7_linear_1148_1830)"/>
<path d="M15.4596 12.2144H10.2698V15.2411H15.4596V12.2144Z" fill="url(#paint8_linear_1148_1830)"/>
<defs>
<linearGradient id="paint0_linear_1148_1830" x1="25.745" y1="15.6418" x2="25.0682" y2="11.8164" gradientUnits="userSpaceOnUse">
<stop stop-color="#2C8C9D"/>
<stop offset="0.04" stop-color="#298E9A"/>
<stop offset="0.39" stop-color="#129C83"/>
<stop offset="0.72" stop-color="#05A475"/>
<stop offset="1" stop-color="#00A770"/>
</linearGradient>
<linearGradient id="paint1_linear_1148_1830" x1="22.7345" y1="19.3075" x2="28.0787" y2="16.584" gradientUnits="userSpaceOnUse">
<stop stop-color="#2839BA"/>
<stop offset="1" stop-color="#148CB3"/>
</linearGradient>
<linearGradient id="paint2_linear_1148_1830" x1="4.00271" y1="22.1618" x2="9.18985" y2="22.1618" gradientUnits="userSpaceOnUse">
<stop stop-color="#F6A500"/>
<stop offset="1" stop-color="#F29100"/>
</linearGradient>
<linearGradient id="paint3_linear_1148_1830" x1="10.2698" y1="22.1618" x2="15.4596" y2="22.1618" gradientUnits="userSpaceOnUse">
<stop stop-color="#F29100"/>
<stop offset="1" stop-color="#D12F5F"/>
</linearGradient>
<linearGradient id="paint4_linear_1148_1830" x1="16.5427" y1="22.1618" x2="21.7326" y2="22.1618" gradientUnits="userSpaceOnUse">
<stop stop-color="#B4197C"/>
<stop offset="1" stop-color="#472EAD"/>
</linearGradient>
<linearGradient id="paint5_linear_1148_1830" x1="22.813" y1="22.1618" x2="28.0002" y2="22.1618" gradientUnits="userSpaceOnUse">
<stop stop-color="#2839BA"/>
<stop offset="1" stop-color="#3072B7"/>
</linearGradient>
<linearGradient id="paint6_linear_1148_1830" x1="16.3397" y1="18.7634" x2="21.9356" y2="17.1282" gradientUnits="userSpaceOnUse">
<stop stop-color="#B4197C"/>
<stop offset="1" stop-color="#373AAC"/>
</linearGradient>
<linearGradient id="paint7_linear_1148_1830" x1="10.0884" y1="16.9332" x2="15.6437" y2="18.9556" gradientUnits="userSpaceOnUse">
<stop stop-color="#FFCB00"/>
<stop offset="1" stop-color="#D12F5F"/>
</linearGradient>
<linearGradient id="paint8_linear_1148_1830" x1="10.7111" y1="11.7406" x2="15.021" y2="15.7203" gradientUnits="userSpaceOnUse">
<stop stop-color="#FFCF00"/>
<stop offset="1" stop-color="#ED743B"/>
</linearGradient>
</defs>
</svg>
