<svg width="32" height="32" viewBox="0 0 32 32" fill="none" xmlns="http://www.w3.org/2000/svg">
<rect x="2" y="2" width="28" height="28" rx="14" fill="white"/>
<path fill-rule="evenodd" clip-rule="evenodd" d="M16 2C8.26801 2 2 8.26801 2 16C2 23.732 8.26801 30 16 30C23.732 30 30 23.732 30 16C30 8.26801 23.732 2 16 2ZM20.8776 22.0631C21.2622 22.2991 21.767 22.1767 22.0008 21.7921C22.2368 21.4053 22.1144 20.9028 21.7298 20.6668C18.2729 18.5559 13.9901 18.0643 8.99485 19.2049C8.55563 19.3054 8.28031 19.7446 8.38082 20.1838C8.48134 20.6252 8.92055 20.9006 9.35977 20.8001C13.9245 19.7577 17.7988 20.1838 20.8776 22.0631ZM23.6047 18.2216C23.3097 18.7024 22.6804 18.8553 22.1997 18.5581C18.675 16.3927 13.3018 15.7655 9.13473 17.0307C8.595 17.1946 8.02249 16.8887 7.85861 16.349C7.69472 15.8092 8.00064 15.2389 8.54037 15.075C13.3018 13.6307 19.2213 14.3299 23.2682 16.8166C23.7489 17.1116 23.8997 17.7409 23.6047 18.2216ZM8.51201 12.988C12.5458 11.7643 19.5164 11.9938 23.7424 14.5045C24.3237 14.8497 25.0775 14.6574 25.4228 14.0762C25.7702 13.4949 25.5779 12.7411 24.9945 12.3958C20.1304 9.50707 12.43 9.23612 7.79966 10.6412C7.15067 10.8378 6.78575 11.5218 6.98242 12.1708C7.17908 12.8197 7.86521 13.1847 8.51201 12.988Z" fill="#1ED760"/>
</svg>
