<svg width="32" height="32" viewBox="0 0 32 32" fill="none" xmlns="http://www.w3.org/2000/svg">
<path fill-rule="evenodd" clip-rule="evenodd" d="M0.871948 4.36808C0 6.07937 0 8.31958 0 12.8V19.2C0 23.6804 0 25.9206 0.871948 27.6319C1.63893 29.1372 2.86278 30.3611 4.36808 31.1281C6.07937 32 8.31958 32 12.8 32H19.2C23.6804 32 25.9206 32 27.6319 31.1281C29.1372 30.3611 30.3611 29.1372 31.1281 27.6319C32 25.9206 32 23.6804 32 19.2V12.8C32 8.31958 32 6.07937 31.1281 4.36808C30.3611 2.86278 29.1372 1.63893 27.6319 0.871948C25.9206 0 23.6804 0 19.2 0H12.8C8.31958 0 6.07937 0 4.36808 0.871948C2.86278 1.63893 1.63893 2.86278 0.871948 4.36808ZM4.28003 18.4545L4.46003 17.1745C4.46003 16.9945 4.64003 16.9945 4.64003 17.1745L4.82003 18.4545L4.64003 19.7345C4.64003 19.8545 4.46003 19.8545 4.46003 19.7345L4.28003 18.4545ZM5.34003 16.3545C5.34003 16.1745 5.52003 16.1745 5.52003 16.3545L5.76003 18.4545L5.52003 20.5145C5.52003 20.6945 5.28003 20.6945 5.28003 20.5145L5.04003 18.4545L5.34003 16.3545ZM8.80003 18.4545L8.96003 14.5945C8.96003 14.2945 9.32003 14.2945 9.34003 14.5945L9.58003 18.4545L9.34003 20.7945C9.34003 21.2545 8.92003 21.2545 8.92003 20.7945L8.80003 18.4545ZM6.92003 18.4745L7.16003 15.8945C7.16003 15.7145 7.38003 15.7145 7.40003 15.8945L7.64003 18.4745L7.40003 20.8145C7.40003 21.1745 7.10003 21.1745 7.10003 20.8145L6.92003 18.4745ZM11.44 18.4745L11.26 20.8145C11.26 21.2745 10.78 21.2745 10.78 20.8145L10.66 18.4745L10.84 13.3145C10.84 12.9545 11.26 12.9545 11.26 13.3145L11.44 18.4745ZM15.36 18.4745L15.24 20.8145C15.24 21.2745 14.66 21.2745 14.66 20.8145L14.54 18.4745L14.66 12.4945C14.66 12.0745 15.24 12.0745 15.24 12.4945L15.36 18.4745ZM13.42 18.4745L13.24 20.8145C13.24 21.2745 12.72 21.2745 12.72 20.7945L12.6 18.4545L12.72 13.2545C12.72 12.8945 13.24 12.8945 13.24 13.2545L13.42 18.4745ZM8.56003 18.4745L8.38003 20.8145C8.38003 21.2145 8.04003 21.2145 8.02003 20.8145L7.84003 18.4745L8.02003 16.0745C8.02003 15.8945 8.38003 15.8945 8.38003 16.0745L8.56003 18.4745ZM6.68003 18.4745L6.44003 20.8145C6.44003 21.0345 6.22003 21.0345 6.20003 20.8145L5.96003 18.4745L6.20003 15.9545C6.20003 15.7745 6.44003 15.7745 6.44003 15.9545L6.68003 18.4745ZM13.6 18.4545L13.72 13.4745C13.72 13.0745 14.24 13.0745 14.24 13.4745L14.36 18.4545L14.24 20.7945C14.24 21.2545 13.66 21.2545 13.66 20.7945L13.6 18.4545ZM10.5 18.4745L10.32 20.8145C10.32 21.2745 9.84003 21.2745 9.84003 20.8145L9.72003 18.4745L9.90003 13.7345C9.90003 13.3745 10.32 13.3745 10.32 13.7345L10.5 18.4745ZM12.42 18.4745L12.24 20.8145C12.24 21.2745 11.78 21.2745 11.78 20.7945L11.6 18.4545L11.78 13.1345C11.78 12.7745 12.24 12.7745 12.24 13.1345L12.42 18.4745ZM16.82 11.3145C19.98 10.0945 23.44 12.2545 23.74 15.5945C25.66 14.9545 27.72 16.1145 27.72 18.2945C27.72 19.8945 26.42 21.1745 24.84 21.1745H16.82C16.64 21.1745 16.52 20.9945 16.52 20.8145V11.6745C16.52 11.4945 16.58 11.4345 16.82 11.3145ZM15.46 18.4545L15.64 11.9545C15.64 11.5545 16.24 11.5545 16.24 11.9545L16.4 18.4545L16.22 20.7945C16.22 21.2545 15.64 21.2545 15.64 20.7945L15.46 18.4545Z" fill="#FF5500"/>
</svg>
