<svg width="32" height="32" viewBox="0 0 32 32" fill="none" xmlns="http://www.w3.org/2000/svg">
<rect width="32" height="32" rx="8" fill="white"/>
<rect x="0.16" y="0.16" width="31.68" height="31.68" rx="7.84" stroke="black" stroke-opacity="0.16" stroke-width="0.32"/>
<mask id="mask0_1142_1574" style="mask-type:alpha" maskUnits="userSpaceOnUse" x="8" y="6" width="18" height="20">
<path d="M17.5055 6.33203H8.81836V25.6645H14.0018C14.485 25.6645 14.8754 25.2741 14.8754 24.791V21.0762H16.1744C22.5226 21.0762 25.1175 17.4989 25.1175 13.3137C25.1207 8.14945 21.1979 6.33203 17.5055 6.33203Z" fill="url(#paint0_linear_1142_1574)"/>
</mask>
<g mask="url(#mask0_1142_1574)">
<path d="M16.4368 -1.52937L16.7183 -1.44618C17.1343 -1.32459 17.4862 -1.04942 17.707 -0.678255L18.1038 -0.00632203C18.3246 0.364841 18.6765 0.640013 19.0925 0.761601L19.8412 0.982379C20.2572 1.10397 20.6091 1.37914 20.8299 1.7503L21.2267 2.42224C21.4475 2.7934 21.7994 3.06857 22.2154 3.19016L22.9641 3.41094C23.3801 3.53252 23.732 3.8077 23.9528 4.17886L24.3496 4.85079C24.5703 5.22196 24.9223 5.49713 25.3383 5.61872L26.087 5.83949C26.5029 5.96108 26.8549 6.23625 27.0757 6.60742L27.4757 7.28255C27.6932 7.65371 28.0452 7.92568 28.458 8.05047L29.2163 8.27445C29.6226 8.39604 29.9714 8.66481 30.189 9.02638L30.3394 9.27595C30.7073 9.88069 30.6593 10.6518 30.2242 11.2086L29.2227 12.4948C28.6435 13.2372 27.5716 13.3715 26.8293 12.7924L13.9058 2.7422C13.1635 2.16306 13.0291 1.09117 13.6082 0.348843L14.6129 -0.940629C15.0385 -1.49417 15.7648 -1.72775 16.4368 -1.52937Z" fill="url(#paint1_linear_1142_1574)"/>
<path d="M27.3957 8.89855C27.4885 8.94654 27.5909 8.98814 27.6933 9.01694L28.4484 9.24091C28.8547 9.3625 29.2035 9.63127 29.4243 9.99604L29.5747 10.2456C29.9394 10.8504 29.8914 11.6183 29.4563 12.175L28.4516 13.4613C27.8724 14.2036 26.8005 14.3348 26.0582 13.7557L13.1475 3.69267C12.4052 3.11353 12.2708 2.04163 12.8499 1.29611L13.8546 0.00663704C14.2866 -0.546908 15.0097 -0.780484 15.6817 -0.582104L15.9632 -0.498912C16.3792 -0.377325 16.7311 -0.102152 16.9519 0.27221L17.3487 0.944143C17.5695 1.31531 17.9214 1.59368 18.3374 1.71527L19.0861 1.93604C19.5021 2.05763 19.854 2.3328 20.0748 2.70717L20.4716 3.3791C20.6924 3.75026 21.0443 4.02863 21.4603 4.15022L22.209 4.371C22.625 4.49259 22.9769 4.76776 23.1977 5.14212L23.5945 5.81406C23.8152 6.18522 24.1672 6.46359 24.5832 6.58518L25.3319 6.80596C25.7478 6.92755 26.0998 7.20272 26.3206 7.57708L26.7173 8.25221C26.8741 8.52738 27.1141 8.75136 27.3957 8.89855Z" fill="url(#paint2_linear_1142_1574)"/>
<path d="M14.9329 0.374481L15.2145 0.457673C15.6304 0.579261 15.9824 0.857633 16.2 1.2288L16.5967 1.90073C16.8175 2.27509 17.1695 2.55026 17.5822 2.67185L18.331 2.89263C18.7469 3.01422 19.0989 3.29259 19.3165 3.66375L19.7132 4.33569C19.934 4.71005 20.286 4.98522 20.6987 5.10681L21.4474 5.32759C21.8634 5.44917 22.2154 5.72755 22.4329 6.09871L22.8297 6.77064C23.0505 7.145 23.4024 7.42018 23.8152 7.54177L24.5639 7.76254C24.9799 7.88413 25.3319 8.1625 25.5494 8.53367L25.9462 9.2088C26.1638 9.57996 26.5157 9.85513 26.9285 9.97992L27.6836 10.2039C28.0932 10.3255 28.4419 10.5975 28.6595 10.9654L28.8099 11.215C29.1715 11.8197 29.1235 12.5877 28.6883 13.1412L27.6836 14.4275C27.1045 15.1698 26.0326 15.301 25.2903 14.7218L12.3923 4.64285C11.65 4.06371 11.5188 2.98862 12.098 2.24629L13.1027 0.960023C13.5346 0.409678 14.261 0.176101 14.9329 0.374481Z" fill="url(#paint3_linear_1142_1574)"/>
<path d="M16.3662 1.8305L16.6477 1.9137C17.0637 2.03528 17.4157 2.31366 17.6332 2.68482L18.0268 3.35675C18.2444 3.73111 18.5995 4.00629 19.0123 4.12788L19.761 4.34865C20.177 4.47024 20.5289 4.74861 20.7465 5.11978L21.1401 5.79171C21.3577 6.16607 21.7128 6.44124 22.1256 6.56283L22.8743 6.78361C23.2903 6.9052 23.6422 7.18357 23.8598 7.55473L24.2534 8.22667C24.471 8.60103 24.8261 8.8762 25.2389 8.99779L25.9876 9.21857C26.4036 9.34015 26.7555 9.61853 26.9731 9.98969L27.3699 10.6648C27.5874 11.036 27.9394 11.3112 28.3522 11.4359L29.1041 11.6599C29.5137 11.7815 29.8624 12.0567 30.0832 12.4246L30.2336 12.6774C30.5919 13.2822 30.5439 14.0469 30.1088 14.6004L29.1009 15.8867C28.5185 16.629 27.4467 16.757 26.7043 16.1779L13.8192 6.09568C13.0769 5.51334 12.9457 4.44144 13.528 3.69912L14.5359 2.41285C14.9679 1.8625 15.6942 1.63212 16.3662 1.8305Z" fill="url(#paint4_linear_1142_1574)"/>
<path d="M13.4289 2.28152L13.7105 2.36471C14.1264 2.4895 14.4784 2.76467 14.696 3.13903L15.0895 3.81096C15.3071 4.18533 15.6591 4.4605 16.075 4.58529L16.8238 4.80926C17.2397 4.93405 17.5917 5.20922 17.8093 5.58359L18.2028 6.25552C18.4204 6.62988 18.7724 6.90506 19.1883 7.02984L19.9371 7.25382C20.353 7.37861 20.705 7.65378 20.9226 8.02814L21.3161 8.70008C21.5337 9.07444 21.8857 9.34961 22.3016 9.4744L23.0503 9.69838C23.4663 9.82316 23.8183 10.0983 24.0358 10.4727L24.4294 11.1478C24.647 11.519 24.999 11.7974 25.4117 11.9222L26.1636 12.1461C26.5764 12.2709 26.9252 12.5429 27.1427 12.9141L27.2899 13.1668C27.6483 13.7716 27.5971 14.5363 27.1619 15.0866L26.154 16.3697C25.5717 17.112 24.4998 17.24 23.7575 16.6577L10.8788 6.54349C10.1364 5.96115 10.0085 4.88926 10.5908 4.14693L11.5987 2.86066C12.0307 2.31031 12.757 2.07994 13.4289 2.28152Z" fill="url(#paint5_linear_1142_1574)"/>
<path d="M11.1444 -0.300681L11.4132 -0.185492C11.8099 -0.0159093 12.1299 0.300859 12.3027 0.697619L12.6162 1.41115C12.789 1.80791 13.109 2.12148 13.5057 2.29426L14.2225 2.60143C14.6192 2.77101 14.9392 3.08778 15.112 3.48454L15.4256 4.19807C15.5983 4.59483 15.9183 4.9084 16.3151 5.08118L17.0318 5.38835C17.4286 5.55793 17.7485 5.8747 17.9213 6.27146L18.2349 6.98499C18.4077 7.38175 18.7276 7.69532 19.1244 7.8681L19.8411 8.17527C20.2379 8.34485 20.5578 8.66162 20.7306 9.05838L21.0442 9.77511C21.217 10.1719 21.5337 10.4854 21.9305 10.655L22.6504 10.9654C23.044 11.135 23.3608 11.4485 23.5335 11.8421L23.6519 12.1109C23.9367 12.754 23.7991 13.5059 23.3032 14.0051L22.1513 15.1634C21.4858 15.8321 20.4075 15.8353 19.7387 15.173L8.11749 3.63813C7.44875 2.97579 7.44555 1.8943 8.10789 1.22557L9.25977 0.0672823C9.75252 -0.431868 10.5012 -0.579053 11.1444 -0.300681Z" fill="url(#paint6_linear_1142_1574)"/>
<path d="M12.3954 3.84596L12.6802 3.90996C13.1025 4.00595 13.4705 4.26192 13.7137 4.62028L14.1488 5.26662C14.392 5.62498 14.76 5.87776 15.1823 5.97695L15.9439 6.15293C16.3662 6.24892 16.7342 6.5049 16.9774 6.86326L17.4125 7.5096C17.6557 7.86796 18.0237 8.12073 18.446 8.21992L19.2075 8.39591C19.6299 8.4919 19.9979 8.74787 20.241 9.10624L20.6762 9.75257C20.9194 10.1109 21.2873 10.3637 21.7097 10.4629L22.4712 10.6389C22.8936 10.7349 23.2615 10.9908 23.5047 11.3492L23.9399 11.9955C24.1798 12.3539 24.551 12.6067 24.9702 12.7059L25.7317 12.8819C26.1508 12.9778 26.5188 13.2306 26.762 13.589L26.9252 13.8322C27.3187 14.4145 27.3155 15.176 26.9188 15.7552L25.9941 17.1022C25.4597 17.8798 24.3974 18.0749 23.6199 17.5406L10.1204 8.26152C9.34292 7.72717 9.14774 6.66488 9.67889 5.88736L10.6036 4.54029C11.0036 3.96755 11.7139 3.68918 12.3954 3.84596Z" fill="url(#paint7_linear_1142_1574)"/>
<path d="M13.093 2.55669L13.3586 2.67828C13.7522 2.85746 14.0625 3.18063 14.2289 3.58059L14.5265 4.30052C14.6897 4.70048 15.0032 5.02364 15.3968 5.20283L16.1071 5.52599C16.5007 5.70518 16.811 6.02834 16.9774 6.4283L17.275 7.14823C17.4382 7.54819 17.7518 7.87136 18.1453 8.05054L18.8556 8.37371C19.2492 8.55289 19.5596 8.87606 19.726 9.27602L20.0235 9.99595C20.1867 10.3959 20.5003 10.7191 20.8938 10.8983L21.6042 11.2214C21.9977 11.4006 22.3081 11.7238 22.4745 12.1237L22.772 12.8469C22.9352 13.2468 23.2456 13.57 23.6392 13.7492L24.3495 14.0755C24.743 14.2547 25.0502 14.5747 25.2166 14.9746L25.3286 15.2434C25.5974 15.893 25.4406 16.6385 24.935 17.1248L23.7575 18.2575C23.0792 18.9103 21.9977 18.8911 21.345 18.2127L9.97973 6.4251C9.32699 5.74677 9.34619 4.66528 10.0245 4.01254L11.202 2.87986C11.7076 2.39351 12.4563 2.26552 13.093 2.55669Z" fill="url(#paint8_linear_1142_1574)"/>
<path d="M11.9251 4.18533L12.2034 4.26852C12.6162 4.3933 12.9681 4.67168 13.1857 5.04284L13.5793 5.71797C13.7969 6.09233 14.1488 6.36751 14.5616 6.49229L15.3103 6.71627C15.7231 6.84106 16.075 7.11943 16.2926 7.4906L16.6862 8.16573C16.9038 8.54009 17.2557 8.81526 17.6685 8.94005L18.4172 9.16403C18.83 9.28882 19.1819 9.56719 19.3995 9.93835L19.7931 10.6135C20.0106 10.9878 20.3626 11.263 20.7754 11.3878L21.5241 11.6118C21.9369 11.7366 22.2888 12.0149 22.5064 12.3861L22.9 13.0612C23.1175 13.4356 23.4695 13.7108 23.8823 13.8356L24.631 14.0595C25.0437 14.1843 25.3957 14.4627 25.6133 14.8339L25.7605 15.0866C26.1124 15.6914 26.0612 16.4529 25.6261 17.0032L24.615 18.2863C24.0326 19.0254 22.9576 19.1534 22.2184 18.5711L9.36531 8.4441C8.62618 7.86176 8.49819 6.78667 9.08054 6.04754L10.0916 4.76447C10.5268 4.21412 11.2531 3.98375 11.9251 4.18533Z" fill="url(#paint9_linear_1142_1574)"/>
<path d="M9.3366 1.74372L9.60537 1.85571C10.0053 2.02209 10.3285 2.33246 10.5077 2.72602L10.8308 3.43635C11.01 3.82991 11.3332 4.14028 11.7332 4.30667L12.4531 4.60424C12.853 4.77062 13.1762 5.08099 13.3554 5.47455L13.6786 6.18488C13.8577 6.57844 14.1809 6.88881 14.5809 7.05519L15.3008 7.35276C15.7008 7.51914 16.0239 7.82951 16.2031 8.22307L16.5263 8.9334C16.7055 9.32696 17.0286 9.63733 17.4286 9.80372L18.1485 10.1013C18.5485 10.2677 18.8716 10.578 19.0508 10.9716L19.374 11.6819C19.5532 12.0755 19.8763 12.3859 20.2763 12.5522L20.9962 12.8498C21.3962 13.0162 21.7194 13.3266 21.8985 13.7201L22.0201 13.9857C22.3113 14.6224 22.1833 15.3744 21.697 15.8767L20.5643 17.0542C19.9115 17.7325 18.83 17.7517 18.1517 17.099L6.3673 5.72412C5.68896 5.07139 5.66976 3.9899 6.3225 3.31156L7.45519 2.13408C7.94474 1.63173 8.69026 1.47495 9.3366 1.74372Z" fill="url(#paint10_linear_1142_1574)"/>
<path d="M11.3203 5.21558L11.5987 5.29877C12.0114 5.42356 12.3634 5.70193 12.581 6.0731L12.9746 6.74823C13.1921 7.12259 13.5441 7.39776 13.9569 7.52255L14.7056 7.74653C15.1183 7.87132 15.4703 8.14969 15.6879 8.52085L16.0814 9.19598C16.299 9.57034 16.651 9.84552 17.0637 9.97031L17.8125 10.1943C18.2252 10.3191 18.5772 10.5974 18.7948 10.9686L19.1883 11.6437C19.4059 12.0181 19.7579 12.2933 20.1706 12.4181L20.9194 12.642C21.3321 12.7668 21.6841 13.0452 21.9017 13.4164L22.2952 14.0915C22.5128 14.4659 22.8648 14.741 23.2775 14.8658L24.0262 15.0898C24.439 15.2146 24.791 15.493 25.0086 15.8641L25.1557 16.1169C25.5077 16.7216 25.4565 17.4832 25.0213 18.0335L24.0102 19.3166C23.4279 20.0557 22.3528 20.1837 21.6137 19.6013L8.76057 9.47116C8.02145 8.88881 7.89346 7.81372 8.4758 7.0746L9.4869 5.79152C9.92206 5.24118 10.6484 5.014 11.3203 5.21558Z" fill="url(#paint11_linear_1142_1574)"/>
<path d="M9.01021 2.39649L9.27578 2.51808C9.66935 2.70046 9.97972 3.02363 10.1429 3.42359L10.4373 4.14672C10.6005 4.54668 10.9108 4.86984 11.3044 5.05223L12.0147 5.37859C12.4083 5.56098 12.7186 5.88414 12.8818 6.2841L13.1762 7.00723C13.3394 7.40719 13.6497 7.73036 14.0433 7.91274L14.7536 8.23911C15.1472 8.42149 15.4576 8.74466 15.6208 9.14462L15.9151 9.86774C16.0783 10.2677 16.3887 10.5909 16.7822 10.7733L17.4926 11.0996C17.8861 11.282 18.1965 11.6052 18.3597 12.0051L18.654 12.7283C18.8172 13.1282 19.1276 13.4514 19.5212 13.6338L20.2315 13.9601C20.6251 14.1425 20.9354 14.4657 21.0986 14.8656L21.2106 15.1376C21.4762 15.7872 21.3162 16.5295 20.8106 17.0158L19.6299 18.1453C18.9484 18.798 17.8701 18.7725 17.2174 18.0941L5.88412 6.25851C5.23139 5.57697 5.25699 4.49868 5.93532 3.84595L7.116 2.71646C7.62155 2.23011 8.37348 2.10532 9.01021 2.39649Z" fill="url(#paint12_linear_1142_1574)"/>
<path d="M10.3477 6.24244L10.626 6.32563C11.0388 6.45042 11.3908 6.72879 11.6083 7.09995L12.0019 7.77508C12.2195 8.14945 12.5714 8.42462 12.9842 8.54941L13.7329 8.77338C14.1457 8.89817 14.4976 9.17654 14.7152 9.54771L15.1088 10.2228C15.3264 10.5972 15.6783 10.8724 16.0911 10.9972L16.8398 11.2211C17.2526 11.3459 17.6045 11.6243 17.8221 11.9955L18.2157 12.6706C18.4333 13.045 18.7852 13.3201 19.198 13.4449L19.9467 13.6689C20.3595 13.7937 20.7114 14.0721 20.929 14.4432L21.3226 15.1183C21.5401 15.4927 21.8921 15.7679 22.3049 15.8927L23.0536 16.1166C23.4663 16.2414 23.8183 16.5198 24.0359 16.891L24.1831 17.1437C24.535 17.7485 24.4839 18.51 24.0487 19.0604L23.0376 20.3434C22.4552 21.0826 21.3802 21.2105 20.641 20.6282L7.78791 10.498C7.04879 9.91567 6.9208 8.84058 7.50314 8.10145L8.51424 6.81838C8.9526 6.26803 9.67893 6.04086 10.3477 6.24244Z" fill="url(#paint13_linear_1142_1574)"/>
<path d="M10.7347 5.91651L11.0035 6.0285C11.4035 6.19489 11.7234 6.50846 11.8994 6.90522L12.2194 7.61874C12.3954 8.01231 12.7153 8.32587 13.1153 8.49546L13.8352 8.79943C14.2352 8.96581 14.5551 9.27938 14.7311 9.67614L15.0511 10.3897C15.2271 10.7832 15.547 11.0968 15.947 11.2664L16.6669 11.5704C17.0669 11.7367 17.3869 12.0503 17.5628 12.4471L17.8828 13.1606C18.0588 13.5542 18.3788 13.8677 18.7787 14.0373L19.4986 14.3413C19.8986 14.5077 20.2186 14.8212 20.3946 15.218L20.7145 15.9315C20.8905 16.3251 21.1785 16.7986 21.5784 16.9682L22.3464 17.6081C22.7463 17.7745 23.0023 17.6625 23.1783 18.0561L23.3703 18.2481C23.655 18.888 23.495 19.6431 23.0055 20.1455L21.8632 21.3134C21.2041 21.9885 20.1226 21.9981 19.4507 21.339L7.73662 9.87772C7.06149 9.21859 7.05189 8.13709 7.71103 7.46516L8.85331 6.29728C9.34286 5.79493 10.0916 5.64454 10.7347 5.91651Z" fill="url(#paint14_linear_1142_1574)"/>
<path d="M9.56055 7.26978L9.83892 7.35297C10.2517 7.47776 10.6036 7.75613 10.8212 8.12729L11.2148 8.80243C11.4324 9.17679 11.7843 9.45196 12.1971 9.57675L12.9458 9.80073C13.3586 9.92551 13.7105 10.2039 13.9281 10.575L14.3217 11.2502C14.5393 11.6245 14.8912 11.8997 15.304 12.0245L16.0527 12.2485C16.4655 12.3733 16.8174 12.6516 17.035 13.0228L17.4286 13.6979C17.6461 14.0723 17.9981 14.3475 18.4109 14.4723L19.1596 14.6962C19.5724 14.821 19.9243 15.0994 20.1419 15.4706L20.5355 16.1457C20.753 16.5201 21.105 16.7952 21.5178 16.92L22.2665 17.144C22.6792 17.2688 23.0312 17.5472 23.2488 17.9183L23.396 18.1711C23.7479 18.7758 23.6967 19.5374 23.2616 20.0877L22.2505 21.3708C21.6681 22.1099 20.593 22.2379 19.8539 21.6555L7.00081 11.5254C6.26168 10.943 6.13369 9.86792 6.71603 9.12879L7.72713 7.84572C8.16229 7.29538 8.88862 7.0682 9.56055 7.26978Z" fill="url(#paint15_linear_1142_1574)"/>
<path d="M9.62778 6.67121L9.89655 6.7896C10.2933 6.96238 10.6101 7.27915 10.7797 7.67591L11.09 8.39264C11.2628 8.7894 11.5764 9.10617 11.9731 9.27895L12.6867 9.59252C13.0834 9.7653 13.4002 10.0821 13.5698 10.4788L13.8802 11.1956C14.0529 11.5923 14.3665 11.9091 14.7633 12.0819L15.4768 12.3954C15.8736 12.5682 16.1903 12.885 16.3599 13.2818L16.6703 13.9985C16.8431 14.3952 17.1566 14.712 17.5534 14.8848L18.2669 15.1984C18.6637 15.3711 18.9804 15.6879 19.15 16.0847L19.4604 16.8014C19.6332 17.1982 19.8284 17.7389 20.2219 17.9117L21.057 18.0013C21.4538 18.1741 21.7706 18.4908 21.9401 18.8876L22.0553 19.1564C22.3337 19.7995 22.1897 20.5482 21.6906 21.041L20.5323 22.1929C19.8636 22.8584 18.7853 22.8552 18.1197 22.1865L6.57528 10.5908C5.90975 9.92209 5.91295 8.84379 6.58168 8.17826L7.73996 7.02638C8.23591 6.53043 8.98464 6.38964 9.62778 6.67121Z" fill="url(#paint16_linear_1142_1574)"/>
<path d="M8.77344 8.2967L9.05181 8.37989C9.46457 8.50468 9.81654 8.78305 10.0341 9.15421L10.4277 9.82935C10.6453 10.2037 10.9972 10.4789 11.41 10.6037L12.1587 10.8276C12.5715 10.9524 12.9234 11.2308 13.141 11.602L13.5346 12.2771C13.7521 12.6515 14.1041 12.9266 14.5169 13.0514L15.2656 13.2754C15.6784 13.4002 16.0303 13.6786 16.2479 14.0497L16.6415 14.7249C16.859 15.0992 17.211 15.3744 17.6238 15.4992L18.3725 15.7232C18.7852 15.8479 19.1372 16.1263 19.3548 16.4975L19.7483 17.1726C19.9659 17.547 20.3179 17.8221 20.7306 17.9469L21.4794 18.1709C21.8921 18.2957 22.2441 18.5741 22.4617 18.9452L22.6089 19.198C22.9608 19.8027 22.9096 20.5643 22.4745 21.1146L21.4634 22.3977C20.881 23.1368 19.8059 23.2648 19.0668 22.6825L6.2137 12.5523C5.47457 11.9699 5.34658 10.8948 5.92893 10.1557L6.94002 8.87264C7.37518 8.3255 8.10151 8.09512 8.77344 8.2967Z" fill="url(#paint17_linear_1142_1574)"/>
<path d="M10.7444 11.9095L11.0323 11.951C11.4611 12.015 11.8483 12.2358 12.1202 12.575L12.6066 13.1861C12.8754 13.5253 13.2657 13.7461 13.6945 13.8101L14.4656 13.922C14.8944 13.986 15.2815 14.2068 15.5535 14.546L16.0398 15.1571C16.3086 15.4963 16.699 15.7171 17.1277 15.7811L17.8989 15.8931C18.3276 15.957 18.7148 16.1778 18.9867 16.517L19.4731 17.1281C19.7419 17.4673 20.1322 17.6881 20.561 17.7521L21.3321 17.8641C21.7609 17.928 22.148 18.1488 22.42 18.488L22.9064 19.0991C23.1751 19.4383 23.5655 19.6591 23.9942 19.7231L24.7654 19.8351C25.1941 19.8991 25.5813 20.1198 25.8533 20.459L26.0356 20.6862C26.474 21.2333 26.5316 21.9916 26.1828 22.5996L25.3701 24.017C24.8998 24.833 23.8567 25.1177 23.0407 24.6474L8.83416 16.4946C8.01824 16.0242 7.73347 14.9811 8.20382 14.1652L9.01654 12.7478C9.36531 12.1398 10.05 11.8071 10.7444 11.9095Z" fill="url(#paint18_linear_1142_1574)"/>
<path d="M7.98633 9.324L8.2647 9.40719C8.67746 9.53198 9.02943 9.81035 9.24701 10.1815L9.64057 10.8566C9.85814 11.231 10.2101 11.5062 10.6229 11.631L11.3716 11.8549C11.7844 11.9797 12.1363 12.2581 12.3539 12.6293L12.7475 13.3044C12.965 13.6788 13.317 13.9539 13.7298 14.0787L14.4785 14.3027C14.8912 14.4275 15.2432 14.7059 15.4608 15.077L15.8543 15.7522C16.0719 16.1265 16.4239 16.4017 16.8366 16.5265L17.5854 16.7505C17.9981 16.8752 18.3501 17.1536 18.5677 17.5248L18.9612 18.1999C19.1788 18.5743 19.5308 18.8494 19.9435 18.9742L20.6923 19.1982C21.105 19.323 21.457 19.6014 21.6746 19.9725L21.8217 20.2253C22.1737 20.83 22.1225 21.5916 21.6874 22.1419L20.6763 23.425C20.0939 24.1641 19.0188 24.2921 18.2797 23.7098L5.42659 13.5828C4.68746 13.0004 4.55947 11.9253 5.14182 11.1862L6.15291 9.90314C6.58807 9.35279 7.3144 9.12242 7.98633 9.324Z" fill="url(#paint19_linear_1142_1574)"/>
<path d="M8.0374 8.8601L8.30937 8.96889C8.70933 9.13208 9.0357 9.43925 9.21808 9.82961L9.54765 10.5367C9.73003 10.9303 10.0564 11.2375 10.4564 11.3974L11.1795 11.6886C11.5794 11.8518 11.9058 12.159 12.0882 12.5493L12.4178 13.2565C12.6001 13.65 12.9265 13.9572 13.3265 14.1172L14.0496 14.4083C14.4496 14.5715 14.7759 14.8787 14.9583 15.2691L15.2879 15.9762C15.4703 16.3698 15.7966 16.6769 16.1966 16.8369L16.9197 17.1281C17.3197 17.2913 17.646 17.5984 17.8284 17.9888L18.158 18.6959C18.3404 19.0895 18.6667 19.3967 19.0667 19.5566L19.7898 19.8478C20.1898 20.011 20.5161 20.3182 20.6985 20.7085L20.8233 20.9741C21.1209 21.6108 20.9961 22.3596 20.5162 22.8683L19.3931 24.0522C18.7435 24.7369 17.6652 24.7657 16.9805 24.1162L5.10009 12.8661C4.41536 12.2166 4.38656 11.1383 5.0361 10.4535L6.15919 9.26966C6.64234 8.76091 7.38786 8.59773 8.0374 8.8601Z" fill="url(#paint20_linear_1142_1574)"/>
<path d="M6.0632 11.6917L6.35437 11.7141C6.78632 11.7461 7.18948 11.9412 7.48065 12.2612L8.0086 12.8372C8.30297 13.1571 8.70293 13.3523 9.13489 13.3843L9.91241 13.4419C10.3444 13.4739 10.7475 13.6691 11.0387 13.989L11.5666 14.565C11.861 14.885 12.261 15.0801 12.6929 15.1121L13.4705 15.1697C13.9024 15.2017 14.3056 15.3969 14.5967 15.7169L15.1247 16.2928C15.4191 16.6128 15.819 16.808 16.251 16.84L17.0285 16.8975C17.4605 16.9295 17.8636 17.1247 18.1548 17.4447L18.6827 18.0206C18.9771 18.3406 19.3771 18.5358 19.809 18.5678L20.5865 18.6254C21.0185 18.6574 21.4217 18.8526 21.7128 19.1725L21.9112 19.3869C22.3848 19.9021 22.4968 20.6572 22.1896 21.2875L21.4761 22.7562C21.0633 23.6041 20.0426 23.9592 19.1947 23.5465L4.47615 16.3984C3.62824 15.9856 3.27308 14.9649 3.68583 14.117L4.39936 12.6484C4.70333 12.018 5.36247 11.6373 6.0632 11.6917Z" fill="url(#paint21_linear_1142_1574)"/>
<path d="M7.19922 10.3509L7.4776 10.434C7.89035 10.5588 8.24232 10.8372 8.4599 11.2084L8.85346 11.8835C9.07104 12.2579 9.423 12.533 9.83576 12.6578L10.5845 12.8818C10.9972 13.0066 11.3492 13.285 11.5668 13.6561L11.9603 14.3345C12.1779 14.7088 12.5299 14.984 12.9426 15.1088L13.6914 15.3328C14.1041 15.4575 14.4561 15.7359 14.6737 16.1071L15.0672 16.7822C15.2848 17.1566 15.6368 17.4317 16.0495 17.5565L16.7983 17.7805C17.211 17.9053 17.563 18.1837 17.7806 18.5548L18.1741 19.23C18.3917 19.6043 18.7437 19.8795 19.1564 20.0043L19.9052 20.2283C20.3179 20.3531 20.6699 20.6314 20.8875 21.0026L21.0346 21.2554C21.3866 21.8601 21.3354 22.6216 20.9003 23.172L19.8892 24.455C19.3068 25.1942 18.2317 25.3222 17.4926 24.7398L4.63948 14.6096C3.90035 14.0273 3.77236 12.9522 4.35471 12.2131L5.36581 10.93C5.80096 10.3797 6.52729 10.1493 7.19922 10.3509Z" fill="url(#paint22_linear_1142_1574)"/>
<path d="M7.30786 9.73018L7.57664 9.84857C7.9734 10.0246 8.28697 10.3445 8.45655 10.7413L8.76052 11.458C8.9301 11.8548 9.24367 12.1747 9.64043 12.3507L10.354 12.6675C10.7507 12.8435 11.0643 13.1634 11.2339 13.5602L11.5378 14.2769C11.7074 14.6737 12.021 14.9937 12.4178 15.1696L13.1313 15.4864C13.528 15.6624 13.8416 15.9824 14.0112 16.3791L14.3152 17.0958C14.4847 17.4926 14.7983 17.8126 15.1951 17.9886L15.9086 18.3053C16.3054 18.4813 16.6189 18.8013 16.7885 19.198L17.0925 19.9148C17.2621 20.3115 17.5756 20.6315 17.9724 20.8075L18.6859 21.1242C19.0827 21.3002 19.3963 21.6202 19.5658 22.017L19.681 22.2857C19.9562 22.9321 19.8058 23.6776 19.3067 24.1703L18.142 25.3158C17.47 25.9782 16.3886 25.9686 15.7294 25.2966L4.23617 13.6338C3.57384 12.9619 3.58344 11.8804 4.25537 11.2212L5.42005 10.0757C5.916 9.583 6.66793 9.44541 7.30786 9.73018Z" fill="url(#paint23_linear_1142_1574)"/>
<path d="M5.23461 12.9046L5.52578 12.9302C5.95774 12.9686 6.3577 13.1702 6.64567 13.4933L7.16402 14.0757C7.45199 14.3988 7.85195 14.6004 8.28391 14.6388L9.06143 14.7092C9.49339 14.7476 9.89335 14.9492 10.1813 15.2724L10.6997 15.8547C10.9876 16.1779 11.3876 16.3794 11.8196 16.4178L12.5971 16.4882C13.029 16.5266 13.429 16.7282 13.717 17.0514L14.2321 17.6305C14.5201 17.9537 14.92 18.1553 15.352 18.1937L16.1295 18.2641C16.5615 18.3025 16.9614 18.504 17.2494 18.8272L17.7678 19.4095C18.0557 19.7327 18.4557 19.9343 18.8876 19.9727L19.6652 20.0431C20.0971 20.0815 20.4971 20.2831 20.7851 20.6062L20.9802 20.8238C21.4474 21.3453 21.5466 22.1005 21.233 22.7276L20.5003 24.1867C20.0779 25.0282 19.0508 25.3673 18.2093 24.945L3.57718 17.5857C2.73566 17.1634 2.3965 16.1363 2.81885 15.2948L3.55158 13.8357C3.86835 13.2118 4.53388 12.8406 5.23461 12.9046Z" fill="url(#paint24_linear_1142_1574)"/>
<path d="M6.40891 11.3782L6.68729 11.4614C7.10004 11.5862 7.45201 11.8645 7.66959 12.2357L8.06315 12.9108C8.28073 13.2852 8.63269 13.5604 9.04545 13.6852L9.79417 13.9091C10.2069 14.0339 10.5589 14.3123 10.7765 14.6835L11.17 15.3586C11.3876 15.733 11.7396 16.0081 12.1523 16.1329L12.9011 16.3569C13.3138 16.4817 13.6658 16.7601 13.8834 17.1312L14.2769 17.8064C14.4945 18.1807 14.8465 18.4559 15.2592 18.5807L16.008 18.8047C16.4207 18.9294 16.7727 19.2078 16.9903 19.579L17.3838 20.2541C17.6014 20.6285 17.9534 20.9036 18.3661 21.0284L19.1148 21.2524C19.5276 21.3772 19.8796 21.6556 20.0971 22.0267L20.2443 22.2795C20.5963 22.8842 20.5451 23.6458 20.1099 24.1961L19.0988 25.4792C18.5165 26.2183 17.4414 26.3463 16.7023 25.764L3.85237 15.637C3.11324 15.0546 2.98526 13.9795 3.5676 13.2404L4.5787 11.9573C5.01385 11.407 5.74018 11.1766 6.40891 11.3782Z" fill="url(#paint25_linear_1142_1574)"/>
<path d="M6.60412 11.4741L6.8729 11.5925C7.26966 11.7652 7.58642 12.082 7.75601 12.4788L8.06638 13.1955C8.23916 13.5923 8.55273 13.909 8.94949 14.0818L9.66302 14.3954C10.0598 14.5682 10.3765 14.8849 10.5461 15.2817L10.8565 15.9984C11.0293 16.3952 11.3428 16.712 11.7396 16.8847L12.4531 17.1983C12.8499 17.3711 13.1667 17.6879 13.3362 18.0846L13.6466 18.8013C13.8194 19.1981 14.133 19.5149 14.5297 19.6877L15.2433 20.0012C15.64 20.174 15.9568 20.4908 16.1264 20.8875L16.4367 21.6043C16.6095 22.001 16.9231 22.3178 17.3199 22.4906L18.0334 22.8041C18.4301 22.9769 18.7469 23.2937 18.9165 23.6905L19.0317 23.9592C19.3101 24.6024 19.1661 25.3511 18.6701 25.8438L17.5118 26.9957C16.8431 27.6613 15.7648 27.6581 15.0993 26.9893L3.54843 15.3905C2.88289 14.7217 2.88609 13.6435 3.55483 12.9779L4.71311 11.826C5.21226 11.3333 5.96099 11.1925 6.60412 11.4741Z" fill="url(#paint26_linear_1142_1574)"/>
<path d="M5.62183 12.4051L5.9002 12.4882C6.31296 12.613 6.66493 12.8914 6.8825 13.2626L7.27606 13.9377C7.49364 14.3121 7.84561 14.5872 8.25837 14.712L9.00709 14.936C9.41985 15.0608 9.77182 15.3392 9.98939 15.7103L10.383 16.3855C10.6005 16.7598 10.9525 17.035 11.3653 17.1598L12.114 17.3838C12.5267 17.5085 12.8787 17.7869 13.0963 18.1581L13.4898 18.8332C13.7074 19.2076 14.0594 19.4827 14.4721 19.6075L15.2209 19.8315C15.6336 19.9563 15.9856 20.2347 16.2032 20.6058L16.5967 21.281C16.8143 21.6553 17.1663 21.9305 17.579 22.0553L18.3278 22.2793C18.7405 22.4041 19.0925 22.6824 19.3101 23.0536L19.4572 23.3064C19.8092 23.9111 19.758 24.6726 19.3229 25.223L18.3118 26.506C17.7294 27.2452 16.6543 27.3732 15.9152 26.7908L3.06209 16.6638C2.32296 16.0815 2.19497 15.0064 2.77731 14.2673L3.78841 12.9842C4.22677 12.4338 4.9531 12.2035 5.62183 12.4051Z" fill="url(#paint27_linear_1142_1574)"/>
<path d="M3.30187 9.50642L3.56424 9.6344C3.9546 9.82318 4.25537 10.1528 4.41216 10.5559L4.69373 11.2854C4.85051 11.6886 5.15128 12.0182 5.54165 12.2069L6.24237 12.5461C6.63274 12.7349 6.93351 13.0645 7.09029 13.4676L7.37186 14.1971C7.52865 14.6003 7.82942 14.9299 8.21978 15.1187L8.92051 15.4578C9.31087 15.6466 9.61164 15.9762 9.76842 16.3793L10.05 17.1089C10.2068 17.512 10.5075 17.8416 10.8979 18.0304L11.5986 18.3695C11.989 18.5583 12.2898 18.8879 12.4466 19.291L12.7281 20.0206C12.8849 20.4237 13.1857 20.7533 13.576 20.9421L14.2768 21.2812C14.6671 21.47 14.9679 21.7996 15.1247 22.2027L15.2303 22.4747C15.4831 23.1275 15.3103 23.8698 14.7919 24.3433L13.5888 25.4504C12.8945 26.0872 11.8162 26.0424 11.1763 25.3512L0.0989876 13.3012C-0.537749 12.6069 -0.492952 11.5286 0.198179 10.8887L1.40126 9.78159C1.91961 9.31123 2.67153 9.19925 3.30187 9.50642Z" fill="url(#paint28_linear_1142_1574)"/>
<path d="M4.83472 13.4353L5.11309 13.5185C5.52585 13.6433 5.87782 13.9217 6.0954 14.2928L6.48896 14.968C6.70653 15.3423 7.0585 15.6175 7.47126 15.7423L8.21998 15.9663C8.63274 16.091 8.98471 16.3694 9.20228 16.7406L9.59584 17.4157C9.81342 17.7901 10.1654 18.0652 10.5781 18.19L11.3269 18.414C11.7396 18.5388 12.0916 18.8172 12.3092 19.1883L12.7027 19.8635C12.9203 20.2378 13.2723 20.513 13.685 20.6378L14.4338 20.8618C14.8465 20.9866 15.1985 21.2649 15.4161 21.6361L15.8096 22.3112C16.0272 22.6856 16.3792 22.9608 16.7919 23.0855L17.5407 23.3095C17.9534 23.4343 18.3054 23.7127 18.523 24.0838L18.6701 24.3366C19.0221 24.9414 18.9709 25.7029 18.5358 26.2532L17.5247 27.5363C16.9423 28.2754 15.8672 28.4034 15.1281 27.8211L2.27498 17.6909C1.53585 17.1085 1.40786 16.0334 1.99021 15.2943L3.0013 14.0112C3.43646 13.4609 4.16279 13.2337 4.83472 13.4353Z" fill="url(#paint29_linear_1142_1574)"/>
<path d="M4.44106 14.1425L4.72263 14.2193C5.14178 14.3313 5.50015 14.6001 5.72733 14.9649L6.14008 15.6272C6.36726 15.9952 6.72883 16.2607 7.14478 16.3727L7.89671 16.5743C8.31587 16.6863 8.67423 16.9551 8.90141 17.3198L9.31417 17.9822C9.54134 18.3501 9.90291 18.6157 10.3189 18.7277L11.0708 18.9293C11.49 19.0413 11.8483 19.31 12.0755 19.6748L12.4882 20.3371C12.7154 20.7051 13.077 20.9707 13.493 21.0827L14.2449 21.2842C14.664 21.3962 15.0224 21.665 15.2496 22.0298L15.6623 22.6921C15.8895 23.0601 16.2511 23.3256 16.667 23.4376L17.419 23.6392C17.8381 23.7512 18.1965 24.02 18.4237 24.3847L18.5772 24.6343C18.9484 25.2294 18.9164 25.991 18.4973 26.5541L17.5245 27.866C16.9614 28.6211 15.8927 28.7811 15.1376 28.2179L1.9933 18.4589C1.23818 17.8958 1.07819 16.8271 1.64133 16.072L2.61404 14.7601C3.046 14.2097 3.76592 13.9602 4.44106 14.1425Z" fill="url(#paint30_linear_1142_1574)"/>
<path d="M5.24102 13.7396L5.50979 13.8548C5.90656 14.0244 6.22652 14.3379 6.4025 14.7315L6.71927 15.445C6.89526 15.8418 7.21522 16.1554 7.61198 16.3217L8.33191 16.6257C8.72867 16.7953 9.04864 17.1089 9.22462 17.5024L9.54139 18.216C9.71737 18.6127 10.0373 18.9263 10.4341 19.0927L11.154 19.3966C11.5508 19.5662 11.8708 19.8798 12.0467 20.2733L12.3635 20.9869C12.5395 21.3836 12.8595 21.6972 13.2562 21.8636L13.9761 22.174C14.3729 22.3435 14.6929 22.6571 14.8689 23.0507L15.1856 23.7642C15.3616 24.161 15.6816 24.4745 16.0783 24.6409L16.7983 24.9449C17.195 25.1145 17.515 25.428 17.691 25.8216L17.8094 26.0872C18.0941 26.7271 17.9597 27.4758 17.467 27.975L16.3215 29.1397C15.6624 29.8116 14.5809 29.8212 13.909 29.1621L2.23332 17.6944C1.56139 17.0353 1.55179 15.9538 2.21092 15.2818L3.35641 14.1172C3.84916 13.6148 4.59469 13.4676 5.24102 13.7396Z" fill="url(#paint31_linear_1142_1574)"/>
<path d="M4.11158 14.4627L4.38995 14.5458C4.80271 14.6706 5.15467 14.949 5.37225 15.3202L5.76581 15.9953C5.98339 16.3697 6.33535 16.6448 6.74811 16.7696L7.49684 16.9936C7.9096 17.1184 8.26156 17.3968 8.47914 17.7679L8.8727 18.4431C9.09028 18.8174 9.44224 19.0926 9.855 19.2174L10.6037 19.4414C11.0165 19.5661 11.3685 19.8445 11.586 20.2157L11.9796 20.8908C12.1972 21.2652 12.5491 21.5403 12.9619 21.6651L13.7106 21.8891C14.1234 22.0139 14.4753 22.2923 14.6929 22.6634L15.0865 23.3386C15.3041 23.7129 15.656 23.9881 16.0688 24.1129L16.8175 24.3369C17.2303 24.4617 17.5822 24.74 17.7998 25.1112L17.947 25.364C18.299 25.9687 18.2478 26.7302 17.8126 27.2806L16.8015 28.5636C16.2192 29.3028 15.1441 29.4308 14.4049 28.8484L1.55183 18.7182C0.812706 18.1359 0.684718 17.0608 1.26706 16.3217L2.27816 15.0386C2.71332 14.4882 3.43964 14.2611 4.11158 14.4627Z" fill="url(#paint32_linear_1142_1574)"/>
<path d="M2.67486 16.6063L2.96283 16.6479C3.39159 16.7119 3.77875 16.9358 4.04752 17.2718L4.53387 17.883C4.80265 18.2221 5.18981 18.4461 5.61857 18.5069L6.39289 18.6221C6.82165 18.6861 7.20881 18.91 7.47758 19.246L7.96393 19.8572C8.2327 20.1963 8.61987 20.4203 9.04862 20.4811L9.81974 20.5963C10.2485 20.6603 10.6357 20.8843 10.9044 21.2202L11.3908 21.8314C11.6596 22.1705 12.0467 22.3945 12.4755 22.4553L13.2466 22.5705C13.6754 22.6345 14.0625 22.8585 14.3313 23.1944L14.8176 23.8056C15.0864 24.1447 15.4736 24.3687 15.9023 24.4295L16.6735 24.5447C17.1022 24.6087 17.4894 24.8327 17.7582 25.1686L17.9405 25.3958C18.3757 25.9429 18.4333 26.7045 18.0845 27.3092L17.2686 28.7235C16.7983 29.5394 15.7552 29.821 14.9392 29.3506L0.761451 21.1882C-0.0544674 20.7179 -0.336038 19.6748 0.134315 18.8589L0.950233 17.4446C1.299 16.8335 1.98373 16.5007 2.67486 16.6063Z" fill="url(#paint33_linear_1142_1574)"/>
<path d="M3.26026 15.4895L3.53863 15.5727C3.95139 15.6975 4.30335 15.9759 4.52093 16.347L4.91449 17.0222C5.13207 17.3965 5.48404 17.6717 5.89679 17.7965L6.64552 18.0205C7.05828 18.1452 7.41024 18.4236 7.62782 18.7948L8.02138 19.4699C8.23896 19.8443 8.59092 20.1194 9.00368 20.2442L9.75241 20.4682C10.1652 20.593 10.5171 20.8714 10.7347 21.2425L11.1283 21.9177C11.3458 22.292 11.6978 22.5672 12.1106 22.692L12.8593 22.916C13.2721 23.0408 13.624 23.3191 13.8416 23.6903L14.2352 24.3654C14.4527 24.7398 14.8047 25.015 15.2175 25.1397L15.9662 25.3637C16.3789 25.4885 16.7309 25.7669 16.9485 26.138L17.0957 26.3908C17.4476 26.9956 17.3964 27.7571 16.9613 28.3074L15.9502 29.5905C15.3678 30.3296 14.2928 30.4576 13.5536 29.8753L0.700513 19.7451C-0.0386137 19.1627 -0.1666 18.0876 0.415742 17.3485L1.42684 16.0654C1.862 15.5151 2.58832 15.2879 3.26026 15.4895Z" fill="url(#paint34_linear_1142_1574)"/>
<path d="M4.38029 14.9616L4.63947 15.096C5.02343 15.2976 5.3146 15.6367 5.45859 16.0431L5.71776 16.779C5.86175 17.1886 6.15292 17.5245 6.53688 17.7261L7.22801 18.0877C7.61197 18.2893 7.90314 18.6284 8.04713 19.0348L8.3063 19.7707C8.45029 20.1803 8.74146 20.5162 9.12542 20.7178L9.81655 21.0794C10.2005 21.281 10.4917 21.6201 10.6357 22.0265L10.8948 22.7624C11.0388 23.172 11.33 23.5079 11.714 23.7095L12.4051 24.0711C12.7891 24.2727 13.0802 24.6118 13.2242 25.0182L13.4834 25.7541C13.6274 26.1637 13.9185 26.4996 14.3025 26.7012L14.9936 27.0628C15.3776 27.2644 15.6688 27.6035 15.8128 28.0099L15.9087 28.2851C16.1391 28.9474 15.9439 29.6833 15.416 30.1409L14.1809 31.2096C13.4674 31.8271 12.3891 31.7471 11.7748 31.0336L1.06542 18.6508C0.447887 17.9373 0.527879 16.859 1.24141 16.2447L2.47648 15.176C3.00123 14.7248 3.75955 14.6352 4.38029 14.9616Z" fill="url(#paint35_linear_1142_1574)"/>
<path d="M2.53736 16.5169L2.81573 16.6001C3.22849 16.7249 3.58045 17.0033 3.79803 17.3744L4.19159 18.0496C4.40917 18.4239 4.76114 18.6991 5.17389 18.8239L5.92262 19.0479C6.33538 19.1726 6.68734 19.451 6.90492 19.8222L7.29848 20.4973C7.51606 20.8717 7.86802 21.1468 8.28078 21.2716L9.02951 21.4956C9.44227 21.6204 9.79423 21.8988 10.0118 22.2699L10.4054 22.9451C10.623 23.3194 10.9749 23.5946 11.3877 23.7194L12.1364 23.9434C12.5492 24.0682 12.9011 24.3465 13.1187 24.7177L13.5123 25.3928C13.7298 25.7672 14.0818 26.0424 14.4946 26.1671L15.2433 26.3911C15.656 26.5159 16.008 26.7943 16.2256 27.1654L16.3728 27.4182C16.7247 28.023 16.6735 28.7845 16.2384 29.3348L15.2273 30.6179C14.6449 31.357 13.5699 31.485 12.8307 30.9027L-0.0223872 20.7725C-0.761513 20.1901 -0.8895 19.1151 -0.307159 18.3759L0.703941 17.0929C1.1391 16.5457 1.86542 16.3153 2.53736 16.5169Z" fill="url(#paint36_linear_1142_1574)"/>
<path d="M3.78834 16.1649L4.04752 16.2993C4.43148 16.5009 4.72265 16.8401 4.86664 17.2464L5.12261 17.9824C5.2666 18.3919 5.55777 18.7311 5.94173 18.9295L6.63286 19.291C7.01682 19.4926 7.30799 19.8318 7.45198 20.2381L7.70795 20.9741C7.85194 21.3836 8.14311 21.7228 8.52707 21.9212L9.2182 22.2827C9.60216 22.4843 9.89333 22.8235 10.0373 23.2298L10.2933 23.9658C10.4373 24.3753 10.7284 24.7145 11.1124 24.9129L11.8035 25.2744C12.1875 25.476 12.4787 25.8152 12.6227 26.2215L12.8786 26.9575C13.0226 27.367 13.3138 27.7062 13.6978 27.9046L14.3889 28.2661C14.7728 28.4677 15.064 28.8069 15.208 29.2132L15.304 29.4884C15.5344 30.1507 15.3392 30.8867 14.808 31.3442L13.5698 32.4097C12.8562 33.0241 11.7779 32.9441 11.1636 32.2305L0.463876 19.8574C-0.150462 19.1438 -0.0704712 18.0656 0.643057 17.4512L1.88133 16.3825C2.40928 15.925 3.1676 15.8386 3.78834 16.1649Z" fill="url(#paint37_linear_1142_1574)"/>
<path d="M1.68604 17.5437L1.96441 17.6269C2.37717 17.7517 2.72913 18.0301 2.94671 18.4012L3.34027 19.0764C3.55785 19.4507 3.90982 19.7259 4.32258 19.8507L5.0713 20.0747C5.48406 20.1995 5.83603 20.4778 6.0536 20.849L6.44716 21.5241C6.66474 21.8985 7.01671 22.1737 7.42947 22.2984L8.17819 22.5224C8.59095 22.6472 8.94291 22.9256 9.16049 23.2967L9.55405 23.9719C9.77163 24.3462 10.1236 24.6214 10.5364 24.7462L11.2851 24.9702C11.6978 25.095 12.0498 25.3733 12.2674 25.7445L12.6609 26.4196C12.8785 26.794 13.2305 27.0692 13.6432 27.194L14.392 27.4179C14.8047 27.5427 15.1567 27.8211 15.3743 28.1923L15.5215 28.445C15.8734 29.0498 15.8222 29.8113 15.3871 30.3616L14.376 31.6447C13.7936 32.3838 12.7185 32.5118 11.9794 31.9295L-0.873706 21.8025C-1.61283 21.2202 -1.74082 20.1451 -1.15848 19.4059L-0.147379 18.1229C0.287778 17.5725 1.01411 17.3421 1.68604 17.5437Z" fill="url(#paint38_linear_1142_1574)"/>
<path d="M0.1023 19.5564L0.38067 19.6396C0.793429 19.7644 1.14539 20.0428 1.36297 20.4139L1.75653 21.0891C1.97411 21.4634 2.32608 21.7386 2.73884 21.8634L3.48756 22.0874C3.90032 22.2122 4.25229 22.4905 4.46986 22.8617L4.86342 23.5368C5.081 23.9112 5.43297 24.1864 5.84573 24.3111L6.59445 24.5351C7.00721 24.6599 7.35917 24.9383 7.57675 25.3094L7.97031 25.9846C8.18789 26.3589 8.53986 26.6341 8.95261 26.7589L9.70134 26.9829C10.1141 27.1077 10.4661 27.386 10.6836 27.7572L11.0772 28.4323C11.2948 28.8067 11.6467 29.0819 12.0595 29.2067L12.8082 29.4306C13.221 29.5554 13.573 29.8338 13.7905 30.205L13.9377 30.4577C14.2897 31.0625 14.2385 31.824 13.8033 32.3743L12.7922 33.6574C12.2099 34.3965 11.1348 34.5245 10.3957 33.9422L-2.45745 23.8152C-3.19657 23.2329 -3.32456 22.1578 -2.74222 21.4186L-1.73112 20.1356C-1.29596 19.5852 -0.569633 19.3548 0.1023 19.5564Z" fill="url(#paint39_linear_1142_1574)"/>
<path d="M-0.691158 20.5423L-0.412787 20.6255C-2.7895e-05 20.7502 0.351937 21.0286 0.569516 21.3998L0.963076 22.0749C1.18065 22.4493 1.53262 22.7244 1.94538 22.8492L2.6941 23.0732C3.10686 23.198 3.45883 23.4764 3.6764 23.8475L4.06997 24.5227C4.28755 24.897 4.63951 25.1722 5.05227 25.297L5.80099 25.521C6.21375 25.6457 6.56572 25.9241 6.7833 26.2953L7.17686 26.9704C7.39443 27.3448 7.7464 27.62 8.15916 27.7447L8.90788 27.9687C9.32064 28.0935 9.67261 28.3719 9.89018 28.743L10.2837 29.4182C10.5013 29.7925 10.8533 30.0677 11.266 30.1925L12.0148 30.4165C12.4275 30.5413 12.7795 30.8196 12.9971 31.1908L13.1443 31.4436C13.4962 32.0483 13.445 32.8098 13.0099 33.3602L11.9988 34.6432C11.4164 35.3824 10.3413 35.5104 9.60221 34.928L-3.2509 24.801C-3.99003 24.2187 -4.11802 23.1436 -3.53567 22.4045L-2.52458 21.1214C-2.08942 20.5711 -1.36309 20.3407 -0.691158 20.5423Z" fill="url(#paint40_linear_1142_1574)"/>
<path d="M-1.48486 21.5276L-1.20649 21.6108C-0.793728 21.7356 -0.441763 22.014 -0.224185 22.3851L0.169376 23.0603C0.386954 23.4346 0.738919 23.7098 1.15168 23.8346L1.9004 24.0586C2.31316 24.1833 2.66513 24.4617 2.8827 24.8329L3.27626 25.508C3.49384 25.8824 3.84581 26.1575 4.25857 26.2823L5.00729 26.5063C5.42005 26.6311 5.77202 26.9095 5.9896 27.2806L6.38316 27.9558C6.60073 28.3301 6.9527 28.6053 7.36546 28.7301L8.11418 28.9541C8.52694 29.0789 8.87891 29.3572 9.09648 29.7284L9.49004 30.4035C9.70762 30.7779 10.0596 31.0531 10.4723 31.1778L11.2211 31.4018C11.6338 31.5266 11.9858 31.805 12.2034 32.1761L12.3506 32.4289C12.7025 33.0337 12.6513 33.7952 12.2162 34.3455L11.2051 35.6286C10.6227 36.3677 9.54764 36.4957 8.80851 35.9134L-4.0446 25.7864C-4.78373 25.204 -4.91172 24.129 -4.32938 23.3898L-3.31828 22.1068C-2.88312 21.5564 -2.15679 21.326 -1.48486 21.5276Z" fill="url(#paint41_linear_1142_1574)"/>
<path d="M-2.28149 22.513L-2.00312 22.5962C-1.59036 22.721 -1.23839 22.9994 -1.02082 23.3705L-0.627255 24.0457C-0.409677 24.42 -0.0577126 24.6952 0.355046 24.82L1.10377 25.044C1.51653 25.1687 1.8685 25.4471 2.08607 25.8183L2.47963 26.4934C2.69721 26.8678 3.04918 27.1429 3.46194 27.2677L4.21066 27.4917C4.62342 27.6165 4.97539 27.8949 5.19296 28.266L5.58652 28.9412C5.8041 29.3155 6.15607 29.5907 6.56883 29.7155L7.31755 29.9395C7.73031 30.0643 8.08227 30.3426 8.29985 30.7138L8.69341 31.3889C8.91099 31.7633 9.26296 32.0385 9.67572 32.1632L10.4244 32.3872C10.8372 32.512 11.1892 32.7904 11.4067 33.1615L11.5539 33.4143C11.9059 34.0191 11.8547 34.7806 11.4195 35.3309L10.4084 36.614C9.8261 37.3531 8.75101 37.4811 8.01188 36.8988L-4.84123 26.7686C-5.58036 26.1862 -5.70835 25.1111 -5.12601 24.372L-4.11491 23.0889C-3.67655 22.5418 -2.95342 22.3114 -2.28149 22.513Z" fill="url(#paint42_linear_1142_1574)"/>
<path d="M-3.07495 23.4984L-2.79658 23.5815C-2.38382 23.7063 -2.03185 23.9847 -1.81427 24.3559L-1.42071 25.031C-1.20314 25.4054 -0.85117 25.6805 -0.438411 25.8053L0.310315 26.0293C0.723074 26.1541 1.07504 26.4325 1.29262 26.8036L1.68618 27.4788C1.90376 27.8531 2.25572 28.1283 2.66848 28.2531L3.4172 28.4771C3.82996 28.6018 4.18193 28.8802 4.39951 29.2514L4.79307 29.9265C5.01064 30.3009 5.36261 30.5761 5.77537 30.7008L6.52409 30.9248C6.93685 31.0496 7.28882 31.328 7.5064 31.6991L7.89996 32.3743C8.11753 32.7486 8.4695 33.0238 8.88226 33.1486L9.63098 33.3726C10.0437 33.4974 10.3957 33.7757 10.6133 34.1469L10.7605 34.3997C11.1124 35.0044 11.0612 35.7659 10.6261 36.3163L9.61499 37.5993C9.03264 38.3385 7.95755 38.4665 7.21842 37.8841L-5.63469 27.7539C-6.37382 27.1716 -6.50181 26.0965 -5.91946 25.3574L-4.90837 24.0743C-4.47321 23.5272 -3.74688 23.2968 -3.07495 23.4984Z" fill="url(#paint43_linear_1142_1574)"/>
<path d="M-3.8684 24.4841L-3.59003 24.5673C-3.17727 24.6921 -2.82531 24.9705 -2.60773 25.3416L-2.21417 26.0168C-1.99659 26.3911 -1.64463 26.6663 -1.23187 26.7911L-0.483142 27.0151C-0.0703831 27.1399 0.281581 27.4182 0.499159 27.7894L0.89272 28.4645C1.1103 28.8389 1.46226 29.1141 1.87502 29.2389L2.62375 29.4628C3.03651 29.5876 3.38847 29.866 3.60605 30.2372L3.99961 30.9123C4.21719 31.2867 4.56915 31.5618 4.98191 31.6866L5.73064 31.9106C6.1434 32.0354 6.49536 32.3138 6.71294 32.6849L7.1065 33.36C7.32408 33.7344 7.67604 34.0096 8.0888 34.1344L8.83753 34.3583C9.25029 34.4831 9.60225 34.7615 9.81983 35.1327L9.96701 35.3854C10.319 35.9902 10.2678 36.7517 9.83263 37.3021L8.82153 38.5851C8.23919 39.3243 7.16409 39.4522 6.42497 38.8699L-6.42815 28.7397C-7.16728 28.1574 -7.29526 27.0823 -6.71292 26.3431L-5.70182 25.0601C-5.26666 24.5097 -4.54034 24.2826 -3.8684 24.4841Z" fill="url(#paint44_linear_1142_1574)"/>
<path d="M-4.66528 25.4695L-4.38691 25.5527C-3.97415 25.6775 -3.62218 25.9558 -3.40461 26.327L-3.01104 27.0021C-2.79347 27.3765 -2.4415 27.6517 -2.02874 27.7765L-1.28002 28.0004C-0.867258 28.1252 -0.515294 28.4036 -0.297716 28.7748L0.0958457 29.4499C0.313424 29.8243 0.665389 30.0994 1.07815 30.2242L1.82687 30.4482C2.23963 30.573 2.5916 30.8514 2.80917 31.2225L3.20273 31.8976C3.42031 32.272 3.77228 32.5472 4.18504 32.672L4.93376 32.8959C5.34652 33.0207 5.69849 33.2991 5.91606 33.6703L6.30963 34.3454C6.5272 34.7198 6.87917 34.9949 7.29193 35.1197L8.04065 35.3437C8.45341 35.4685 8.80538 35.7469 9.02295 36.118L9.17014 36.3708C9.5221 36.9755 9.47091 37.7371 9.03575 38.2874L8.02465 39.5705C7.44231 40.3096 6.36722 40.4376 5.62809 39.8552L-7.22502 29.7251C-7.96415 29.1427 -8.09214 28.0676 -7.5098 27.3285L-6.4987 26.0454C-6.06034 25.4951 -5.33401 25.2679 -4.66528 25.4695Z" fill="url(#paint45_linear_1142_1574)"/>
</g>
<defs>
<linearGradient id="paint0_linear_1142_1574" x1="8.81952" y1="15.9969" x2="25.1214" y2="15.9969" gradientUnits="userSpaceOnUse">
<stop stop-color="#3105B5"/>
<stop offset="0.173" stop-color="#3406B4"/>
<stop offset="0.3169" stop-color="#3F08B1"/>
<stop offset="0.4502" stop-color="#500BAD"/>
<stop offset="0.5772" stop-color="#6810A6"/>
<stop offset="0.6998" stop-color="#88169E"/>
<stop offset="0.8191" stop-color="#AE1D94"/>
<stop offset="0.9335" stop-color="#DB2688"/>
<stop offset="1" stop-color="#F92C80"/>
</linearGradient>
<linearGradient id="paint1_linear_1142_1574" x1="20.3679" y1="7.77273" x2="23.5329" y2="3.70473" gradientUnits="userSpaceOnUse">
<stop stop-color="#C40561"/>
<stop offset="0.222" stop-color="#C50861"/>
<stop offset="0.4003" stop-color="#CA1261"/>
<stop offset="0.5634" stop-color="#D12362"/>
<stop offset="0.7174" stop-color="#DC3B63"/>
<stop offset="0.8637" stop-color="#E95964"/>
<stop offset="1" stop-color="#F97D65"/>
</linearGradient>
<linearGradient id="paint2_linear_1142_1574" x1="19.6046" y1="8.7271" x2="22.7737" y2="4.66271" gradientUnits="userSpaceOnUse">
<stop stop-color="#313EC0"/>
<stop offset="0.2133" stop-color="#3343C4"/>
<stop offset="0.4627" stop-color="#3751D0"/>
<stop offset="0.73" stop-color="#3F69E4"/>
<stop offset="1" stop-color="#4A88FF"/>
</linearGradient>
<linearGradient id="paint3_linear_1142_1574" x1="18.8401" y1="9.68577" x2="22.0139" y2="5.62499" gradientUnits="userSpaceOnUse">
<stop stop-color="#34B5FF"/>
<stop offset="0.3038" stop-color="#3383EA"/>
<stop offset="0.9952" stop-color="#3106B5"/>
<stop offset="1" stop-color="#3105B5"/>
</linearGradient>
<linearGradient id="paint4_linear_1142_1574" x1="20.3555" y1="14.6303" x2="23.288" y2="3.68446" gradientUnits="userSpaceOnUse">
<stop stop-color="#34B5FF"/>
<stop offset="0.1887" stop-color="#3392F0"/>
<stop offset="0.749" stop-color="#322DC6"/>
<stop offset="1" stop-color="#3105B5"/>
</linearGradient>
<linearGradient id="paint5_linear_1142_1574" x1="17.2396" y1="14.6472" x2="20.512" y2="4.57623" gradientUnits="userSpaceOnUse">
<stop offset="0.22" stop-color="#2449EC"/>
<stop offset="0.3392" stop-color="#254FED"/>
<stop offset="0.4984" stop-color="#2960F0"/>
<stop offset="0.6801" stop-color="#307CF4"/>
<stop offset="0.8772" stop-color="#39A2FA"/>
<stop offset="1" stop-color="#3FBEFF"/>
</linearGradient>
<linearGradient id="paint6_linear_1142_1574" x1="9.35161" y1="-0.0220223" x2="22.1207" y2="15.1955" gradientUnits="userSpaceOnUse">
<stop stop-color="#3105B5"/>
<stop offset="0.1574" stop-color="#3506B4"/>
<stop offset="0.3" stop-color="#4008B1"/>
<stop offset="0.437" stop-color="#520BAC"/>
<stop offset="0.5706" stop-color="#6C11A5"/>
<stop offset="0.7016" stop-color="#8E179C"/>
<stop offset="0.8308" stop-color="#B71F92"/>
<stop offset="0.956" stop-color="#E62885"/>
<stop offset="1" stop-color="#F92C80"/>
</linearGradient>
<linearGradient id="paint7_linear_1142_1574" x1="16.7095" y1="14.8912" x2="19.8997" y2="6.70819" gradientUnits="userSpaceOnUse">
<stop stop-color="#D80832"/>
<stop offset="0.1643" stop-color="#D80A36"/>
<stop offset="0.3328" stop-color="#D91042"/>
<stop offset="0.5033" stop-color="#DB1957"/>
<stop offset="0.6752" stop-color="#DD2774"/>
<stop offset="0.8465" stop-color="#DF3898"/>
<stop offset="1" stop-color="#E24AC0"/>
</linearGradient>
<linearGradient id="paint8_linear_1142_1574" x1="12.0486" y1="12.5453" x2="22.8963" y2="8.59742" gradientUnits="userSpaceOnUse">
<stop offset="0.25" stop-color="#2449EC"/>
<stop offset="0.7219" stop-color="#3591F8"/>
<stop offset="1" stop-color="#3FBEFF"/>
</linearGradient>
<linearGradient id="paint9_linear_1142_1574" x1="15.5109" y1="14.7287" x2="19.235" y2="8.27839" gradientUnits="userSpaceOnUse">
<stop stop-color="#D80832"/>
<stop offset="0.241" stop-color="#D90B35"/>
<stop offset="0.4413" stop-color="#DE163F"/>
<stop offset="0.627" stop-color="#E52750"/>
<stop offset="0.8039" stop-color="#EF3F67"/>
<stop offset="0.9731" stop-color="#FD5E86"/>
<stop offset="1" stop-color="#FF648B"/>
</linearGradient>
<linearGradient id="paint10_linear_1142_1574" x1="8.34242" y1="11.6536" x2="19.6852" y2="7.52464" gradientUnits="userSpaceOnUse">
<stop stop-color="#2449EC"/>
<stop offset="0.3043" stop-color="#2D70F2"/>
<stop offset="0.7732" stop-color="#3AA8FB"/>
<stop offset="1" stop-color="#3FBEFF"/>
</linearGradient>
<linearGradient id="paint11_linear_1142_1574" x1="15.6571" y1="18.766" x2="17.8455" y2="6.35435" gradientUnits="userSpaceOnUse">
<stop stop-color="#D80832"/>
<stop offset="0.1723" stop-color="#DA0D35"/>
<stop offset="0.3769" stop-color="#DF1B3F"/>
<stop offset="0.5979" stop-color="#E8334F"/>
<stop offset="0.8288" stop-color="#F45465"/>
<stop offset="1" stop-color="#FF7279"/>
</linearGradient>
<linearGradient id="paint12_linear_1142_1574" x1="7.22587" y1="12.0711" x2="19.513" y2="8.77811" gradientUnits="userSpaceOnUse">
<stop stop-color="#3105B5"/>
<stop offset="0.1045" stop-color="#3806B3"/>
<stop offset="0.2544" stop-color="#4B0AAE"/>
<stop offset="0.4319" stop-color="#6A10A6"/>
<stop offset="0.6305" stop-color="#95199A"/>
<stop offset="0.8439" stop-color="#CC238C"/>
<stop offset="1" stop-color="#F92C80"/>
</linearGradient>
<linearGradient id="paint13_linear_1142_1574" x1="14.3083" y1="19.0831" x2="17.2533" y2="8.092" gradientUnits="userSpaceOnUse">
<stop stop-color="#D80832"/>
<stop offset="0.1787" stop-color="#DA0D34"/>
<stop offset="0.3994" stop-color="#E01C3A"/>
<stop offset="0.6422" stop-color="#EA3644"/>
<stop offset="0.8992" stop-color="#F95853"/>
<stop offset="1" stop-color="#FF6859"/>
</linearGradient>
<linearGradient id="paint14_linear_1142_1574" x1="6.83157" y1="13.0535" x2="23.8862" y2="14.5461" gradientUnits="userSpaceOnUse">
<stop stop-color="#3105B5"/>
<stop offset="0.0627935" stop-color="#4008B1"/>
<stop offset="0.4028" stop-color="#8F179C"/>
<stop offset="0.6831" stop-color="#C8228D"/>
<stop offset="0.8896" stop-color="#EC2984"/>
<stop offset="1" stop-color="#F92C80"/>
</linearGradient>
<linearGradient id="paint15_linear_1142_1574" x1="13.3531" y1="19.6628" x2="16.6351" y2="9.56168" gradientUnits="userSpaceOnUse">
<stop stop-color="#D80832"/>
<stop offset="0.1707" stop-color="#DB0F35"/>
<stop offset="0.4128" stop-color="#E2213C"/>
<stop offset="0.6977" stop-color="#EF4049"/>
<stop offset="1" stop-color="#FF6859"/>
</linearGradient>
<linearGradient id="paint16_linear_1142_1574" x1="5.37413" y1="10.5212" x2="22.9076" y2="18.6966" gradientUnits="userSpaceOnUse">
<stop stop-color="#3105B5"/>
<stop offset="0.0380933" stop-color="#3D07B2"/>
<stop offset="0.2267" stop-color="#7612A3"/>
<stop offset="0.4096" stop-color="#A51C96"/>
<stop offset="0.5827" stop-color="#C9238D"/>
<stop offset="0.7435" stop-color="#E42886"/>
<stop offset="0.8874" stop-color="#F32B81"/>
<stop offset="1" stop-color="#F92C80"/>
</linearGradient>
<linearGradient id="paint17_linear_1142_1574" x1="6.64331" y1="9.23242" x2="21.8318" y2="21.9769" gradientUnits="userSpaceOnUse">
<stop stop-color="#D80832"/>
<stop offset="0.1809" stop-color="#E5273F"/>
<stop offset="0.3864" stop-color="#F0444A"/>
<stop offset="0.5924" stop-color="#F85852"/>
<stop offset="0.7973" stop-color="#FD6457"/>
<stop offset="1" stop-color="#FF6859"/>
</linearGradient>
<linearGradient id="paint18_linear_1142_1574" x1="15.834" y1="21.2879" x2="18.5838" y2="15.3906" gradientUnits="userSpaceOnUse">
<stop stop-color="#3105B5"/>
<stop offset="0.1026" stop-color="#3806B3"/>
<stop offset="0.2568" stop-color="#4D0AAE"/>
<stop offset="0.4436" stop-color="#6F11A5"/>
<stop offset="0.6558" stop-color="#9E1A98"/>
<stop offset="0.8864" stop-color="#D92688"/>
<stop offset="1" stop-color="#F92C80"/>
</linearGradient>
<linearGradient id="paint19_linear_1142_1574" x1="11.7048" y1="19.1172" x2="15.184" y2="14.1483" gradientUnits="userSpaceOnUse">
<stop stop-color="#3105B5"/>
<stop offset="0.155" stop-color="#3228C4"/>
<stop offset="0.4465" stop-color="#3364DD"/>
<stop offset="0.6948" stop-color="#3390EF"/>
<stop offset="0.8871" stop-color="#34ABFB"/>
<stop offset="1" stop-color="#34B5FF"/>
</linearGradient>
<linearGradient id="paint20_linear_1142_1574" x1="7.0528" y1="18.7548" x2="18.5025" y2="14.5874" gradientUnits="userSpaceOnUse">
<stop stop-color="#D80832"/>
<stop offset="0.271" stop-color="#E11D46"/>
<stop offset="0.8272" stop-color="#F7527A"/>
<stop offset="1" stop-color="#FF648B"/>
</linearGradient>
<linearGradient id="paint21_linear_1142_1574" x1="11.7939" y1="20.8529" x2="14.1166" y2="14.4717" gradientUnits="userSpaceOnUse">
<stop stop-color="#3105B5"/>
<stop offset="0.1066" stop-color="#3706B3"/>
<stop offset="0.254" stop-color="#490AAF"/>
<stop offset="0.4252" stop-color="#670FA7"/>
<stop offset="0.6144" stop-color="#8F179C"/>
<stop offset="0.8157" stop-color="#C3218E"/>
<stop offset="1" stop-color="#F92C80"/>
</linearGradient>
<linearGradient id="paint22_linear_1142_1574" x1="10.7797" y1="21.6663" x2="14.4986" y2="13.6909" gradientUnits="userSpaceOnUse">
<stop stop-color="#3105B5"/>
<stop offset="0.155" stop-color="#3228C4"/>
<stop offset="0.4465" stop-color="#3364DD"/>
<stop offset="0.6948" stop-color="#3390EF"/>
<stop offset="0.8871" stop-color="#34ABFB"/>
<stop offset="1" stop-color="#34B5FF"/>
</linearGradient>
<linearGradient id="paint23_linear_1142_1574" x1="5.12403" y1="19.1069" x2="18.4247" y2="16.2798" gradientUnits="userSpaceOnUse">
<stop stop-color="#D80832"/>
<stop offset="0.1321" stop-color="#D80B39"/>
<stop offset="0.3182" stop-color="#DA144B"/>
<stop offset="0.5363" stop-color="#DC2269"/>
<stop offset="0.7765" stop-color="#DF3593"/>
<stop offset="1" stop-color="#E24AC0"/>
</linearGradient>
<linearGradient id="paint24_linear_1142_1574" x1="10.9438" y1="23.0361" x2="13.1139" y2="14.9381" gradientUnits="userSpaceOnUse">
<stop stop-color="#3105B5"/>
<stop offset="0.1509" stop-color="#3506B4"/>
<stop offset="0.2932" stop-color="#4008B1"/>
<stop offset="0.432" stop-color="#530CAC"/>
<stop offset="0.5686" stop-color="#6E11A5"/>
<stop offset="0.7038" stop-color="#90189C"/>
<stop offset="0.8378" stop-color="#BB2090"/>
<stop offset="0.9685" stop-color="#EC2983"/>
<stop offset="1" stop-color="#F92C80"/>
</linearGradient>
<linearGradient id="paint25_linear_1142_1574" x1="9.99205" y1="22.6941" x2="13.711" y2="14.7187" gradientUnits="userSpaceOnUse">
<stop stop-color="#3105B5"/>
<stop offset="0.0728146" stop-color="#311DBF"/>
<stop offset="0.2326" stop-color="#324BD2"/>
<stop offset="0.3928" stop-color="#3371E2"/>
<stop offset="0.551" stop-color="#338FEF"/>
<stop offset="0.7062" stop-color="#34A4F8"/>
<stop offset="0.8575" stop-color="#34B1FD"/>
<stop offset="1" stop-color="#34B5FF"/>
</linearGradient>
<linearGradient id="paint26_linear_1142_1574" x1="6.21648" y1="10.8953" x2="16.0428" y2="27.9173" gradientUnits="userSpaceOnUse">
<stop stop-color="#3105B5"/>
<stop offset="0.1422" stop-color="#650FA7"/>
<stop offset="0.2868" stop-color="#92189B"/>
<stop offset="0.4328" stop-color="#B71F92"/>
<stop offset="0.5777" stop-color="#D4258A"/>
<stop offset="0.7212" stop-color="#E82984"/>
<stop offset="0.8627" stop-color="#F52B81"/>
<stop offset="1" stop-color="#F92C80"/>
</linearGradient>
<linearGradient id="paint27_linear_1142_1574" x1="9.20444" y1="23.7214" x2="12.9234" y2="15.746" gradientUnits="userSpaceOnUse">
<stop stop-color="#3105B5"/>
<stop offset="0.0705151" stop-color="#3115BC"/>
<stop offset="0.3998" stop-color="#3259D8"/>
<stop offset="0.6754" stop-color="#338BED"/>
<stop offset="0.8835" stop-color="#34A9FA"/>
<stop offset="1" stop-color="#34B5FF"/>
</linearGradient>
<linearGradient id="paint28_linear_1142_1574" x1="2.58349" y1="9.05625" x2="12.457" y2="26.1565" gradientUnits="userSpaceOnUse">
<stop stop-color="#3105B5"/>
<stop offset="0.1294" stop-color="#3506B4"/>
<stop offset="0.2709" stop-color="#4308B0"/>
<stop offset="0.4181" stop-color="#580DAB"/>
<stop offset="0.5693" stop-color="#7713A2"/>
<stop offset="0.7235" stop-color="#9F1A98"/>
<stop offset="0.878" stop-color="#CE248B"/>
<stop offset="1" stop-color="#F92C80"/>
</linearGradient>
<linearGradient id="paint29_linear_1142_1574" x1="3.9639" y1="23.0747" x2="16.5712" y2="18.4859" gradientUnits="userSpaceOnUse">
<stop stop-color="#3105B5"/>
<stop offset="0.0515839" stop-color="#310FB9"/>
<stop offset="0.5163" stop-color="#3368DF"/>
<stop offset="0.8428" stop-color="#349FF6"/>
<stop offset="1" stop-color="#34B5FF"/>
</linearGradient>
<linearGradient id="paint30_linear_1142_1574" x1="8.32981" y1="25.0922" x2="11.8609" y2="17.5196" gradientUnits="userSpaceOnUse">
<stop stop-color="#D80832"/>
<stop offset="0.1505" stop-color="#D80A37"/>
<stop offset="0.3217" stop-color="#D91144"/>
<stop offset="0.5031" stop-color="#DB1B5B"/>
<stop offset="0.6916" stop-color="#DD2A7B"/>
<stop offset="0.8836" stop-color="#E03DA4"/>
<stop offset="1" stop-color="#E24AC0"/>
</linearGradient>
<linearGradient id="paint31_linear_1142_1574" x1="4.23258" y1="23.674" x2="15.4475" y2="19.5921" gradientUnits="userSpaceOnUse">
<stop stop-color="#3105B5"/>
<stop offset="0.2305" stop-color="#3229C4"/>
<stop offset="0.7397" stop-color="#3384EA"/>
<stop offset="1" stop-color="#34B5FF"/>
</linearGradient>
<linearGradient id="paint32_linear_1142_1574" x1="2.95015" y1="23.9506" x2="16.1377" y2="19.6656" gradientUnits="userSpaceOnUse">
<stop stop-color="#3105B5"/>
<stop offset="0.173" stop-color="#3406B4"/>
<stop offset="0.3169" stop-color="#3F08B1"/>
<stop offset="0.4502" stop-color="#500BAD"/>
<stop offset="0.5772" stop-color="#6810A6"/>
<stop offset="0.6998" stop-color="#88169E"/>
<stop offset="0.8191" stop-color="#AE1D94"/>
<stop offset="0.9335" stop-color="#DB2688"/>
<stop offset="1" stop-color="#F92C80"/>
</linearGradient>
<linearGradient id="paint33_linear_1142_1574" x1="7.79908" y1="25.5565" x2="10.4733" y2="20.5268" gradientUnits="userSpaceOnUse">
<stop stop-color="#3105B5"/>
<stop offset="0.231" stop-color="#3406B4"/>
<stop offset="0.3779" stop-color="#3C07B2"/>
<stop offset="0.5014" stop-color="#4B0AAE"/>
<stop offset="0.612" stop-color="#600EA9"/>
<stop offset="0.7138" stop-color="#7B13A1"/>
<stop offset="0.8094" stop-color="#9C1A99"/>
<stop offset="0.9" stop-color="#C3228E"/>
<stop offset="0.9845" stop-color="#F02A82"/>
<stop offset="1" stop-color="#F92C80"/>
</linearGradient>
<linearGradient id="paint34_linear_1142_1574" x1="6.97875" y1="25.2822" x2="10.4579" y2="20.3133" gradientUnits="userSpaceOnUse">
<stop stop-color="#3105B5"/>
<stop offset="0.1529" stop-color="#3109B7"/>
<stop offset="0.3039" stop-color="#3115BC"/>
<stop offset="0.4542" stop-color="#3229C4"/>
<stop offset="0.6042" stop-color="#3245D0"/>
<stop offset="0.754" stop-color="#3368DF"/>
<stop offset="0.9015" stop-color="#3394F1"/>
<stop offset="1" stop-color="#34B5FF"/>
</linearGradient>
<linearGradient id="paint35_linear_1142_1574" x1="3.39835" y1="14.6118" x2="13.2977" y2="31.7582" gradientUnits="userSpaceOnUse">
<stop stop-color="#3105B5"/>
<stop offset="0.1414" stop-color="#3506B4"/>
<stop offset="0.2831" stop-color="#4108B1"/>
<stop offset="0.425" stop-color="#550CAB"/>
<stop offset="0.5671" stop-color="#7112A4"/>
<stop offset="0.7095" stop-color="#96199A"/>
<stop offset="0.852" stop-color="#C2218F"/>
<stop offset="0.9923" stop-color="#F62B81"/>
<stop offset="1" stop-color="#F92C80"/>
</linearGradient>
<linearGradient id="paint36_linear_1142_1574" x1="6.11786" y1="27.8319" x2="9.83679" y2="19.8565" gradientUnits="userSpaceOnUse">
<stop offset="0.0963742" stop-color="#3105B5"/>
<stop offset="0.2339" stop-color="#3109B7"/>
<stop offset="0.3704" stop-color="#3115BC"/>
<stop offset="0.5065" stop-color="#3229C4"/>
<stop offset="0.6424" stop-color="#3245D0"/>
<stop offset="0.7783" stop-color="#3369DF"/>
<stop offset="0.9122" stop-color="#3394F1"/>
<stop offset="1" stop-color="#34B5FF"/>
</linearGradient>
<linearGradient id="paint37_linear_1142_1574" x1="2.79448" y1="15.8229" x2="12.6957" y2="32.9717" gradientUnits="userSpaceOnUse">
<stop stop-color="#3105B5"/>
<stop offset="0.2214" stop-color="#3108B6"/>
<stop offset="0.3745" stop-color="#3111BA"/>
<stop offset="0.507" stop-color="#3120C0"/>
<stop offset="0.6278" stop-color="#3236CA"/>
<stop offset="0.7407" stop-color="#3252D5"/>
<stop offset="0.8476" stop-color="#3375E4"/>
<stop offset="0.948" stop-color="#349DF5"/>
<stop offset="1" stop-color="#34B5FF"/>
</linearGradient>
<linearGradient id="paint38_linear_1142_1574" x1="5.2538" y1="28.394" x2="9.0063" y2="21.3365" gradientUnits="userSpaceOnUse">
<stop stop-color="#3105B5"/>
<stop offset="0.2824" stop-color="#3107B6"/>
<stop offset="0.4354" stop-color="#310FB9"/>
<stop offset="0.5575" stop-color="#311DBF"/>
<stop offset="0.6632" stop-color="#3230C7"/>
<stop offset="0.7583" stop-color="#3249D2"/>
<stop offset="0.8458" stop-color="#3368DF"/>
<stop offset="0.9259" stop-color="#338CEE"/>
<stop offset="1" stop-color="#34B5FF"/>
</linearGradient>
<linearGradient id="paint39_linear_1142_1574" x1="3.97228" y1="28.885" x2="7.1636" y2="24.8376" gradientUnits="userSpaceOnUse">
<stop stop-color="#2F3CCA"/>
<stop offset="0.4479" stop-color="#445AD6"/>
<stop offset="1" stop-color="#6285E6"/>
</linearGradient>
<linearGradient id="paint40_linear_1142_1574" x1="3.17783" y1="29.8708" x2="6.36914" y2="25.8234" gradientUnits="userSpaceOnUse">
<stop stop-color="#3639C5"/>
<stop offset="0.3372" stop-color="#454ECD"/>
<stop offset="1" stop-color="#6B82E0"/>
</linearGradient>
<linearGradient id="paint41_linear_1142_1574" x1="2.38313" y1="30.856" x2="5.57444" y2="26.8086" gradientUnits="userSpaceOnUse">
<stop stop-color="#3D35C0"/>
<stop offset="0.2776" stop-color="#4945C5"/>
<stop offset="0.8198" stop-color="#686FD4"/>
<stop offset="1" stop-color="#747FD9"/>
</linearGradient>
<linearGradient id="paint42_linear_1142_1574" x1="1.5887" y1="31.8413" x2="4.78001" y2="27.7939" gradientUnits="userSpaceOnUse">
<stop stop-color="#4432BB"/>
<stop offset="0.2455" stop-color="#4E3FBF"/>
<stop offset="0.6998" stop-color="#6962CA"/>
<stop offset="1" stop-color="#7D7CD2"/>
</linearGradient>
<linearGradient id="paint43_linear_1142_1574" x1="0.794239" y1="32.8265" x2="3.98555" y2="28.7792" gradientUnits="userSpaceOnUse">
<stop stop-color="#4B2FB6"/>
<stop offset="0.226" stop-color="#543AB9"/>
<stop offset="0.6218" stop-color="#6B57C1"/>
<stop offset="1" stop-color="#8579CB"/>
</linearGradient>
<linearGradient id="paint44_linear_1142_1574" x1="-0.000217919" y1="33.8122" x2="3.1911" y2="29.7648" gradientUnits="userSpaceOnUse">
<stop stop-color="#522CB1"/>
<stop offset="0.214" stop-color="#5A35B4"/>
<stop offset="0.5701" stop-color="#6E4FBA"/>
<stop offset="1" stop-color="#8E76C5"/>
</linearGradient>
<linearGradient id="paint45_linear_1142_1574" x1="-0.794897" y1="34.7975" x2="2.39642" y2="30.7501" gradientUnits="userSpaceOnUse">
<stop stop-color="#5928AC"/>
<stop offset="0.205" stop-color="#6030AE"/>
<stop offset="0.5277" stop-color="#7247B3"/>
<stop offset="0.9258" stop-color="#916BBC"/>
<stop offset="1" stop-color="#9773BE"/>
</linearGradient>
</defs>
</svg>
